%TF.GenerationSoftware,KiCad,Pcbnew,7.0.1-0*%
%TF.CreationDate,2023-05-12T11:35:50+01:00*%
%TF.ProjectId,rs232,72733233-322e-46b6-9963-61645f706362,rev?*%
%TF.SameCoordinates,Original*%
%TF.FileFunction,Legend,Top*%
%TF.FilePolarity,Positive*%
%FSLAX46Y46*%
G04 Gerber Fmt 4.6, Leading zero omitted, Abs format (unit mm)*
G04 Created by KiCad (PCBNEW 7.0.1-0) date 2023-05-12 11:35:50*
%MOMM*%
%LPD*%
G01*
G04 APERTURE LIST*
%ADD10C,0.150000*%
%ADD11C,0.120000*%
G04 APERTURE END LIST*
D10*
X231346964Y-103238094D02*
X230596964Y-103238094D01*
X230596964Y-103238094D02*
X230596964Y-102857142D01*
X230596964Y-102857142D02*
X230632678Y-102761904D01*
X230632678Y-102761904D02*
X230668392Y-102714285D01*
X230668392Y-102714285D02*
X230739821Y-102666666D01*
X230739821Y-102666666D02*
X230846964Y-102666666D01*
X230846964Y-102666666D02*
X230918392Y-102714285D01*
X230918392Y-102714285D02*
X230954107Y-102761904D01*
X230954107Y-102761904D02*
X230989821Y-102857142D01*
X230989821Y-102857142D02*
X230989821Y-103238094D01*
X230954107Y-101904761D02*
X230989821Y-101761904D01*
X230989821Y-101761904D02*
X231025535Y-101714285D01*
X231025535Y-101714285D02*
X231096964Y-101666666D01*
X231096964Y-101666666D02*
X231204107Y-101666666D01*
X231204107Y-101666666D02*
X231275535Y-101714285D01*
X231275535Y-101714285D02*
X231311250Y-101761904D01*
X231311250Y-101761904D02*
X231346964Y-101857142D01*
X231346964Y-101857142D02*
X231346964Y-102238094D01*
X231346964Y-102238094D02*
X230596964Y-102238094D01*
X230596964Y-102238094D02*
X230596964Y-101904761D01*
X230596964Y-101904761D02*
X230632678Y-101809523D01*
X230632678Y-101809523D02*
X230668392Y-101761904D01*
X230668392Y-101761904D02*
X230739821Y-101714285D01*
X230739821Y-101714285D02*
X230811250Y-101714285D01*
X230811250Y-101714285D02*
X230882678Y-101761904D01*
X230882678Y-101761904D02*
X230918392Y-101809523D01*
X230918392Y-101809523D02*
X230954107Y-101904761D01*
X230954107Y-101904761D02*
X230954107Y-102238094D01*
X230596964Y-101333332D02*
X230596964Y-100666666D01*
X230596964Y-100666666D02*
X231346964Y-101095237D01*
X231346964Y-92238094D02*
X230596964Y-92238094D01*
X230596964Y-92238094D02*
X230596964Y-91857142D01*
X230596964Y-91857142D02*
X230632678Y-91761904D01*
X230632678Y-91761904D02*
X230668392Y-91714285D01*
X230668392Y-91714285D02*
X230739821Y-91666666D01*
X230739821Y-91666666D02*
X230846964Y-91666666D01*
X230846964Y-91666666D02*
X230918392Y-91714285D01*
X230918392Y-91714285D02*
X230954107Y-91761904D01*
X230954107Y-91761904D02*
X230989821Y-91857142D01*
X230989821Y-91857142D02*
X230989821Y-92238094D01*
X230954107Y-90904761D02*
X230989821Y-90761904D01*
X230989821Y-90761904D02*
X231025535Y-90714285D01*
X231025535Y-90714285D02*
X231096964Y-90666666D01*
X231096964Y-90666666D02*
X231204107Y-90666666D01*
X231204107Y-90666666D02*
X231275535Y-90714285D01*
X231275535Y-90714285D02*
X231311250Y-90761904D01*
X231311250Y-90761904D02*
X231346964Y-90857142D01*
X231346964Y-90857142D02*
X231346964Y-91238094D01*
X231346964Y-91238094D02*
X230596964Y-91238094D01*
X230596964Y-91238094D02*
X230596964Y-90904761D01*
X230596964Y-90904761D02*
X230632678Y-90809523D01*
X230632678Y-90809523D02*
X230668392Y-90761904D01*
X230668392Y-90761904D02*
X230739821Y-90714285D01*
X230739821Y-90714285D02*
X230811250Y-90714285D01*
X230811250Y-90714285D02*
X230882678Y-90761904D01*
X230882678Y-90761904D02*
X230918392Y-90809523D01*
X230918392Y-90809523D02*
X230954107Y-90904761D01*
X230954107Y-90904761D02*
X230954107Y-91238094D01*
X230596964Y-90047618D02*
X230596964Y-89952380D01*
X230596964Y-89952380D02*
X230632678Y-89857142D01*
X230632678Y-89857142D02*
X230668392Y-89809523D01*
X230668392Y-89809523D02*
X230739821Y-89761904D01*
X230739821Y-89761904D02*
X230882678Y-89714285D01*
X230882678Y-89714285D02*
X231061250Y-89714285D01*
X231061250Y-89714285D02*
X231204107Y-89761904D01*
X231204107Y-89761904D02*
X231275535Y-89809523D01*
X231275535Y-89809523D02*
X231311250Y-89857142D01*
X231311250Y-89857142D02*
X231346964Y-89952380D01*
X231346964Y-89952380D02*
X231346964Y-90047618D01*
X231346964Y-90047618D02*
X231311250Y-90142856D01*
X231311250Y-90142856D02*
X231275535Y-90190475D01*
X231275535Y-90190475D02*
X231204107Y-90238094D01*
X231204107Y-90238094D02*
X231061250Y-90285713D01*
X231061250Y-90285713D02*
X230882678Y-90285713D01*
X230882678Y-90285713D02*
X230739821Y-90238094D01*
X230739821Y-90238094D02*
X230668392Y-90190475D01*
X230668392Y-90190475D02*
X230632678Y-90142856D01*
X230632678Y-90142856D02*
X230596964Y-90047618D01*
X241346964Y-101238094D02*
X240596964Y-101238094D01*
X240596964Y-101238094D02*
X240596964Y-100857142D01*
X240596964Y-100857142D02*
X240632678Y-100761904D01*
X240632678Y-100761904D02*
X240668392Y-100714285D01*
X240668392Y-100714285D02*
X240739821Y-100666666D01*
X240739821Y-100666666D02*
X240846964Y-100666666D01*
X240846964Y-100666666D02*
X240918392Y-100714285D01*
X240918392Y-100714285D02*
X240954107Y-100761904D01*
X240954107Y-100761904D02*
X240989821Y-100857142D01*
X240989821Y-100857142D02*
X240989821Y-101238094D01*
X240954107Y-99904761D02*
X240989821Y-99761904D01*
X240989821Y-99761904D02*
X241025535Y-99714285D01*
X241025535Y-99714285D02*
X241096964Y-99666666D01*
X241096964Y-99666666D02*
X241204107Y-99666666D01*
X241204107Y-99666666D02*
X241275535Y-99714285D01*
X241275535Y-99714285D02*
X241311250Y-99761904D01*
X241311250Y-99761904D02*
X241346964Y-99857142D01*
X241346964Y-99857142D02*
X241346964Y-100238094D01*
X241346964Y-100238094D02*
X240596964Y-100238094D01*
X240596964Y-100238094D02*
X240596964Y-99904761D01*
X240596964Y-99904761D02*
X240632678Y-99809523D01*
X240632678Y-99809523D02*
X240668392Y-99761904D01*
X240668392Y-99761904D02*
X240739821Y-99714285D01*
X240739821Y-99714285D02*
X240811250Y-99714285D01*
X240811250Y-99714285D02*
X240882678Y-99761904D01*
X240882678Y-99761904D02*
X240918392Y-99809523D01*
X240918392Y-99809523D02*
X240954107Y-99904761D01*
X240954107Y-99904761D02*
X240954107Y-100238094D01*
X240596964Y-99333332D02*
X240596964Y-98666666D01*
X240596964Y-98666666D02*
X241346964Y-99095237D01*
X241346964Y-94238094D02*
X240596964Y-94238094D01*
X240596964Y-94238094D02*
X240596964Y-93857142D01*
X240596964Y-93857142D02*
X240632678Y-93761904D01*
X240632678Y-93761904D02*
X240668392Y-93714285D01*
X240668392Y-93714285D02*
X240739821Y-93666666D01*
X240739821Y-93666666D02*
X240846964Y-93666666D01*
X240846964Y-93666666D02*
X240918392Y-93714285D01*
X240918392Y-93714285D02*
X240954107Y-93761904D01*
X240954107Y-93761904D02*
X240989821Y-93857142D01*
X240989821Y-93857142D02*
X240989821Y-94238094D01*
X240954107Y-92904761D02*
X240989821Y-92761904D01*
X240989821Y-92761904D02*
X241025535Y-92714285D01*
X241025535Y-92714285D02*
X241096964Y-92666666D01*
X241096964Y-92666666D02*
X241204107Y-92666666D01*
X241204107Y-92666666D02*
X241275535Y-92714285D01*
X241275535Y-92714285D02*
X241311250Y-92761904D01*
X241311250Y-92761904D02*
X241346964Y-92857142D01*
X241346964Y-92857142D02*
X241346964Y-93238094D01*
X241346964Y-93238094D02*
X240596964Y-93238094D01*
X240596964Y-93238094D02*
X240596964Y-92904761D01*
X240596964Y-92904761D02*
X240632678Y-92809523D01*
X240632678Y-92809523D02*
X240668392Y-92761904D01*
X240668392Y-92761904D02*
X240739821Y-92714285D01*
X240739821Y-92714285D02*
X240811250Y-92714285D01*
X240811250Y-92714285D02*
X240882678Y-92761904D01*
X240882678Y-92761904D02*
X240918392Y-92809523D01*
X240918392Y-92809523D02*
X240954107Y-92904761D01*
X240954107Y-92904761D02*
X240954107Y-93238094D01*
X240596964Y-92047618D02*
X240596964Y-91952380D01*
X240596964Y-91952380D02*
X240632678Y-91857142D01*
X240632678Y-91857142D02*
X240668392Y-91809523D01*
X240668392Y-91809523D02*
X240739821Y-91761904D01*
X240739821Y-91761904D02*
X240882678Y-91714285D01*
X240882678Y-91714285D02*
X241061250Y-91714285D01*
X241061250Y-91714285D02*
X241204107Y-91761904D01*
X241204107Y-91761904D02*
X241275535Y-91809523D01*
X241275535Y-91809523D02*
X241311250Y-91857142D01*
X241311250Y-91857142D02*
X241346964Y-91952380D01*
X241346964Y-91952380D02*
X241346964Y-92047618D01*
X241346964Y-92047618D02*
X241311250Y-92142856D01*
X241311250Y-92142856D02*
X241275535Y-92190475D01*
X241275535Y-92190475D02*
X241204107Y-92238094D01*
X241204107Y-92238094D02*
X241061250Y-92285713D01*
X241061250Y-92285713D02*
X240882678Y-92285713D01*
X240882678Y-92285713D02*
X240739821Y-92238094D01*
X240739821Y-92238094D02*
X240668392Y-92190475D01*
X240668392Y-92190475D02*
X240632678Y-92142856D01*
X240632678Y-92142856D02*
X240596964Y-92047618D01*
%TO.C,R4*%
X224623333Y-110542619D02*
X224290000Y-110066428D01*
X224051905Y-110542619D02*
X224051905Y-109542619D01*
X224051905Y-109542619D02*
X224432857Y-109542619D01*
X224432857Y-109542619D02*
X224528095Y-109590238D01*
X224528095Y-109590238D02*
X224575714Y-109637857D01*
X224575714Y-109637857D02*
X224623333Y-109733095D01*
X224623333Y-109733095D02*
X224623333Y-109875952D01*
X224623333Y-109875952D02*
X224575714Y-109971190D01*
X224575714Y-109971190D02*
X224528095Y-110018809D01*
X224528095Y-110018809D02*
X224432857Y-110066428D01*
X224432857Y-110066428D02*
X224051905Y-110066428D01*
X225480476Y-109875952D02*
X225480476Y-110542619D01*
X225242381Y-109495000D02*
X225004286Y-110209285D01*
X225004286Y-110209285D02*
X225623333Y-110209285D01*
%TO.C,E40*%
X188753333Y-86938809D02*
X189086666Y-86938809D01*
X189229523Y-87462619D02*
X188753333Y-87462619D01*
X188753333Y-87462619D02*
X188753333Y-86462619D01*
X188753333Y-86462619D02*
X189229523Y-86462619D01*
X190086666Y-86795952D02*
X190086666Y-87462619D01*
X189848571Y-86415000D02*
X189610476Y-87129285D01*
X189610476Y-87129285D02*
X190229523Y-87129285D01*
X190800952Y-86462619D02*
X190896190Y-86462619D01*
X190896190Y-86462619D02*
X190991428Y-86510238D01*
X190991428Y-86510238D02*
X191039047Y-86557857D01*
X191039047Y-86557857D02*
X191086666Y-86653095D01*
X191086666Y-86653095D02*
X191134285Y-86843571D01*
X191134285Y-86843571D02*
X191134285Y-87081666D01*
X191134285Y-87081666D02*
X191086666Y-87272142D01*
X191086666Y-87272142D02*
X191039047Y-87367380D01*
X191039047Y-87367380D02*
X190991428Y-87415000D01*
X190991428Y-87415000D02*
X190896190Y-87462619D01*
X190896190Y-87462619D02*
X190800952Y-87462619D01*
X190800952Y-87462619D02*
X190705714Y-87415000D01*
X190705714Y-87415000D02*
X190658095Y-87367380D01*
X190658095Y-87367380D02*
X190610476Y-87272142D01*
X190610476Y-87272142D02*
X190562857Y-87081666D01*
X190562857Y-87081666D02*
X190562857Y-86843571D01*
X190562857Y-86843571D02*
X190610476Y-86653095D01*
X190610476Y-86653095D02*
X190658095Y-86557857D01*
X190658095Y-86557857D02*
X190705714Y-86510238D01*
X190705714Y-86510238D02*
X190800952Y-86462619D01*
%TO.C,E31*%
X208753333Y-132808809D02*
X209086666Y-132808809D01*
X209229523Y-133332619D02*
X208753333Y-133332619D01*
X208753333Y-133332619D02*
X208753333Y-132332619D01*
X208753333Y-132332619D02*
X209229523Y-132332619D01*
X209562857Y-132332619D02*
X210181904Y-132332619D01*
X210181904Y-132332619D02*
X209848571Y-132713571D01*
X209848571Y-132713571D02*
X209991428Y-132713571D01*
X209991428Y-132713571D02*
X210086666Y-132761190D01*
X210086666Y-132761190D02*
X210134285Y-132808809D01*
X210134285Y-132808809D02*
X210181904Y-132904047D01*
X210181904Y-132904047D02*
X210181904Y-133142142D01*
X210181904Y-133142142D02*
X210134285Y-133237380D01*
X210134285Y-133237380D02*
X210086666Y-133285000D01*
X210086666Y-133285000D02*
X209991428Y-133332619D01*
X209991428Y-133332619D02*
X209705714Y-133332619D01*
X209705714Y-133332619D02*
X209610476Y-133285000D01*
X209610476Y-133285000D02*
X209562857Y-133237380D01*
X211134285Y-133332619D02*
X210562857Y-133332619D01*
X210848571Y-133332619D02*
X210848571Y-132332619D01*
X210848571Y-132332619D02*
X210753333Y-132475476D01*
X210753333Y-132475476D02*
X210658095Y-132570714D01*
X210658095Y-132570714D02*
X210562857Y-132618333D01*
%TO.C,J1*%
X232666666Y-117902619D02*
X232666666Y-118616904D01*
X232666666Y-118616904D02*
X232619047Y-118759761D01*
X232619047Y-118759761D02*
X232523809Y-118855000D01*
X232523809Y-118855000D02*
X232380952Y-118902619D01*
X232380952Y-118902619D02*
X232285714Y-118902619D01*
X233666666Y-118902619D02*
X233095238Y-118902619D01*
X233380952Y-118902619D02*
X233380952Y-117902619D01*
X233380952Y-117902619D02*
X233285714Y-118045476D01*
X233285714Y-118045476D02*
X233190476Y-118140714D01*
X233190476Y-118140714D02*
X233095238Y-118188333D01*
%TO.C,J4*%
X238462619Y-98333333D02*
X239176904Y-98333333D01*
X239176904Y-98333333D02*
X239319761Y-98380952D01*
X239319761Y-98380952D02*
X239415000Y-98476190D01*
X239415000Y-98476190D02*
X239462619Y-98619047D01*
X239462619Y-98619047D02*
X239462619Y-98714285D01*
X238795952Y-97428571D02*
X239462619Y-97428571D01*
X238415000Y-97666666D02*
X239129285Y-97904761D01*
X239129285Y-97904761D02*
X239129285Y-97285714D01*
%TO.C,E52*%
X219753333Y-86938809D02*
X220086666Y-86938809D01*
X220229523Y-87462619D02*
X219753333Y-87462619D01*
X219753333Y-87462619D02*
X219753333Y-86462619D01*
X219753333Y-86462619D02*
X220229523Y-86462619D01*
X221134285Y-86462619D02*
X220658095Y-86462619D01*
X220658095Y-86462619D02*
X220610476Y-86938809D01*
X220610476Y-86938809D02*
X220658095Y-86891190D01*
X220658095Y-86891190D02*
X220753333Y-86843571D01*
X220753333Y-86843571D02*
X220991428Y-86843571D01*
X220991428Y-86843571D02*
X221086666Y-86891190D01*
X221086666Y-86891190D02*
X221134285Y-86938809D01*
X221134285Y-86938809D02*
X221181904Y-87034047D01*
X221181904Y-87034047D02*
X221181904Y-87272142D01*
X221181904Y-87272142D02*
X221134285Y-87367380D01*
X221134285Y-87367380D02*
X221086666Y-87415000D01*
X221086666Y-87415000D02*
X220991428Y-87462619D01*
X220991428Y-87462619D02*
X220753333Y-87462619D01*
X220753333Y-87462619D02*
X220658095Y-87415000D01*
X220658095Y-87415000D02*
X220610476Y-87367380D01*
X221562857Y-86557857D02*
X221610476Y-86510238D01*
X221610476Y-86510238D02*
X221705714Y-86462619D01*
X221705714Y-86462619D02*
X221943809Y-86462619D01*
X221943809Y-86462619D02*
X222039047Y-86510238D01*
X222039047Y-86510238D02*
X222086666Y-86557857D01*
X222086666Y-86557857D02*
X222134285Y-86653095D01*
X222134285Y-86653095D02*
X222134285Y-86748333D01*
X222134285Y-86748333D02*
X222086666Y-86891190D01*
X222086666Y-86891190D02*
X221515238Y-87462619D01*
X221515238Y-87462619D02*
X222134285Y-87462619D01*
%TO.C,E46*%
X204753333Y-86938809D02*
X205086666Y-86938809D01*
X205229523Y-87462619D02*
X204753333Y-87462619D01*
X204753333Y-87462619D02*
X204753333Y-86462619D01*
X204753333Y-86462619D02*
X205229523Y-86462619D01*
X206086666Y-86795952D02*
X206086666Y-87462619D01*
X205848571Y-86415000D02*
X205610476Y-87129285D01*
X205610476Y-87129285D02*
X206229523Y-87129285D01*
X207039047Y-86462619D02*
X206848571Y-86462619D01*
X206848571Y-86462619D02*
X206753333Y-86510238D01*
X206753333Y-86510238D02*
X206705714Y-86557857D01*
X206705714Y-86557857D02*
X206610476Y-86700714D01*
X206610476Y-86700714D02*
X206562857Y-86891190D01*
X206562857Y-86891190D02*
X206562857Y-87272142D01*
X206562857Y-87272142D02*
X206610476Y-87367380D01*
X206610476Y-87367380D02*
X206658095Y-87415000D01*
X206658095Y-87415000D02*
X206753333Y-87462619D01*
X206753333Y-87462619D02*
X206943809Y-87462619D01*
X206943809Y-87462619D02*
X207039047Y-87415000D01*
X207039047Y-87415000D02*
X207086666Y-87367380D01*
X207086666Y-87367380D02*
X207134285Y-87272142D01*
X207134285Y-87272142D02*
X207134285Y-87034047D01*
X207134285Y-87034047D02*
X207086666Y-86938809D01*
X207086666Y-86938809D02*
X207039047Y-86891190D01*
X207039047Y-86891190D02*
X206943809Y-86843571D01*
X206943809Y-86843571D02*
X206753333Y-86843571D01*
X206753333Y-86843571D02*
X206658095Y-86891190D01*
X206658095Y-86891190D02*
X206610476Y-86938809D01*
X206610476Y-86938809D02*
X206562857Y-87034047D01*
%TO.C,D11*%
X188705714Y-137992619D02*
X188705714Y-136992619D01*
X188705714Y-136992619D02*
X188943809Y-136992619D01*
X188943809Y-136992619D02*
X189086666Y-137040238D01*
X189086666Y-137040238D02*
X189181904Y-137135476D01*
X189181904Y-137135476D02*
X189229523Y-137230714D01*
X189229523Y-137230714D02*
X189277142Y-137421190D01*
X189277142Y-137421190D02*
X189277142Y-137564047D01*
X189277142Y-137564047D02*
X189229523Y-137754523D01*
X189229523Y-137754523D02*
X189181904Y-137849761D01*
X189181904Y-137849761D02*
X189086666Y-137945000D01*
X189086666Y-137945000D02*
X188943809Y-137992619D01*
X188943809Y-137992619D02*
X188705714Y-137992619D01*
X190229523Y-137992619D02*
X189658095Y-137992619D01*
X189943809Y-137992619D02*
X189943809Y-136992619D01*
X189943809Y-136992619D02*
X189848571Y-137135476D01*
X189848571Y-137135476D02*
X189753333Y-137230714D01*
X189753333Y-137230714D02*
X189658095Y-137278333D01*
X191181904Y-137992619D02*
X190610476Y-137992619D01*
X190896190Y-137992619D02*
X190896190Y-136992619D01*
X190896190Y-136992619D02*
X190800952Y-137135476D01*
X190800952Y-137135476D02*
X190705714Y-137230714D01*
X190705714Y-137230714D02*
X190610476Y-137278333D01*
X184578095Y-138362619D02*
X184578095Y-137362619D01*
X185149523Y-138362619D02*
X184720952Y-137791190D01*
X185149523Y-137362619D02*
X184578095Y-137934047D01*
%TO.C,R5*%
X224623333Y-117542619D02*
X224290000Y-117066428D01*
X224051905Y-117542619D02*
X224051905Y-116542619D01*
X224051905Y-116542619D02*
X224432857Y-116542619D01*
X224432857Y-116542619D02*
X224528095Y-116590238D01*
X224528095Y-116590238D02*
X224575714Y-116637857D01*
X224575714Y-116637857D02*
X224623333Y-116733095D01*
X224623333Y-116733095D02*
X224623333Y-116875952D01*
X224623333Y-116875952D02*
X224575714Y-116971190D01*
X224575714Y-116971190D02*
X224528095Y-117018809D01*
X224528095Y-117018809D02*
X224432857Y-117066428D01*
X224432857Y-117066428D02*
X224051905Y-117066428D01*
X225528095Y-116542619D02*
X225051905Y-116542619D01*
X225051905Y-116542619D02*
X225004286Y-117018809D01*
X225004286Y-117018809D02*
X225051905Y-116971190D01*
X225051905Y-116971190D02*
X225147143Y-116923571D01*
X225147143Y-116923571D02*
X225385238Y-116923571D01*
X225385238Y-116923571D02*
X225480476Y-116971190D01*
X225480476Y-116971190D02*
X225528095Y-117018809D01*
X225528095Y-117018809D02*
X225575714Y-117114047D01*
X225575714Y-117114047D02*
X225575714Y-117352142D01*
X225575714Y-117352142D02*
X225528095Y-117447380D01*
X225528095Y-117447380D02*
X225480476Y-117495000D01*
X225480476Y-117495000D02*
X225385238Y-117542619D01*
X225385238Y-117542619D02*
X225147143Y-117542619D01*
X225147143Y-117542619D02*
X225051905Y-117495000D01*
X225051905Y-117495000D02*
X225004286Y-117447380D01*
%TO.C,J3*%
X232666666Y-109902619D02*
X232666666Y-110616904D01*
X232666666Y-110616904D02*
X232619047Y-110759761D01*
X232619047Y-110759761D02*
X232523809Y-110855000D01*
X232523809Y-110855000D02*
X232380952Y-110902619D01*
X232380952Y-110902619D02*
X232285714Y-110902619D01*
X233047619Y-109902619D02*
X233666666Y-109902619D01*
X233666666Y-109902619D02*
X233333333Y-110283571D01*
X233333333Y-110283571D02*
X233476190Y-110283571D01*
X233476190Y-110283571D02*
X233571428Y-110331190D01*
X233571428Y-110331190D02*
X233619047Y-110378809D01*
X233619047Y-110378809D02*
X233666666Y-110474047D01*
X233666666Y-110474047D02*
X233666666Y-110712142D01*
X233666666Y-110712142D02*
X233619047Y-110807380D01*
X233619047Y-110807380D02*
X233571428Y-110855000D01*
X233571428Y-110855000D02*
X233476190Y-110902619D01*
X233476190Y-110902619D02*
X233190476Y-110902619D01*
X233190476Y-110902619D02*
X233095238Y-110855000D01*
X233095238Y-110855000D02*
X233047619Y-110807380D01*
%TO.C,C12*%
X185239880Y-120142857D02*
X185287500Y-120190476D01*
X185287500Y-120190476D02*
X185335119Y-120333333D01*
X185335119Y-120333333D02*
X185335119Y-120428571D01*
X185335119Y-120428571D02*
X185287500Y-120571428D01*
X185287500Y-120571428D02*
X185192261Y-120666666D01*
X185192261Y-120666666D02*
X185097023Y-120714285D01*
X185097023Y-120714285D02*
X184906547Y-120761904D01*
X184906547Y-120761904D02*
X184763690Y-120761904D01*
X184763690Y-120761904D02*
X184573214Y-120714285D01*
X184573214Y-120714285D02*
X184477976Y-120666666D01*
X184477976Y-120666666D02*
X184382738Y-120571428D01*
X184382738Y-120571428D02*
X184335119Y-120428571D01*
X184335119Y-120428571D02*
X184335119Y-120333333D01*
X184335119Y-120333333D02*
X184382738Y-120190476D01*
X184382738Y-120190476D02*
X184430357Y-120142857D01*
X185335119Y-119190476D02*
X185335119Y-119761904D01*
X185335119Y-119476190D02*
X184335119Y-119476190D01*
X184335119Y-119476190D02*
X184477976Y-119571428D01*
X184477976Y-119571428D02*
X184573214Y-119666666D01*
X184573214Y-119666666D02*
X184620833Y-119761904D01*
X184430357Y-118809523D02*
X184382738Y-118761904D01*
X184382738Y-118761904D02*
X184335119Y-118666666D01*
X184335119Y-118666666D02*
X184335119Y-118428571D01*
X184335119Y-118428571D02*
X184382738Y-118333333D01*
X184382738Y-118333333D02*
X184430357Y-118285714D01*
X184430357Y-118285714D02*
X184525595Y-118238095D01*
X184525595Y-118238095D02*
X184620833Y-118238095D01*
X184620833Y-118238095D02*
X184763690Y-118285714D01*
X184763690Y-118285714D02*
X185335119Y-118857142D01*
X185335119Y-118857142D02*
X185335119Y-118238095D01*
%TO.C,E30*%
X203753333Y-120808809D02*
X204086666Y-120808809D01*
X204229523Y-121332619D02*
X203753333Y-121332619D01*
X203753333Y-121332619D02*
X203753333Y-120332619D01*
X203753333Y-120332619D02*
X204229523Y-120332619D01*
X204562857Y-120332619D02*
X205181904Y-120332619D01*
X205181904Y-120332619D02*
X204848571Y-120713571D01*
X204848571Y-120713571D02*
X204991428Y-120713571D01*
X204991428Y-120713571D02*
X205086666Y-120761190D01*
X205086666Y-120761190D02*
X205134285Y-120808809D01*
X205134285Y-120808809D02*
X205181904Y-120904047D01*
X205181904Y-120904047D02*
X205181904Y-121142142D01*
X205181904Y-121142142D02*
X205134285Y-121237380D01*
X205134285Y-121237380D02*
X205086666Y-121285000D01*
X205086666Y-121285000D02*
X204991428Y-121332619D01*
X204991428Y-121332619D02*
X204705714Y-121332619D01*
X204705714Y-121332619D02*
X204610476Y-121285000D01*
X204610476Y-121285000D02*
X204562857Y-121237380D01*
X205800952Y-120332619D02*
X205896190Y-120332619D01*
X205896190Y-120332619D02*
X205991428Y-120380238D01*
X205991428Y-120380238D02*
X206039047Y-120427857D01*
X206039047Y-120427857D02*
X206086666Y-120523095D01*
X206086666Y-120523095D02*
X206134285Y-120713571D01*
X206134285Y-120713571D02*
X206134285Y-120951666D01*
X206134285Y-120951666D02*
X206086666Y-121142142D01*
X206086666Y-121142142D02*
X206039047Y-121237380D01*
X206039047Y-121237380D02*
X205991428Y-121285000D01*
X205991428Y-121285000D02*
X205896190Y-121332619D01*
X205896190Y-121332619D02*
X205800952Y-121332619D01*
X205800952Y-121332619D02*
X205705714Y-121285000D01*
X205705714Y-121285000D02*
X205658095Y-121237380D01*
X205658095Y-121237380D02*
X205610476Y-121142142D01*
X205610476Y-121142142D02*
X205562857Y-120951666D01*
X205562857Y-120951666D02*
X205562857Y-120713571D01*
X205562857Y-120713571D02*
X205610476Y-120523095D01*
X205610476Y-120523095D02*
X205658095Y-120427857D01*
X205658095Y-120427857D02*
X205705714Y-120380238D01*
X205705714Y-120380238D02*
X205800952Y-120332619D01*
%TO.C,R16*%
X224147142Y-131542619D02*
X223813809Y-131066428D01*
X223575714Y-131542619D02*
X223575714Y-130542619D01*
X223575714Y-130542619D02*
X223956666Y-130542619D01*
X223956666Y-130542619D02*
X224051904Y-130590238D01*
X224051904Y-130590238D02*
X224099523Y-130637857D01*
X224099523Y-130637857D02*
X224147142Y-130733095D01*
X224147142Y-130733095D02*
X224147142Y-130875952D01*
X224147142Y-130875952D02*
X224099523Y-130971190D01*
X224099523Y-130971190D02*
X224051904Y-131018809D01*
X224051904Y-131018809D02*
X223956666Y-131066428D01*
X223956666Y-131066428D02*
X223575714Y-131066428D01*
X225099523Y-131542619D02*
X224528095Y-131542619D01*
X224813809Y-131542619D02*
X224813809Y-130542619D01*
X224813809Y-130542619D02*
X224718571Y-130685476D01*
X224718571Y-130685476D02*
X224623333Y-130780714D01*
X224623333Y-130780714D02*
X224528095Y-130828333D01*
X225956666Y-130542619D02*
X225766190Y-130542619D01*
X225766190Y-130542619D02*
X225670952Y-130590238D01*
X225670952Y-130590238D02*
X225623333Y-130637857D01*
X225623333Y-130637857D02*
X225528095Y-130780714D01*
X225528095Y-130780714D02*
X225480476Y-130971190D01*
X225480476Y-130971190D02*
X225480476Y-131352142D01*
X225480476Y-131352142D02*
X225528095Y-131447380D01*
X225528095Y-131447380D02*
X225575714Y-131495000D01*
X225575714Y-131495000D02*
X225670952Y-131542619D01*
X225670952Y-131542619D02*
X225861428Y-131542619D01*
X225861428Y-131542619D02*
X225956666Y-131495000D01*
X225956666Y-131495000D02*
X226004285Y-131447380D01*
X226004285Y-131447380D02*
X226051904Y-131352142D01*
X226051904Y-131352142D02*
X226051904Y-131114047D01*
X226051904Y-131114047D02*
X226004285Y-131018809D01*
X226004285Y-131018809D02*
X225956666Y-130971190D01*
X225956666Y-130971190D02*
X225861428Y-130923571D01*
X225861428Y-130923571D02*
X225670952Y-130923571D01*
X225670952Y-130923571D02*
X225575714Y-130971190D01*
X225575714Y-130971190D02*
X225528095Y-131018809D01*
X225528095Y-131018809D02*
X225480476Y-131114047D01*
%TO.C,R9*%
X224623333Y-124542619D02*
X224290000Y-124066428D01*
X224051905Y-124542619D02*
X224051905Y-123542619D01*
X224051905Y-123542619D02*
X224432857Y-123542619D01*
X224432857Y-123542619D02*
X224528095Y-123590238D01*
X224528095Y-123590238D02*
X224575714Y-123637857D01*
X224575714Y-123637857D02*
X224623333Y-123733095D01*
X224623333Y-123733095D02*
X224623333Y-123875952D01*
X224623333Y-123875952D02*
X224575714Y-123971190D01*
X224575714Y-123971190D02*
X224528095Y-124018809D01*
X224528095Y-124018809D02*
X224432857Y-124066428D01*
X224432857Y-124066428D02*
X224051905Y-124066428D01*
X225099524Y-124542619D02*
X225290000Y-124542619D01*
X225290000Y-124542619D02*
X225385238Y-124495000D01*
X225385238Y-124495000D02*
X225432857Y-124447380D01*
X225432857Y-124447380D02*
X225528095Y-124304523D01*
X225528095Y-124304523D02*
X225575714Y-124114047D01*
X225575714Y-124114047D02*
X225575714Y-123733095D01*
X225575714Y-123733095D02*
X225528095Y-123637857D01*
X225528095Y-123637857D02*
X225480476Y-123590238D01*
X225480476Y-123590238D02*
X225385238Y-123542619D01*
X225385238Y-123542619D02*
X225194762Y-123542619D01*
X225194762Y-123542619D02*
X225099524Y-123590238D01*
X225099524Y-123590238D02*
X225051905Y-123637857D01*
X225051905Y-123637857D02*
X225004286Y-123733095D01*
X225004286Y-123733095D02*
X225004286Y-123971190D01*
X225004286Y-123971190D02*
X225051905Y-124066428D01*
X225051905Y-124066428D02*
X225099524Y-124114047D01*
X225099524Y-124114047D02*
X225194762Y-124161666D01*
X225194762Y-124161666D02*
X225385238Y-124161666D01*
X225385238Y-124161666D02*
X225480476Y-124114047D01*
X225480476Y-124114047D02*
X225528095Y-124066428D01*
X225528095Y-124066428D02*
X225575714Y-123971190D01*
%TO.C,J2*%
X207666666Y-143462619D02*
X207666666Y-144176904D01*
X207666666Y-144176904D02*
X207619047Y-144319761D01*
X207619047Y-144319761D02*
X207523809Y-144415000D01*
X207523809Y-144415000D02*
X207380952Y-144462619D01*
X207380952Y-144462619D02*
X207285714Y-144462619D01*
X208095238Y-143557857D02*
X208142857Y-143510238D01*
X208142857Y-143510238D02*
X208238095Y-143462619D01*
X208238095Y-143462619D02*
X208476190Y-143462619D01*
X208476190Y-143462619D02*
X208571428Y-143510238D01*
X208571428Y-143510238D02*
X208619047Y-143557857D01*
X208619047Y-143557857D02*
X208666666Y-143653095D01*
X208666666Y-143653095D02*
X208666666Y-143748333D01*
X208666666Y-143748333D02*
X208619047Y-143891190D01*
X208619047Y-143891190D02*
X208047619Y-144462619D01*
X208047619Y-144462619D02*
X208666666Y-144462619D01*
%TO.C,D10*%
X188785714Y-130992619D02*
X188785714Y-129992619D01*
X188785714Y-129992619D02*
X189023809Y-129992619D01*
X189023809Y-129992619D02*
X189166666Y-130040238D01*
X189166666Y-130040238D02*
X189261904Y-130135476D01*
X189261904Y-130135476D02*
X189309523Y-130230714D01*
X189309523Y-130230714D02*
X189357142Y-130421190D01*
X189357142Y-130421190D02*
X189357142Y-130564047D01*
X189357142Y-130564047D02*
X189309523Y-130754523D01*
X189309523Y-130754523D02*
X189261904Y-130849761D01*
X189261904Y-130849761D02*
X189166666Y-130945000D01*
X189166666Y-130945000D02*
X189023809Y-130992619D01*
X189023809Y-130992619D02*
X188785714Y-130992619D01*
X190309523Y-130992619D02*
X189738095Y-130992619D01*
X190023809Y-130992619D02*
X190023809Y-129992619D01*
X190023809Y-129992619D02*
X189928571Y-130135476D01*
X189928571Y-130135476D02*
X189833333Y-130230714D01*
X189833333Y-130230714D02*
X189738095Y-130278333D01*
X190928571Y-129992619D02*
X191023809Y-129992619D01*
X191023809Y-129992619D02*
X191119047Y-130040238D01*
X191119047Y-130040238D02*
X191166666Y-130087857D01*
X191166666Y-130087857D02*
X191214285Y-130183095D01*
X191214285Y-130183095D02*
X191261904Y-130373571D01*
X191261904Y-130373571D02*
X191261904Y-130611666D01*
X191261904Y-130611666D02*
X191214285Y-130802142D01*
X191214285Y-130802142D02*
X191166666Y-130897380D01*
X191166666Y-130897380D02*
X191119047Y-130945000D01*
X191119047Y-130945000D02*
X191023809Y-130992619D01*
X191023809Y-130992619D02*
X190928571Y-130992619D01*
X190928571Y-130992619D02*
X190833333Y-130945000D01*
X190833333Y-130945000D02*
X190785714Y-130897380D01*
X190785714Y-130897380D02*
X190738095Y-130802142D01*
X190738095Y-130802142D02*
X190690476Y-130611666D01*
X190690476Y-130611666D02*
X190690476Y-130373571D01*
X190690476Y-130373571D02*
X190738095Y-130183095D01*
X190738095Y-130183095D02*
X190785714Y-130087857D01*
X190785714Y-130087857D02*
X190833333Y-130040238D01*
X190833333Y-130040238D02*
X190928571Y-129992619D01*
X184658095Y-131362619D02*
X184658095Y-130362619D01*
X185229523Y-131362619D02*
X184800952Y-130791190D01*
X185229523Y-130362619D02*
X184658095Y-130934047D01*
%TO.C,R17*%
X224147142Y-138542619D02*
X223813809Y-138066428D01*
X223575714Y-138542619D02*
X223575714Y-137542619D01*
X223575714Y-137542619D02*
X223956666Y-137542619D01*
X223956666Y-137542619D02*
X224051904Y-137590238D01*
X224051904Y-137590238D02*
X224099523Y-137637857D01*
X224099523Y-137637857D02*
X224147142Y-137733095D01*
X224147142Y-137733095D02*
X224147142Y-137875952D01*
X224147142Y-137875952D02*
X224099523Y-137971190D01*
X224099523Y-137971190D02*
X224051904Y-138018809D01*
X224051904Y-138018809D02*
X223956666Y-138066428D01*
X223956666Y-138066428D02*
X223575714Y-138066428D01*
X225099523Y-138542619D02*
X224528095Y-138542619D01*
X224813809Y-138542619D02*
X224813809Y-137542619D01*
X224813809Y-137542619D02*
X224718571Y-137685476D01*
X224718571Y-137685476D02*
X224623333Y-137780714D01*
X224623333Y-137780714D02*
X224528095Y-137828333D01*
X225432857Y-137542619D02*
X226099523Y-137542619D01*
X226099523Y-137542619D02*
X225670952Y-138542619D01*
D11*
%TO.C,TSC1*%
X232305000Y-99685000D02*
X232391724Y-99685000D01*
X232305000Y-98315000D02*
X233000000Y-98315000D01*
X232305000Y-99685000D02*
X232305000Y-100560000D01*
X232305000Y-100560000D02*
X232605507Y-100560000D01*
X233608276Y-99685000D02*
X233695000Y-99685000D01*
X233394493Y-100560000D02*
X233695000Y-100560000D01*
X232305000Y-99000000D02*
X232305000Y-98315000D01*
X233695000Y-99685000D02*
X233695000Y-100560000D01*
%TO.C,TSC4*%
X232305000Y-105685000D02*
X232391724Y-105685000D01*
X232305000Y-104315000D02*
X233000000Y-104315000D01*
X232305000Y-105685000D02*
X232305000Y-106560000D01*
X232305000Y-106560000D02*
X232605507Y-106560000D01*
X233608276Y-105685000D02*
X233695000Y-105685000D01*
X233394493Y-106560000D02*
X233695000Y-106560000D01*
X232305000Y-105000000D02*
X232305000Y-104315000D01*
X233695000Y-105685000D02*
X233695000Y-106560000D01*
%TO.C,TSC3*%
X232305000Y-88685000D02*
X232391724Y-88685000D01*
X232305000Y-87315000D02*
X233000000Y-87315000D01*
X232305000Y-88685000D02*
X232305000Y-89560000D01*
X232305000Y-89560000D02*
X232605507Y-89560000D01*
X233608276Y-88685000D02*
X233695000Y-88685000D01*
X233394493Y-89560000D02*
X233695000Y-89560000D01*
X232305000Y-88000000D02*
X232305000Y-87315000D01*
X233695000Y-88685000D02*
X233695000Y-89560000D01*
%TO.C,TSC2*%
X232305000Y-93685000D02*
X232391724Y-93685000D01*
X232305000Y-92315000D02*
X233000000Y-92315000D01*
X232305000Y-93685000D02*
X232305000Y-94560000D01*
X232305000Y-94560000D02*
X232605507Y-94560000D01*
X233608276Y-93685000D02*
X233695000Y-93685000D01*
X233394493Y-94560000D02*
X233695000Y-94560000D01*
X232305000Y-93000000D02*
X232305000Y-92315000D01*
X233695000Y-93685000D02*
X233695000Y-94560000D01*
%TO.C,R4*%
X221920000Y-112000000D02*
X222870000Y-112000000D01*
X222870000Y-111080000D02*
X222870000Y-112920000D01*
X222870000Y-112920000D02*
X226710000Y-112920000D01*
X226710000Y-111080000D02*
X222870000Y-111080000D01*
X226710000Y-112920000D02*
X226710000Y-111080000D01*
X227660000Y-112000000D02*
X226710000Y-112000000D01*
%TO.C,E40*%
X186685000Y-88970000D02*
X186685000Y-106870000D01*
X186685000Y-106870000D02*
X193155000Y-106870000D01*
X188920000Y-88970000D02*
X186685000Y-88970000D01*
X193155000Y-88970000D02*
X190920000Y-88970000D01*
X193155000Y-106870000D02*
X193155000Y-88970000D01*
X188920000Y-88970000D02*
G75*
G03*
X190920000Y-88970000I1000000J0D01*
G01*
%TO.C,E31*%
X213155000Y-131870000D02*
X213155000Y-124130000D01*
X213155000Y-124130000D02*
X206685000Y-124130000D01*
X210920000Y-131870000D02*
X213155000Y-131870000D01*
X206685000Y-131870000D02*
X208920000Y-131870000D01*
X206685000Y-124130000D02*
X206685000Y-131870000D01*
X210920000Y-131870000D02*
G75*
G03*
X208920000Y-131870000I-1000000J0D01*
G01*
%TO.C,J1*%
X232305000Y-119315000D02*
X233000000Y-119315000D01*
X232305000Y-120000000D02*
X232305000Y-119315000D01*
X232305000Y-120685000D02*
X232305000Y-122560000D01*
X232305000Y-120685000D02*
X232391724Y-120685000D01*
X232305000Y-122560000D02*
X232605507Y-122560000D01*
X233394493Y-122560000D02*
X233695000Y-122560000D01*
X233608276Y-120685000D02*
X233695000Y-120685000D01*
X233695000Y-120685000D02*
X233695000Y-122560000D01*
%TO.C,J4*%
X241695000Y-97685000D02*
X241000000Y-97685000D01*
X241695000Y-97000000D02*
X241695000Y-97685000D01*
X241695000Y-96315000D02*
X241695000Y-95440000D01*
X241695000Y-96315000D02*
X241608276Y-96315000D01*
X241695000Y-95440000D02*
X241394493Y-95440000D01*
X240605507Y-95440000D02*
X240305000Y-95440000D01*
X240391724Y-96315000D02*
X240305000Y-96315000D01*
X240305000Y-96315000D02*
X240305000Y-95440000D01*
%TO.C,E52*%
X217685000Y-88970000D02*
X217685000Y-106870000D01*
X217685000Y-106870000D02*
X224155000Y-106870000D01*
X219920000Y-88970000D02*
X217685000Y-88970000D01*
X224155000Y-88970000D02*
X221920000Y-88970000D01*
X224155000Y-106870000D02*
X224155000Y-88970000D01*
X219920000Y-88970000D02*
G75*
G03*
X221920000Y-88970000I1000000J0D01*
G01*
%TO.C,E46*%
X202685000Y-88970000D02*
X202685000Y-106870000D01*
X202685000Y-106870000D02*
X209155000Y-106870000D01*
X204920000Y-88970000D02*
X202685000Y-88970000D01*
X209155000Y-88970000D02*
X206920000Y-88970000D01*
X209155000Y-106870000D02*
X209155000Y-88970000D01*
X204920000Y-88970000D02*
G75*
G03*
X206920000Y-88970000I1000000J0D01*
G01*
%TO.C,D11*%
X186180000Y-140000000D02*
X187200000Y-140000000D01*
X187200000Y-138530000D02*
X187200000Y-141470000D01*
X187200000Y-141470000D02*
X192640000Y-141470000D01*
X187980000Y-138530000D02*
X187980000Y-141470000D01*
X188100000Y-138530000D02*
X188100000Y-141470000D01*
X188220000Y-138530000D02*
X188220000Y-141470000D01*
X192640000Y-138530000D02*
X187200000Y-138530000D01*
X192640000Y-141470000D02*
X192640000Y-138530000D01*
X193660000Y-140000000D02*
X192640000Y-140000000D01*
%TO.C,R5*%
X221920000Y-119000000D02*
X222870000Y-119000000D01*
X222870000Y-118080000D02*
X222870000Y-119920000D01*
X222870000Y-119920000D02*
X226710000Y-119920000D01*
X226710000Y-118080000D02*
X222870000Y-118080000D01*
X226710000Y-119920000D02*
X226710000Y-118080000D01*
X227660000Y-119000000D02*
X226710000Y-119000000D01*
%TO.C,J3*%
X232305000Y-111315000D02*
X233000000Y-111315000D01*
X232305000Y-112000000D02*
X232305000Y-111315000D01*
X232305000Y-112685000D02*
X232305000Y-114560000D01*
X232305000Y-112685000D02*
X232391724Y-112685000D01*
X232305000Y-114560000D02*
X232605507Y-114560000D01*
X233394493Y-114560000D02*
X233695000Y-114560000D01*
X233608276Y-112685000D02*
X233695000Y-112685000D01*
X233695000Y-112685000D02*
X233695000Y-114560000D01*
%TO.C,C12*%
X186042500Y-126370000D02*
X186042500Y-124870000D01*
X188242500Y-125760000D02*
X188242500Y-124620000D01*
X185292500Y-125620000D02*
X186792500Y-125620000D01*
X185872500Y-124620000D02*
X190612500Y-124620000D01*
X185872500Y-124620000D02*
X185872500Y-123120000D01*
X190612500Y-124620000D02*
X190612500Y-123120000D01*
X185872500Y-123120000D02*
X186622500Y-122370000D01*
X190612500Y-123120000D02*
X189862500Y-122370000D01*
X186622500Y-122370000D02*
X185872500Y-121620000D01*
X189862500Y-122370000D02*
X190612500Y-121620000D01*
X185872500Y-121620000D02*
X185872500Y-114380000D01*
X190612500Y-121620000D02*
X190612500Y-114380000D01*
X185872500Y-114380000D02*
X190612500Y-114380000D01*
X188242500Y-113240000D02*
X188242500Y-114380000D01*
%TO.C,E30*%
X208155000Y-119870000D02*
X208155000Y-112130000D01*
X208155000Y-112130000D02*
X201685000Y-112130000D01*
X205920000Y-119870000D02*
X208155000Y-119870000D01*
X201685000Y-119870000D02*
X203920000Y-119870000D01*
X201685000Y-112130000D02*
X201685000Y-119870000D01*
X205920000Y-119870000D02*
G75*
G03*
X203920000Y-119870000I-1000000J0D01*
G01*
%TO.C,R16*%
X221920000Y-133000000D02*
X222870000Y-133000000D01*
X222870000Y-132080000D02*
X222870000Y-133920000D01*
X222870000Y-133920000D02*
X226710000Y-133920000D01*
X226710000Y-132080000D02*
X222870000Y-132080000D01*
X226710000Y-133920000D02*
X226710000Y-132080000D01*
X227660000Y-133000000D02*
X226710000Y-133000000D01*
%TO.C,R9*%
X221920000Y-126000000D02*
X222870000Y-126000000D01*
X222870000Y-125080000D02*
X222870000Y-126920000D01*
X222870000Y-126920000D02*
X226710000Y-126920000D01*
X226710000Y-125080000D02*
X222870000Y-125080000D01*
X226710000Y-126920000D02*
X226710000Y-125080000D01*
X227660000Y-126000000D02*
X226710000Y-126000000D01*
%TO.C,J2*%
X210685000Y-141305000D02*
X210685000Y-142000000D01*
X210000000Y-141305000D02*
X210685000Y-141305000D01*
X209315000Y-141305000D02*
X206440000Y-141305000D01*
X209315000Y-141305000D02*
X209315000Y-141391724D01*
X206440000Y-141305000D02*
X206440000Y-141605507D01*
X206440000Y-142394493D02*
X206440000Y-142695000D01*
X209315000Y-142608276D02*
X209315000Y-142695000D01*
X209315000Y-142695000D02*
X206440000Y-142695000D01*
%TO.C,D10*%
X186260000Y-133000000D02*
X187280000Y-133000000D01*
X187280000Y-131530000D02*
X187280000Y-134470000D01*
X187280000Y-134470000D02*
X192720000Y-134470000D01*
X188060000Y-131530000D02*
X188060000Y-134470000D01*
X188180000Y-131530000D02*
X188180000Y-134470000D01*
X188300000Y-131530000D02*
X188300000Y-134470000D01*
X192720000Y-131530000D02*
X187280000Y-131530000D01*
X192720000Y-134470000D02*
X192720000Y-131530000D01*
X193740000Y-133000000D02*
X192720000Y-133000000D01*
%TO.C,R17*%
X221920000Y-140000000D02*
X222870000Y-140000000D01*
X222870000Y-139080000D02*
X222870000Y-140920000D01*
X222870000Y-140920000D02*
X226710000Y-140920000D01*
X226710000Y-139080000D02*
X222870000Y-139080000D01*
X226710000Y-140920000D02*
X226710000Y-139080000D01*
X227660000Y-140000000D02*
X226710000Y-140000000D01*
%TD*%
M02*
