%TF.GenerationSoftware,KiCad,Pcbnew,7.0.1-0*%
%TF.CreationDate,2023-05-12T11:36:12+01:00*%
%TF.ProjectId,rs232,72733233-322e-46b6-9963-61645f706362,rev?*%
%TF.SameCoordinates,Original*%
%TF.FileFunction,Drillmap*%
%TF.FilePolarity,Positive*%
%FSLAX45Y45*%
G04 Gerber Fmt 4.5, Leading zero omitted, Abs format (unit mm)*
G04 Created by KiCad (PCBNEW 7.0.1-0) date 2023-05-12 11:36:12*
%MOMM*%
%LPD*%
G01*
G04 APERTURE LIST*
%ADD10C,0.100000*%
%ADD11C,0.200000*%
G04 APERTURE END LIST*
D10*
X17700000Y-8400000D02*
X24300000Y-8400000D01*
X24300000Y-14900000D01*
X17700000Y-14900000D01*
X17700000Y-8400000D01*
D11*
X17942619Y-15217524D02*
X17942619Y-15017524D01*
X17942619Y-15017524D02*
X17990238Y-15017524D01*
X17990238Y-15017524D02*
X18018810Y-15027048D01*
X18018810Y-15027048D02*
X18037857Y-15046095D01*
X18037857Y-15046095D02*
X18047381Y-15065143D01*
X18047381Y-15065143D02*
X18056905Y-15103238D01*
X18056905Y-15103238D02*
X18056905Y-15131809D01*
X18056905Y-15131809D02*
X18047381Y-15169905D01*
X18047381Y-15169905D02*
X18037857Y-15188952D01*
X18037857Y-15188952D02*
X18018810Y-15208000D01*
X18018810Y-15208000D02*
X17990238Y-15217524D01*
X17990238Y-15217524D02*
X17942619Y-15217524D01*
X18142619Y-15217524D02*
X18142619Y-15084190D01*
X18142619Y-15122286D02*
X18152143Y-15103238D01*
X18152143Y-15103238D02*
X18161667Y-15093714D01*
X18161667Y-15093714D02*
X18180714Y-15084190D01*
X18180714Y-15084190D02*
X18199762Y-15084190D01*
X18266429Y-15217524D02*
X18266429Y-15084190D01*
X18266429Y-15017524D02*
X18256905Y-15027048D01*
X18256905Y-15027048D02*
X18266429Y-15036571D01*
X18266429Y-15036571D02*
X18275952Y-15027048D01*
X18275952Y-15027048D02*
X18266429Y-15017524D01*
X18266429Y-15017524D02*
X18266429Y-15036571D01*
X18390238Y-15217524D02*
X18371190Y-15208000D01*
X18371190Y-15208000D02*
X18361667Y-15188952D01*
X18361667Y-15188952D02*
X18361667Y-15017524D01*
X18495000Y-15217524D02*
X18475952Y-15208000D01*
X18475952Y-15208000D02*
X18466429Y-15188952D01*
X18466429Y-15188952D02*
X18466429Y-15017524D01*
X18723571Y-15217524D02*
X18723571Y-15017524D01*
X18723571Y-15017524D02*
X18790238Y-15160381D01*
X18790238Y-15160381D02*
X18856905Y-15017524D01*
X18856905Y-15017524D02*
X18856905Y-15217524D01*
X19037857Y-15217524D02*
X19037857Y-15112762D01*
X19037857Y-15112762D02*
X19028333Y-15093714D01*
X19028333Y-15093714D02*
X19009286Y-15084190D01*
X19009286Y-15084190D02*
X18971190Y-15084190D01*
X18971190Y-15084190D02*
X18952143Y-15093714D01*
X19037857Y-15208000D02*
X19018810Y-15217524D01*
X19018810Y-15217524D02*
X18971190Y-15217524D01*
X18971190Y-15217524D02*
X18952143Y-15208000D01*
X18952143Y-15208000D02*
X18942619Y-15188952D01*
X18942619Y-15188952D02*
X18942619Y-15169905D01*
X18942619Y-15169905D02*
X18952143Y-15150857D01*
X18952143Y-15150857D02*
X18971190Y-15141333D01*
X18971190Y-15141333D02*
X19018810Y-15141333D01*
X19018810Y-15141333D02*
X19037857Y-15131809D01*
X19133095Y-15084190D02*
X19133095Y-15284190D01*
X19133095Y-15093714D02*
X19152143Y-15084190D01*
X19152143Y-15084190D02*
X19190238Y-15084190D01*
X19190238Y-15084190D02*
X19209286Y-15093714D01*
X19209286Y-15093714D02*
X19218810Y-15103238D01*
X19218810Y-15103238D02*
X19228333Y-15122286D01*
X19228333Y-15122286D02*
X19228333Y-15179428D01*
X19228333Y-15179428D02*
X19218810Y-15198476D01*
X19218810Y-15198476D02*
X19209286Y-15208000D01*
X19209286Y-15208000D02*
X19190238Y-15217524D01*
X19190238Y-15217524D02*
X19152143Y-15217524D01*
X19152143Y-15217524D02*
X19133095Y-15208000D01*
X19314048Y-15198476D02*
X19323571Y-15208000D01*
X19323571Y-15208000D02*
X19314048Y-15217524D01*
X19314048Y-15217524D02*
X19304524Y-15208000D01*
X19304524Y-15208000D02*
X19314048Y-15198476D01*
X19314048Y-15198476D02*
X19314048Y-15217524D01*
X19314048Y-15093714D02*
X19323571Y-15103238D01*
X19323571Y-15103238D02*
X19314048Y-15112762D01*
X19314048Y-15112762D02*
X19304524Y-15103238D01*
X19304524Y-15103238D02*
X19314048Y-15093714D01*
X19314048Y-15093714D02*
X19314048Y-15112762D01*
M02*
