%TF.GenerationSoftware,KiCad,Pcbnew,7.0.1-0*%
%TF.CreationDate,2023-05-12T11:35:50+01:00*%
%TF.ProjectId,rs232,72733233-322e-46b6-9963-61645f706362,rev?*%
%TF.SameCoordinates,Original*%
%TF.FileFunction,Soldermask,Top*%
%TF.FilePolarity,Negative*%
%FSLAX46Y46*%
G04 Gerber Fmt 4.6, Leading zero omitted, Abs format (unit mm)*
G04 Created by KiCad (PCBNEW 7.0.1-0) date 2023-05-12 11:35:50*
%MOMM*%
%LPD*%
G01*
G04 APERTURE LIST*
%ADD10R,0.850000X0.850000*%
%ADD11O,0.850000X0.850000*%
%ADD12C,1.400000*%
%ADD13O,1.400000X1.400000*%
%ADD14R,1.600000X1.600000*%
%ADD15O,1.600000X1.600000*%
%ADD16R,2.200000X2.200000*%
%ADD17O,2.200000X2.200000*%
%ADD18R,2.000000X2.000000*%
%ADD19O,2.000000X2.000000*%
G04 APERTURE END LIST*
D10*
%TO.C,TSC1*%
X233000000Y-99000000D03*
D11*
X233000000Y-100000000D03*
%TD*%
D10*
%TO.C,TSC4*%
X233000000Y-105000000D03*
D11*
X233000000Y-106000000D03*
%TD*%
D10*
%TO.C,TSC3*%
X233000000Y-88000000D03*
D11*
X233000000Y-89000000D03*
%TD*%
D10*
%TO.C,TSC2*%
X233000000Y-93000000D03*
D11*
X233000000Y-94000000D03*
%TD*%
D12*
%TO.C,R4*%
X220980000Y-112000000D03*
D13*
X228600000Y-112000000D03*
%TD*%
D14*
%TO.C,E40*%
X184840000Y-90300000D03*
D15*
X184840000Y-92840000D03*
X184840000Y-95380000D03*
X184840000Y-97920000D03*
X184840000Y-100460000D03*
X184840000Y-103000000D03*
X184840000Y-105540000D03*
X195000000Y-105540000D03*
X195000000Y-103000000D03*
X195000000Y-100460000D03*
X195000000Y-97920000D03*
X195000000Y-95380000D03*
X195000000Y-92840000D03*
X195000000Y-90300000D03*
%TD*%
D14*
%TO.C,E31*%
X215000000Y-130540000D03*
D15*
X215000000Y-128000000D03*
X215000000Y-125460000D03*
X204840000Y-125460000D03*
X204840000Y-128000000D03*
X204840000Y-130540000D03*
%TD*%
D10*
%TO.C,J1*%
X233000000Y-120000000D03*
D11*
X233000000Y-121000000D03*
X233000000Y-122000000D03*
%TD*%
D10*
%TO.C,J4*%
X241000000Y-97000000D03*
D11*
X241000000Y-96000000D03*
%TD*%
D14*
%TO.C,E52*%
X215840000Y-90300000D03*
D15*
X215840000Y-92840000D03*
X215840000Y-95380000D03*
X215840000Y-97920000D03*
X215840000Y-100460000D03*
X215840000Y-103000000D03*
X215840000Y-105540000D03*
X226000000Y-105540000D03*
X226000000Y-103000000D03*
X226000000Y-100460000D03*
X226000000Y-97920000D03*
X226000000Y-95380000D03*
X226000000Y-92840000D03*
X226000000Y-90300000D03*
%TD*%
D14*
%TO.C,E46*%
X200840000Y-90300000D03*
D15*
X200840000Y-92840000D03*
X200840000Y-95380000D03*
X200840000Y-97920000D03*
X200840000Y-100460000D03*
X200840000Y-103000000D03*
X200840000Y-105540000D03*
X211000000Y-105540000D03*
X211000000Y-103000000D03*
X211000000Y-100460000D03*
X211000000Y-97920000D03*
X211000000Y-95380000D03*
X211000000Y-92840000D03*
X211000000Y-90300000D03*
%TD*%
D16*
%TO.C,D11*%
X184840000Y-140000000D03*
D17*
X195000000Y-140000000D03*
%TD*%
D12*
%TO.C,R5*%
X220980000Y-119000000D03*
D13*
X228600000Y-119000000D03*
%TD*%
D10*
%TO.C,J3*%
X233000000Y-112000000D03*
D11*
X233000000Y-113000000D03*
X233000000Y-114000000D03*
%TD*%
D18*
%TO.C,C12*%
X188242500Y-127000000D03*
D19*
X188242500Y-112000000D03*
%TD*%
D14*
%TO.C,E30*%
X210000000Y-118540000D03*
D15*
X210000000Y-116000000D03*
X210000000Y-113460000D03*
X199840000Y-113460000D03*
X199840000Y-116000000D03*
X199840000Y-118540000D03*
%TD*%
D12*
%TO.C,R16*%
X220980000Y-133000000D03*
D13*
X228600000Y-133000000D03*
%TD*%
D12*
%TO.C,R9*%
X220980000Y-126000000D03*
D13*
X228600000Y-126000000D03*
%TD*%
D10*
%TO.C,J2*%
X210000000Y-142000000D03*
D11*
X209000000Y-142000000D03*
X208000000Y-142000000D03*
X207000000Y-142000000D03*
%TD*%
D16*
%TO.C,D10*%
X184920000Y-133000000D03*
D17*
X195080000Y-133000000D03*
%TD*%
D12*
%TO.C,R17*%
X220980000Y-140000000D03*
D13*
X228600000Y-140000000D03*
%TD*%
M02*
