M48
; DRILL file {KiCad 7.0.1-0} date 2023 May 12, Friday 11:36:00
; FORMAT={-:-/ absolute / inch / decimal}
; #@! TF.CreationDate,2023-05-12T11:36:00+01:00
; #@! TF.GenerationSoftware,Kicad,Pcbnew,7.0.1-0
; #@! TF.FileFunction,Plated,1,2,PTH
FMAT,2
INCH
; #@! TA.AperFunction,Plated,PTH,ViaDrill
T1C0.0157
; #@! TA.AperFunction,Plated,PTH,ComponentDrill
T2C0.0197
; #@! TA.AperFunction,Plated,PTH,ComponentDrill
T3C0.0276
; #@! TA.AperFunction,Plated,PTH,ComponentDrill
T4C0.0315
; #@! TA.AperFunction,Plated,PTH,ComponentDrill
T5C0.0394
; #@! TA.AperFunction,Plated,PTH,ComponentDrill
T6C0.0433
%
G90
G05
T1
X7.5984Y-4.8819
X7.5984Y-5.0
X7.6378Y-4.9213
X7.7165Y-4.8425
X7.7559Y-4.9213
X7.7953Y-4.9606
X7.7953Y-5.1575
X7.7953Y-5.315
X7.9134Y-4.8031
X8.1496Y-5.2362
X8.2677Y-5.7087
X8.3465Y-3.3465
X8.4646Y-5.5512
X8.5039Y-4.8425
X8.5433Y-4.5669
X8.5433Y-5.2362
X8.622Y-4.4488
X9.0157Y-3.3858
X9.0157Y-3.5039
X9.3307Y-4.6457
X9.4488Y-4.5276
T2
X8.1496Y-5.5906
X8.189Y-5.5906
X8.2283Y-5.5906
X8.2677Y-5.5906
X9.1732Y-3.4646
X9.1732Y-3.5039
X9.1732Y-3.6614
X9.1732Y-3.7008
X9.1732Y-3.8976
X9.1732Y-3.937
X9.1732Y-4.1339
X9.1732Y-4.1732
X9.1732Y-4.4094
X9.1732Y-4.4488
X9.1732Y-4.4882
X9.1732Y-4.7244
X9.1732Y-4.7638
X9.1732Y-4.8031
X9.4882Y-3.7795
X9.4882Y-3.8189
T3
X8.7Y-4.4094
X8.7Y-4.685
X8.7Y-4.9606
X8.7Y-5.2362
X8.7Y-5.5118
X9.0Y-4.4094
X9.0Y-4.685
X9.0Y-4.9606
X9.0Y-5.2362
X9.0Y-5.5118
T4
X7.2772Y-3.5551
X7.2772Y-3.6551
X7.2772Y-3.7551
X7.2772Y-3.8551
X7.2772Y-3.9551
X7.2772Y-4.0551
X7.2772Y-4.1551
X7.6772Y-3.5551
X7.6772Y-3.6551
X7.6772Y-3.7551
X7.6772Y-3.8551
X7.6772Y-3.9551
X7.6772Y-4.0551
X7.6772Y-4.1551
X7.8677Y-4.4669
X7.8677Y-4.5669
X7.8677Y-4.6669
X7.9071Y-3.5551
X7.9071Y-3.6551
X7.9071Y-3.7551
X7.9071Y-3.8551
X7.9071Y-3.9551
X7.9071Y-4.0551
X7.9071Y-4.1551
X8.0646Y-4.9394
X8.0646Y-5.0394
X8.0646Y-5.1394
X8.2677Y-4.4669
X8.2677Y-4.5669
X8.2677Y-4.6669
X8.3071Y-3.5551
X8.3071Y-3.6551
X8.3071Y-3.7551
X8.3071Y-3.8551
X8.3071Y-3.9551
X8.3071Y-4.0551
X8.3071Y-4.1551
X8.4646Y-4.9394
X8.4646Y-5.0394
X8.4646Y-5.1394
X8.4976Y-3.5551
X8.4976Y-3.6551
X8.4976Y-3.7551
X8.4976Y-3.8551
X8.4976Y-3.9551
X8.4976Y-4.0551
X8.4976Y-4.1551
X8.8976Y-3.5551
X8.8976Y-3.6551
X8.8976Y-3.7551
X8.8976Y-3.8551
X8.8976Y-3.9551
X8.8976Y-4.0551
X8.8976Y-4.1551
T5
X7.4111Y-4.4094
X7.4111Y-5.0
T6
X7.2772Y-5.5118
X7.2803Y-5.2362
X7.6772Y-5.5118
X7.6803Y-5.2362
T0
M30
