%TF.GenerationSoftware,KiCad,Pcbnew,7.0.1-0*%
%TF.CreationDate,2023-05-12T11:36:12+01:00*%
%TF.ProjectId,rs232,72733233-322e-46b6-9963-61645f706362,rev?*%
%TF.SameCoordinates,Original*%
%TF.FileFunction,Drillmap*%
%TF.FilePolarity,Positive*%
%FSLAX45Y45*%
G04 Gerber Fmt 4.5, Leading zero omitted, Abs format (unit mm)*
G04 Created by KiCad (PCBNEW 7.0.1-0) date 2023-05-12 11:36:12*
%MOMM*%
%LPD*%
G01*
G04 APERTURE LIST*
%ADD10C,0.100000*%
%ADD11C,0.200000*%
%ADD12C,0.040000*%
%ADD13C,0.050000*%
%ADD14C,0.070000*%
%ADD15C,0.080000*%
%ADD16C,0.110000*%
G04 APERTURE END LIST*
D10*
X17700000Y-8400000D02*
X24300000Y-8400000D01*
X24300000Y-14900000D01*
X17700000Y-14900000D01*
X17700000Y-8400000D01*
D11*
D12*
X19280000Y-12380000D02*
X19320000Y-12420000D01*
X19320000Y-12380000D02*
X19280000Y-12420000D01*
X19280000Y-12680000D02*
X19320000Y-12720000D01*
X19320000Y-12680000D02*
X19280000Y-12720000D01*
X19380000Y-12480000D02*
X19420000Y-12520000D01*
X19420000Y-12480000D02*
X19380000Y-12520000D01*
X19580000Y-12280000D02*
X19620000Y-12320000D01*
X19620000Y-12280000D02*
X19580000Y-12320000D01*
X19680000Y-12480000D02*
X19720000Y-12520000D01*
X19720000Y-12480000D02*
X19680000Y-12520000D01*
X19780000Y-12580000D02*
X19820000Y-12620000D01*
X19820000Y-12580000D02*
X19780000Y-12620000D01*
X19780000Y-13080000D02*
X19820000Y-13120000D01*
X19820000Y-13080000D02*
X19780000Y-13120000D01*
X19780000Y-13480000D02*
X19820000Y-13520000D01*
X19820000Y-13480000D02*
X19780000Y-13520000D01*
X20080000Y-12180000D02*
X20120000Y-12220000D01*
X20120000Y-12180000D02*
X20080000Y-12220000D01*
X20680000Y-13280000D02*
X20720000Y-13320000D01*
X20720000Y-13280000D02*
X20680000Y-13320000D01*
X20980000Y-14480000D02*
X21020000Y-14520000D01*
X21020000Y-14480000D02*
X20980000Y-14520000D01*
X21180000Y-8480000D02*
X21220000Y-8520000D01*
X21220000Y-8480000D02*
X21180000Y-8520000D01*
X21480000Y-14080000D02*
X21520000Y-14120000D01*
X21520000Y-14080000D02*
X21480000Y-14120000D01*
X21580000Y-12280000D02*
X21620000Y-12320000D01*
X21620000Y-12280000D02*
X21580000Y-12320000D01*
X21680000Y-11580000D02*
X21720000Y-11620000D01*
X21720000Y-11580000D02*
X21680000Y-11620000D01*
X21680000Y-13280000D02*
X21720000Y-13320000D01*
X21720000Y-13280000D02*
X21680000Y-13320000D01*
X21880000Y-11280000D02*
X21920000Y-11320000D01*
X21920000Y-11280000D02*
X21880000Y-11320000D01*
X22880000Y-8580000D02*
X22920000Y-8620000D01*
X22920000Y-8580000D02*
X22880000Y-8620000D01*
X22880000Y-8880000D02*
X22920000Y-8920000D01*
X22920000Y-8880000D02*
X22880000Y-8920000D01*
X23680000Y-11780000D02*
X23720000Y-11820000D01*
X23720000Y-11780000D02*
X23680000Y-11820000D01*
X23980000Y-11480000D02*
X24020000Y-11520000D01*
X24020000Y-11480000D02*
X23980000Y-11520000D01*
D13*
X20725000Y-14200000D02*
G75*
G03*
X20725000Y-14200000I-25000J0D01*
G01*
X20825000Y-14200000D02*
G75*
G03*
X20825000Y-14200000I-25000J0D01*
G01*
X20925000Y-14200000D02*
G75*
G03*
X20925000Y-14200000I-25000J0D01*
G01*
X21025000Y-14200000D02*
G75*
G03*
X21025000Y-14200000I-25000J0D01*
G01*
X23325000Y-8800000D02*
G75*
G03*
X23325000Y-8800000I-25000J0D01*
G01*
X23325000Y-8900000D02*
G75*
G03*
X23325000Y-8900000I-25000J0D01*
G01*
X23325000Y-9300000D02*
G75*
G03*
X23325000Y-9300000I-25000J0D01*
G01*
X23325000Y-9400000D02*
G75*
G03*
X23325000Y-9400000I-25000J0D01*
G01*
X23325000Y-9900000D02*
G75*
G03*
X23325000Y-9900000I-25000J0D01*
G01*
X23325000Y-10000000D02*
G75*
G03*
X23325000Y-10000000I-25000J0D01*
G01*
X23325000Y-10500000D02*
G75*
G03*
X23325000Y-10500000I-25000J0D01*
G01*
X23325000Y-10600000D02*
G75*
G03*
X23325000Y-10600000I-25000J0D01*
G01*
X23325000Y-11200000D02*
G75*
G03*
X23325000Y-11200000I-25000J0D01*
G01*
X23325000Y-11300000D02*
G75*
G03*
X23325000Y-11300000I-25000J0D01*
G01*
X23325000Y-11400000D02*
G75*
G03*
X23325000Y-11400000I-25000J0D01*
G01*
X23325000Y-12000000D02*
G75*
G03*
X23325000Y-12000000I-25000J0D01*
G01*
X23325000Y-12100000D02*
G75*
G03*
X23325000Y-12100000I-25000J0D01*
G01*
X23325000Y-12200000D02*
G75*
G03*
X23325000Y-12200000I-25000J0D01*
G01*
X24125000Y-9600000D02*
G75*
G03*
X24125000Y-9600000I-25000J0D01*
G01*
X24125000Y-9700000D02*
G75*
G03*
X24125000Y-9700000I-25000J0D01*
G01*
D14*
X22098000Y-11165000D02*
X22098000Y-11235000D01*
X22063000Y-11200000D02*
X22133000Y-11200000D01*
X22098000Y-11865000D02*
X22098000Y-11935000D01*
X22063000Y-11900000D02*
X22133000Y-11900000D01*
X22098000Y-12565000D02*
X22098000Y-12635000D01*
X22063000Y-12600000D02*
X22133000Y-12600000D01*
X22098000Y-13265000D02*
X22098000Y-13335000D01*
X22063000Y-13300000D02*
X22133000Y-13300000D01*
X22098000Y-13965000D02*
X22098000Y-14035000D01*
X22063000Y-14000000D02*
X22133000Y-14000000D01*
X22860000Y-11165000D02*
X22860000Y-11235000D01*
X22825000Y-11200000D02*
X22895000Y-11200000D01*
X22860000Y-11865000D02*
X22860000Y-11935000D01*
X22825000Y-11900000D02*
X22895000Y-11900000D01*
X22860000Y-12565000D02*
X22860000Y-12635000D01*
X22825000Y-12600000D02*
X22895000Y-12600000D01*
X22860000Y-13265000D02*
X22860000Y-13335000D01*
X22825000Y-13300000D02*
X22895000Y-13300000D01*
X22860000Y-13965000D02*
X22860000Y-14035000D01*
X22825000Y-14000000D02*
X22895000Y-14000000D01*
D15*
X18512285Y-9058285D02*
X18512285Y-9001716D01*
X18455716Y-9001716D01*
X18455716Y-9058285D01*
X18512285Y-9058285D01*
X18512285Y-9312285D02*
X18512285Y-9255716D01*
X18455716Y-9255716D01*
X18455716Y-9312285D01*
X18512285Y-9312285D01*
X18512285Y-9566285D02*
X18512285Y-9509716D01*
X18455716Y-9509716D01*
X18455716Y-9566285D01*
X18512285Y-9566285D01*
X18512285Y-9820285D02*
X18512285Y-9763716D01*
X18455716Y-9763716D01*
X18455716Y-9820285D01*
X18512285Y-9820285D01*
X18512285Y-10074285D02*
X18512285Y-10017716D01*
X18455716Y-10017716D01*
X18455716Y-10074285D01*
X18512285Y-10074285D01*
X18512285Y-10328285D02*
X18512285Y-10271716D01*
X18455716Y-10271716D01*
X18455716Y-10328285D01*
X18512285Y-10328285D01*
X18512285Y-10582285D02*
X18512285Y-10525716D01*
X18455716Y-10525716D01*
X18455716Y-10582285D01*
X18512285Y-10582285D01*
X19528285Y-9058285D02*
X19528285Y-9001716D01*
X19471716Y-9001716D01*
X19471716Y-9058285D01*
X19528285Y-9058285D01*
X19528285Y-9312285D02*
X19528285Y-9255716D01*
X19471716Y-9255716D01*
X19471716Y-9312285D01*
X19528285Y-9312285D01*
X19528285Y-9566285D02*
X19528285Y-9509716D01*
X19471716Y-9509716D01*
X19471716Y-9566285D01*
X19528285Y-9566285D01*
X19528285Y-9820285D02*
X19528285Y-9763716D01*
X19471716Y-9763716D01*
X19471716Y-9820285D01*
X19528285Y-9820285D01*
X19528285Y-10074285D02*
X19528285Y-10017716D01*
X19471716Y-10017716D01*
X19471716Y-10074285D01*
X19528285Y-10074285D01*
X19528285Y-10328285D02*
X19528285Y-10271716D01*
X19471716Y-10271716D01*
X19471716Y-10328285D01*
X19528285Y-10328285D01*
X19528285Y-10582285D02*
X19528285Y-10525716D01*
X19471716Y-10525716D01*
X19471716Y-10582285D01*
X19528285Y-10582285D01*
X20012285Y-11374284D02*
X20012285Y-11317715D01*
X19955716Y-11317715D01*
X19955716Y-11374284D01*
X20012285Y-11374284D01*
X20012285Y-11628284D02*
X20012285Y-11571715D01*
X19955716Y-11571715D01*
X19955716Y-11628284D01*
X20012285Y-11628284D01*
X20012285Y-11882284D02*
X20012285Y-11825715D01*
X19955716Y-11825715D01*
X19955716Y-11882284D01*
X20012285Y-11882284D01*
X20112285Y-9058285D02*
X20112285Y-9001716D01*
X20055716Y-9001716D01*
X20055716Y-9058285D01*
X20112285Y-9058285D01*
X20112285Y-9312285D02*
X20112285Y-9255716D01*
X20055716Y-9255716D01*
X20055716Y-9312285D01*
X20112285Y-9312285D01*
X20112285Y-9566285D02*
X20112285Y-9509716D01*
X20055716Y-9509716D01*
X20055716Y-9566285D01*
X20112285Y-9566285D01*
X20112285Y-9820285D02*
X20112285Y-9763716D01*
X20055716Y-9763716D01*
X20055716Y-9820285D01*
X20112285Y-9820285D01*
X20112285Y-10074285D02*
X20112285Y-10017716D01*
X20055716Y-10017716D01*
X20055716Y-10074285D01*
X20112285Y-10074285D01*
X20112285Y-10328285D02*
X20112285Y-10271716D01*
X20055716Y-10271716D01*
X20055716Y-10328285D01*
X20112285Y-10328285D01*
X20112285Y-10582285D02*
X20112285Y-10525716D01*
X20055716Y-10525716D01*
X20055716Y-10582285D01*
X20112285Y-10582285D01*
X20512285Y-12574284D02*
X20512285Y-12517715D01*
X20455716Y-12517715D01*
X20455716Y-12574284D01*
X20512285Y-12574284D01*
X20512285Y-12828284D02*
X20512285Y-12771715D01*
X20455716Y-12771715D01*
X20455716Y-12828284D01*
X20512285Y-12828284D01*
X20512285Y-13082284D02*
X20512285Y-13025715D01*
X20455716Y-13025715D01*
X20455716Y-13082284D01*
X20512285Y-13082284D01*
X21028285Y-11374284D02*
X21028285Y-11317715D01*
X20971716Y-11317715D01*
X20971716Y-11374284D01*
X21028285Y-11374284D01*
X21028285Y-11628284D02*
X21028285Y-11571715D01*
X20971716Y-11571715D01*
X20971716Y-11628284D01*
X21028285Y-11628284D01*
X21028285Y-11882284D02*
X21028285Y-11825715D01*
X20971716Y-11825715D01*
X20971716Y-11882284D01*
X21028285Y-11882284D01*
X21128285Y-9058285D02*
X21128285Y-9001716D01*
X21071716Y-9001716D01*
X21071716Y-9058285D01*
X21128285Y-9058285D01*
X21128285Y-9312285D02*
X21128285Y-9255716D01*
X21071716Y-9255716D01*
X21071716Y-9312285D01*
X21128285Y-9312285D01*
X21128285Y-9566285D02*
X21128285Y-9509716D01*
X21071716Y-9509716D01*
X21071716Y-9566285D01*
X21128285Y-9566285D01*
X21128285Y-9820285D02*
X21128285Y-9763716D01*
X21071716Y-9763716D01*
X21071716Y-9820285D01*
X21128285Y-9820285D01*
X21128285Y-10074285D02*
X21128285Y-10017716D01*
X21071716Y-10017716D01*
X21071716Y-10074285D01*
X21128285Y-10074285D01*
X21128285Y-10328285D02*
X21128285Y-10271716D01*
X21071716Y-10271716D01*
X21071716Y-10328285D01*
X21128285Y-10328285D01*
X21128285Y-10582285D02*
X21128285Y-10525716D01*
X21071716Y-10525716D01*
X21071716Y-10582285D01*
X21128285Y-10582285D01*
X21528285Y-12574284D02*
X21528285Y-12517715D01*
X21471716Y-12517715D01*
X21471716Y-12574284D01*
X21528285Y-12574284D01*
X21528285Y-12828284D02*
X21528285Y-12771715D01*
X21471716Y-12771715D01*
X21471716Y-12828284D01*
X21528285Y-12828284D01*
X21528285Y-13082284D02*
X21528285Y-13025715D01*
X21471716Y-13025715D01*
X21471716Y-13082284D01*
X21528285Y-13082284D01*
X21612285Y-9058285D02*
X21612285Y-9001716D01*
X21555716Y-9001716D01*
X21555716Y-9058285D01*
X21612285Y-9058285D01*
X21612285Y-9312285D02*
X21612285Y-9255716D01*
X21555716Y-9255716D01*
X21555716Y-9312285D01*
X21612285Y-9312285D01*
X21612285Y-9566285D02*
X21612285Y-9509716D01*
X21555716Y-9509716D01*
X21555716Y-9566285D01*
X21612285Y-9566285D01*
X21612285Y-9820285D02*
X21612285Y-9763716D01*
X21555716Y-9763716D01*
X21555716Y-9820285D01*
X21612285Y-9820285D01*
X21612285Y-10074285D02*
X21612285Y-10017716D01*
X21555716Y-10017716D01*
X21555716Y-10074285D01*
X21612285Y-10074285D01*
X21612285Y-10328285D02*
X21612285Y-10271716D01*
X21555716Y-10271716D01*
X21555716Y-10328285D01*
X21612285Y-10328285D01*
X21612285Y-10582285D02*
X21612285Y-10525716D01*
X21555716Y-10525716D01*
X21555716Y-10582285D01*
X21612285Y-10582285D01*
X22628284Y-9058285D02*
X22628284Y-9001716D01*
X22571715Y-9001716D01*
X22571715Y-9058285D01*
X22628284Y-9058285D01*
X22628284Y-9312285D02*
X22628284Y-9255716D01*
X22571715Y-9255716D01*
X22571715Y-9312285D01*
X22628284Y-9312285D01*
X22628284Y-9566285D02*
X22628284Y-9509716D01*
X22571715Y-9509716D01*
X22571715Y-9566285D01*
X22628284Y-9566285D01*
X22628284Y-9820285D02*
X22628284Y-9763716D01*
X22571715Y-9763716D01*
X22571715Y-9820285D01*
X22628284Y-9820285D01*
X22628284Y-10074285D02*
X22628284Y-10017716D01*
X22571715Y-10017716D01*
X22571715Y-10074285D01*
X22628284Y-10074285D01*
X22628284Y-10328285D02*
X22628284Y-10271716D01*
X22571715Y-10271716D01*
X22571715Y-10328285D01*
X22628284Y-10328285D01*
X22628284Y-10582285D02*
X22628284Y-10525716D01*
X22571715Y-10525716D01*
X22571715Y-10582285D01*
X22628284Y-10582285D01*
D10*
X18824250Y-11250000D02*
X18874250Y-11200000D01*
X18824250Y-11150000D01*
X18774250Y-11200000D01*
X18824250Y-11250000D01*
X18824250Y-12750000D02*
X18874250Y-12700000D01*
X18824250Y-12650000D01*
X18774250Y-12700000D01*
X18824250Y-12750000D01*
D16*
X18429000Y-13945000D02*
X18539000Y-14055000D01*
X18539000Y-13945000D02*
X18429000Y-14055000D01*
X18539000Y-14000000D02*
G75*
G03*
X18539000Y-14000000I-55000J0D01*
G01*
X18437000Y-13245000D02*
X18547000Y-13355000D01*
X18547000Y-13245000D02*
X18437000Y-13355000D01*
X18547000Y-13300000D02*
G75*
G03*
X18547000Y-13300000I-55000J0D01*
G01*
X19445000Y-13945000D02*
X19555000Y-14055000D01*
X19555000Y-13945000D02*
X19445000Y-14055000D01*
X19555000Y-14000000D02*
G75*
G03*
X19555000Y-14000000I-55000J0D01*
G01*
X19453000Y-13245000D02*
X19563000Y-13355000D01*
X19563000Y-13245000D02*
X19453000Y-13355000D01*
X19563000Y-13300000D02*
G75*
G03*
X19563000Y-13300000I-55000J0D01*
G01*
D11*
X17942619Y-15217524D02*
X17942619Y-15017524D01*
X17942619Y-15017524D02*
X17990238Y-15017524D01*
X17990238Y-15017524D02*
X18018810Y-15027048D01*
X18018810Y-15027048D02*
X18037857Y-15046095D01*
X18037857Y-15046095D02*
X18047381Y-15065143D01*
X18047381Y-15065143D02*
X18056905Y-15103238D01*
X18056905Y-15103238D02*
X18056905Y-15131809D01*
X18056905Y-15131809D02*
X18047381Y-15169905D01*
X18047381Y-15169905D02*
X18037857Y-15188952D01*
X18037857Y-15188952D02*
X18018810Y-15208000D01*
X18018810Y-15208000D02*
X17990238Y-15217524D01*
X17990238Y-15217524D02*
X17942619Y-15217524D01*
X18142619Y-15217524D02*
X18142619Y-15084190D01*
X18142619Y-15122286D02*
X18152143Y-15103238D01*
X18152143Y-15103238D02*
X18161667Y-15093714D01*
X18161667Y-15093714D02*
X18180714Y-15084190D01*
X18180714Y-15084190D02*
X18199762Y-15084190D01*
X18266429Y-15217524D02*
X18266429Y-15084190D01*
X18266429Y-15017524D02*
X18256905Y-15027048D01*
X18256905Y-15027048D02*
X18266429Y-15036571D01*
X18266429Y-15036571D02*
X18275952Y-15027048D01*
X18275952Y-15027048D02*
X18266429Y-15017524D01*
X18266429Y-15017524D02*
X18266429Y-15036571D01*
X18390238Y-15217524D02*
X18371190Y-15208000D01*
X18371190Y-15208000D02*
X18361667Y-15188952D01*
X18361667Y-15188952D02*
X18361667Y-15017524D01*
X18495000Y-15217524D02*
X18475952Y-15208000D01*
X18475952Y-15208000D02*
X18466429Y-15188952D01*
X18466429Y-15188952D02*
X18466429Y-15017524D01*
X18723571Y-15217524D02*
X18723571Y-15017524D01*
X18723571Y-15017524D02*
X18790238Y-15160381D01*
X18790238Y-15160381D02*
X18856905Y-15017524D01*
X18856905Y-15017524D02*
X18856905Y-15217524D01*
X19037857Y-15217524D02*
X19037857Y-15112762D01*
X19037857Y-15112762D02*
X19028333Y-15093714D01*
X19028333Y-15093714D02*
X19009286Y-15084190D01*
X19009286Y-15084190D02*
X18971190Y-15084190D01*
X18971190Y-15084190D02*
X18952143Y-15093714D01*
X19037857Y-15208000D02*
X19018810Y-15217524D01*
X19018810Y-15217524D02*
X18971190Y-15217524D01*
X18971190Y-15217524D02*
X18952143Y-15208000D01*
X18952143Y-15208000D02*
X18942619Y-15188952D01*
X18942619Y-15188952D02*
X18942619Y-15169905D01*
X18942619Y-15169905D02*
X18952143Y-15150857D01*
X18952143Y-15150857D02*
X18971190Y-15141333D01*
X18971190Y-15141333D02*
X19018810Y-15141333D01*
X19018810Y-15141333D02*
X19037857Y-15131809D01*
X19133095Y-15084190D02*
X19133095Y-15284190D01*
X19133095Y-15093714D02*
X19152143Y-15084190D01*
X19152143Y-15084190D02*
X19190238Y-15084190D01*
X19190238Y-15084190D02*
X19209286Y-15093714D01*
X19209286Y-15093714D02*
X19218810Y-15103238D01*
X19218810Y-15103238D02*
X19228333Y-15122286D01*
X19228333Y-15122286D02*
X19228333Y-15179428D01*
X19228333Y-15179428D02*
X19218810Y-15198476D01*
X19218810Y-15198476D02*
X19209286Y-15208000D01*
X19209286Y-15208000D02*
X19190238Y-15217524D01*
X19190238Y-15217524D02*
X19152143Y-15217524D01*
X19152143Y-15217524D02*
X19133095Y-15208000D01*
X19314048Y-15198476D02*
X19323571Y-15208000D01*
X19323571Y-15208000D02*
X19314048Y-15217524D01*
X19314048Y-15217524D02*
X19304524Y-15208000D01*
X19304524Y-15208000D02*
X19314048Y-15198476D01*
X19314048Y-15198476D02*
X19314048Y-15217524D01*
X19314048Y-15093714D02*
X19323571Y-15103238D01*
X19323571Y-15103238D02*
X19314048Y-15112762D01*
X19314048Y-15112762D02*
X19304524Y-15103238D01*
X19304524Y-15103238D02*
X19314048Y-15093714D01*
X19314048Y-15093714D02*
X19314048Y-15112762D01*
D12*
X17655000Y-15525000D02*
X17695000Y-15565000D01*
X17695000Y-15525000D02*
X17655000Y-15565000D01*
D11*
X17980714Y-15437524D02*
X17999762Y-15437524D01*
X17999762Y-15437524D02*
X18018810Y-15447048D01*
X18018810Y-15447048D02*
X18028333Y-15456571D01*
X18028333Y-15456571D02*
X18037857Y-15475619D01*
X18037857Y-15475619D02*
X18047381Y-15513714D01*
X18047381Y-15513714D02*
X18047381Y-15561333D01*
X18047381Y-15561333D02*
X18037857Y-15599428D01*
X18037857Y-15599428D02*
X18028333Y-15618476D01*
X18028333Y-15618476D02*
X18018810Y-15628000D01*
X18018810Y-15628000D02*
X17999762Y-15637524D01*
X17999762Y-15637524D02*
X17980714Y-15637524D01*
X17980714Y-15637524D02*
X17961667Y-15628000D01*
X17961667Y-15628000D02*
X17952143Y-15618476D01*
X17952143Y-15618476D02*
X17942619Y-15599428D01*
X17942619Y-15599428D02*
X17933095Y-15561333D01*
X17933095Y-15561333D02*
X17933095Y-15513714D01*
X17933095Y-15513714D02*
X17942619Y-15475619D01*
X17942619Y-15475619D02*
X17952143Y-15456571D01*
X17952143Y-15456571D02*
X17961667Y-15447048D01*
X17961667Y-15447048D02*
X17980714Y-15437524D01*
X18133095Y-15618476D02*
X18142619Y-15628000D01*
X18142619Y-15628000D02*
X18133095Y-15637524D01*
X18133095Y-15637524D02*
X18123571Y-15628000D01*
X18123571Y-15628000D02*
X18133095Y-15618476D01*
X18133095Y-15618476D02*
X18133095Y-15637524D01*
X18314048Y-15504190D02*
X18314048Y-15637524D01*
X18266429Y-15428000D02*
X18218810Y-15570857D01*
X18218810Y-15570857D02*
X18342619Y-15570857D01*
X18456905Y-15437524D02*
X18475952Y-15437524D01*
X18475952Y-15437524D02*
X18495000Y-15447048D01*
X18495000Y-15447048D02*
X18504524Y-15456571D01*
X18504524Y-15456571D02*
X18514048Y-15475619D01*
X18514048Y-15475619D02*
X18523571Y-15513714D01*
X18523571Y-15513714D02*
X18523571Y-15561333D01*
X18523571Y-15561333D02*
X18514048Y-15599428D01*
X18514048Y-15599428D02*
X18504524Y-15618476D01*
X18504524Y-15618476D02*
X18495000Y-15628000D01*
X18495000Y-15628000D02*
X18475952Y-15637524D01*
X18475952Y-15637524D02*
X18456905Y-15637524D01*
X18456905Y-15637524D02*
X18437857Y-15628000D01*
X18437857Y-15628000D02*
X18428333Y-15618476D01*
X18428333Y-15618476D02*
X18418810Y-15599428D01*
X18418810Y-15599428D02*
X18409286Y-15561333D01*
X18409286Y-15561333D02*
X18409286Y-15513714D01*
X18409286Y-15513714D02*
X18418810Y-15475619D01*
X18418810Y-15475619D02*
X18428333Y-15456571D01*
X18428333Y-15456571D02*
X18437857Y-15447048D01*
X18437857Y-15447048D02*
X18456905Y-15437524D01*
X18647381Y-15437524D02*
X18666429Y-15437524D01*
X18666429Y-15437524D02*
X18685476Y-15447048D01*
X18685476Y-15447048D02*
X18695000Y-15456571D01*
X18695000Y-15456571D02*
X18704524Y-15475619D01*
X18704524Y-15475619D02*
X18714048Y-15513714D01*
X18714048Y-15513714D02*
X18714048Y-15561333D01*
X18714048Y-15561333D02*
X18704524Y-15599428D01*
X18704524Y-15599428D02*
X18695000Y-15618476D01*
X18695000Y-15618476D02*
X18685476Y-15628000D01*
X18685476Y-15628000D02*
X18666429Y-15637524D01*
X18666429Y-15637524D02*
X18647381Y-15637524D01*
X18647381Y-15637524D02*
X18628333Y-15628000D01*
X18628333Y-15628000D02*
X18618810Y-15618476D01*
X18618810Y-15618476D02*
X18609286Y-15599428D01*
X18609286Y-15599428D02*
X18599762Y-15561333D01*
X18599762Y-15561333D02*
X18599762Y-15513714D01*
X18599762Y-15513714D02*
X18609286Y-15475619D01*
X18609286Y-15475619D02*
X18618810Y-15456571D01*
X18618810Y-15456571D02*
X18628333Y-15447048D01*
X18628333Y-15447048D02*
X18647381Y-15437524D01*
X18799762Y-15637524D02*
X18799762Y-15504190D01*
X18799762Y-15523238D02*
X18809286Y-15513714D01*
X18809286Y-15513714D02*
X18828333Y-15504190D01*
X18828333Y-15504190D02*
X18856905Y-15504190D01*
X18856905Y-15504190D02*
X18875952Y-15513714D01*
X18875952Y-15513714D02*
X18885476Y-15532762D01*
X18885476Y-15532762D02*
X18885476Y-15637524D01*
X18885476Y-15532762D02*
X18895000Y-15513714D01*
X18895000Y-15513714D02*
X18914048Y-15504190D01*
X18914048Y-15504190D02*
X18942619Y-15504190D01*
X18942619Y-15504190D02*
X18961667Y-15513714D01*
X18961667Y-15513714D02*
X18971191Y-15532762D01*
X18971191Y-15532762D02*
X18971191Y-15637524D01*
X19066429Y-15637524D02*
X19066429Y-15504190D01*
X19066429Y-15523238D02*
X19075952Y-15513714D01*
X19075952Y-15513714D02*
X19095000Y-15504190D01*
X19095000Y-15504190D02*
X19123572Y-15504190D01*
X19123572Y-15504190D02*
X19142619Y-15513714D01*
X19142619Y-15513714D02*
X19152143Y-15532762D01*
X19152143Y-15532762D02*
X19152143Y-15637524D01*
X19152143Y-15532762D02*
X19161667Y-15513714D01*
X19161667Y-15513714D02*
X19180714Y-15504190D01*
X19180714Y-15504190D02*
X19209286Y-15504190D01*
X19209286Y-15504190D02*
X19228333Y-15513714D01*
X19228333Y-15513714D02*
X19237857Y-15532762D01*
X19237857Y-15532762D02*
X19237857Y-15637524D01*
X19628333Y-15428000D02*
X19456905Y-15685143D01*
X19885476Y-15437524D02*
X19904524Y-15437524D01*
X19904524Y-15437524D02*
X19923572Y-15447048D01*
X19923572Y-15447048D02*
X19933095Y-15456571D01*
X19933095Y-15456571D02*
X19942619Y-15475619D01*
X19942619Y-15475619D02*
X19952143Y-15513714D01*
X19952143Y-15513714D02*
X19952143Y-15561333D01*
X19952143Y-15561333D02*
X19942619Y-15599428D01*
X19942619Y-15599428D02*
X19933095Y-15618476D01*
X19933095Y-15618476D02*
X19923572Y-15628000D01*
X19923572Y-15628000D02*
X19904524Y-15637524D01*
X19904524Y-15637524D02*
X19885476Y-15637524D01*
X19885476Y-15637524D02*
X19866429Y-15628000D01*
X19866429Y-15628000D02*
X19856905Y-15618476D01*
X19856905Y-15618476D02*
X19847381Y-15599428D01*
X19847381Y-15599428D02*
X19837857Y-15561333D01*
X19837857Y-15561333D02*
X19837857Y-15513714D01*
X19837857Y-15513714D02*
X19847381Y-15475619D01*
X19847381Y-15475619D02*
X19856905Y-15456571D01*
X19856905Y-15456571D02*
X19866429Y-15447048D01*
X19866429Y-15447048D02*
X19885476Y-15437524D01*
X20037857Y-15618476D02*
X20047381Y-15628000D01*
X20047381Y-15628000D02*
X20037857Y-15637524D01*
X20037857Y-15637524D02*
X20028334Y-15628000D01*
X20028334Y-15628000D02*
X20037857Y-15618476D01*
X20037857Y-15618476D02*
X20037857Y-15637524D01*
X20171191Y-15437524D02*
X20190238Y-15437524D01*
X20190238Y-15437524D02*
X20209286Y-15447048D01*
X20209286Y-15447048D02*
X20218810Y-15456571D01*
X20218810Y-15456571D02*
X20228334Y-15475619D01*
X20228334Y-15475619D02*
X20237857Y-15513714D01*
X20237857Y-15513714D02*
X20237857Y-15561333D01*
X20237857Y-15561333D02*
X20228334Y-15599428D01*
X20228334Y-15599428D02*
X20218810Y-15618476D01*
X20218810Y-15618476D02*
X20209286Y-15628000D01*
X20209286Y-15628000D02*
X20190238Y-15637524D01*
X20190238Y-15637524D02*
X20171191Y-15637524D01*
X20171191Y-15637524D02*
X20152143Y-15628000D01*
X20152143Y-15628000D02*
X20142619Y-15618476D01*
X20142619Y-15618476D02*
X20133095Y-15599428D01*
X20133095Y-15599428D02*
X20123572Y-15561333D01*
X20123572Y-15561333D02*
X20123572Y-15513714D01*
X20123572Y-15513714D02*
X20133095Y-15475619D01*
X20133095Y-15475619D02*
X20142619Y-15456571D01*
X20142619Y-15456571D02*
X20152143Y-15447048D01*
X20152143Y-15447048D02*
X20171191Y-15437524D01*
X20428334Y-15637524D02*
X20314048Y-15637524D01*
X20371191Y-15637524D02*
X20371191Y-15437524D01*
X20371191Y-15437524D02*
X20352143Y-15466095D01*
X20352143Y-15466095D02*
X20333095Y-15485143D01*
X20333095Y-15485143D02*
X20314048Y-15494667D01*
X20609286Y-15437524D02*
X20514048Y-15437524D01*
X20514048Y-15437524D02*
X20504524Y-15532762D01*
X20504524Y-15532762D02*
X20514048Y-15523238D01*
X20514048Y-15523238D02*
X20533095Y-15513714D01*
X20533095Y-15513714D02*
X20580715Y-15513714D01*
X20580715Y-15513714D02*
X20599762Y-15523238D01*
X20599762Y-15523238D02*
X20609286Y-15532762D01*
X20609286Y-15532762D02*
X20618810Y-15551809D01*
X20618810Y-15551809D02*
X20618810Y-15599428D01*
X20618810Y-15599428D02*
X20609286Y-15618476D01*
X20609286Y-15618476D02*
X20599762Y-15628000D01*
X20599762Y-15628000D02*
X20580715Y-15637524D01*
X20580715Y-15637524D02*
X20533095Y-15637524D01*
X20533095Y-15637524D02*
X20514048Y-15628000D01*
X20514048Y-15628000D02*
X20504524Y-15618476D01*
X20685476Y-15437524D02*
X20818810Y-15437524D01*
X20818810Y-15437524D02*
X20733095Y-15637524D01*
X20885476Y-15437524D02*
X20885476Y-15475619D01*
X20961667Y-15437524D02*
X20961667Y-15475619D01*
X21256905Y-15713714D02*
X21247381Y-15704190D01*
X21247381Y-15704190D02*
X21228334Y-15675619D01*
X21228334Y-15675619D02*
X21218810Y-15656571D01*
X21218810Y-15656571D02*
X21209286Y-15628000D01*
X21209286Y-15628000D02*
X21199762Y-15580381D01*
X21199762Y-15580381D02*
X21199762Y-15542286D01*
X21199762Y-15542286D02*
X21209286Y-15494667D01*
X21209286Y-15494667D02*
X21218810Y-15466095D01*
X21218810Y-15466095D02*
X21228334Y-15447048D01*
X21228334Y-15447048D02*
X21247381Y-15418476D01*
X21247381Y-15418476D02*
X21256905Y-15408952D01*
X21323572Y-15456571D02*
X21333096Y-15447048D01*
X21333096Y-15447048D02*
X21352143Y-15437524D01*
X21352143Y-15437524D02*
X21399762Y-15437524D01*
X21399762Y-15437524D02*
X21418810Y-15447048D01*
X21418810Y-15447048D02*
X21428334Y-15456571D01*
X21428334Y-15456571D02*
X21437857Y-15475619D01*
X21437857Y-15475619D02*
X21437857Y-15494667D01*
X21437857Y-15494667D02*
X21428334Y-15523238D01*
X21428334Y-15523238D02*
X21314048Y-15637524D01*
X21314048Y-15637524D02*
X21437857Y-15637524D01*
X21628334Y-15637524D02*
X21514048Y-15637524D01*
X21571191Y-15637524D02*
X21571191Y-15437524D01*
X21571191Y-15437524D02*
X21552143Y-15466095D01*
X21552143Y-15466095D02*
X21533096Y-15485143D01*
X21533096Y-15485143D02*
X21514048Y-15494667D01*
X21866429Y-15637524D02*
X21866429Y-15437524D01*
X21952143Y-15637524D02*
X21952143Y-15532762D01*
X21952143Y-15532762D02*
X21942619Y-15513714D01*
X21942619Y-15513714D02*
X21923572Y-15504190D01*
X21923572Y-15504190D02*
X21895000Y-15504190D01*
X21895000Y-15504190D02*
X21875953Y-15513714D01*
X21875953Y-15513714D02*
X21866429Y-15523238D01*
X22075953Y-15637524D02*
X22056905Y-15628000D01*
X22056905Y-15628000D02*
X22047381Y-15618476D01*
X22047381Y-15618476D02*
X22037858Y-15599428D01*
X22037858Y-15599428D02*
X22037858Y-15542286D01*
X22037858Y-15542286D02*
X22047381Y-15523238D01*
X22047381Y-15523238D02*
X22056905Y-15513714D01*
X22056905Y-15513714D02*
X22075953Y-15504190D01*
X22075953Y-15504190D02*
X22104524Y-15504190D01*
X22104524Y-15504190D02*
X22123572Y-15513714D01*
X22123572Y-15513714D02*
X22133096Y-15523238D01*
X22133096Y-15523238D02*
X22142619Y-15542286D01*
X22142619Y-15542286D02*
X22142619Y-15599428D01*
X22142619Y-15599428D02*
X22133096Y-15618476D01*
X22133096Y-15618476D02*
X22123572Y-15628000D01*
X22123572Y-15628000D02*
X22104524Y-15637524D01*
X22104524Y-15637524D02*
X22075953Y-15637524D01*
X22256905Y-15637524D02*
X22237858Y-15628000D01*
X22237858Y-15628000D02*
X22228334Y-15608952D01*
X22228334Y-15608952D02*
X22228334Y-15437524D01*
X22409286Y-15628000D02*
X22390238Y-15637524D01*
X22390238Y-15637524D02*
X22352143Y-15637524D01*
X22352143Y-15637524D02*
X22333096Y-15628000D01*
X22333096Y-15628000D02*
X22323572Y-15608952D01*
X22323572Y-15608952D02*
X22323572Y-15532762D01*
X22323572Y-15532762D02*
X22333096Y-15513714D01*
X22333096Y-15513714D02*
X22352143Y-15504190D01*
X22352143Y-15504190D02*
X22390238Y-15504190D01*
X22390238Y-15504190D02*
X22409286Y-15513714D01*
X22409286Y-15513714D02*
X22418810Y-15532762D01*
X22418810Y-15532762D02*
X22418810Y-15551809D01*
X22418810Y-15551809D02*
X22323572Y-15570857D01*
X22495000Y-15628000D02*
X22514048Y-15637524D01*
X22514048Y-15637524D02*
X22552143Y-15637524D01*
X22552143Y-15637524D02*
X22571191Y-15628000D01*
X22571191Y-15628000D02*
X22580715Y-15608952D01*
X22580715Y-15608952D02*
X22580715Y-15599428D01*
X22580715Y-15599428D02*
X22571191Y-15580381D01*
X22571191Y-15580381D02*
X22552143Y-15570857D01*
X22552143Y-15570857D02*
X22523572Y-15570857D01*
X22523572Y-15570857D02*
X22504524Y-15561333D01*
X22504524Y-15561333D02*
X22495000Y-15542286D01*
X22495000Y-15542286D02*
X22495000Y-15532762D01*
X22495000Y-15532762D02*
X22504524Y-15513714D01*
X22504524Y-15513714D02*
X22523572Y-15504190D01*
X22523572Y-15504190D02*
X22552143Y-15504190D01*
X22552143Y-15504190D02*
X22571191Y-15513714D01*
X22647381Y-15713714D02*
X22656905Y-15704190D01*
X22656905Y-15704190D02*
X22675953Y-15675619D01*
X22675953Y-15675619D02*
X22685477Y-15656571D01*
X22685477Y-15656571D02*
X22695000Y-15628000D01*
X22695000Y-15628000D02*
X22704524Y-15580381D01*
X22704524Y-15580381D02*
X22704524Y-15542286D01*
X22704524Y-15542286D02*
X22695000Y-15494667D01*
X22695000Y-15494667D02*
X22685477Y-15466095D01*
X22685477Y-15466095D02*
X22675953Y-15447048D01*
X22675953Y-15447048D02*
X22656905Y-15418476D01*
X22656905Y-15418476D02*
X22647381Y-15408952D01*
D13*
X17695000Y-15809000D02*
G75*
G03*
X17695000Y-15809000I-25000J0D01*
G01*
D11*
X17980714Y-15701524D02*
X17999762Y-15701524D01*
X17999762Y-15701524D02*
X18018810Y-15711048D01*
X18018810Y-15711048D02*
X18028333Y-15720571D01*
X18028333Y-15720571D02*
X18037857Y-15739619D01*
X18037857Y-15739619D02*
X18047381Y-15777714D01*
X18047381Y-15777714D02*
X18047381Y-15825333D01*
X18047381Y-15825333D02*
X18037857Y-15863428D01*
X18037857Y-15863428D02*
X18028333Y-15882476D01*
X18028333Y-15882476D02*
X18018810Y-15892000D01*
X18018810Y-15892000D02*
X17999762Y-15901524D01*
X17999762Y-15901524D02*
X17980714Y-15901524D01*
X17980714Y-15901524D02*
X17961667Y-15892000D01*
X17961667Y-15892000D02*
X17952143Y-15882476D01*
X17952143Y-15882476D02*
X17942619Y-15863428D01*
X17942619Y-15863428D02*
X17933095Y-15825333D01*
X17933095Y-15825333D02*
X17933095Y-15777714D01*
X17933095Y-15777714D02*
X17942619Y-15739619D01*
X17942619Y-15739619D02*
X17952143Y-15720571D01*
X17952143Y-15720571D02*
X17961667Y-15711048D01*
X17961667Y-15711048D02*
X17980714Y-15701524D01*
X18133095Y-15882476D02*
X18142619Y-15892000D01*
X18142619Y-15892000D02*
X18133095Y-15901524D01*
X18133095Y-15901524D02*
X18123571Y-15892000D01*
X18123571Y-15892000D02*
X18133095Y-15882476D01*
X18133095Y-15882476D02*
X18133095Y-15901524D01*
X18323571Y-15701524D02*
X18228333Y-15701524D01*
X18228333Y-15701524D02*
X18218810Y-15796762D01*
X18218810Y-15796762D02*
X18228333Y-15787238D01*
X18228333Y-15787238D02*
X18247381Y-15777714D01*
X18247381Y-15777714D02*
X18295000Y-15777714D01*
X18295000Y-15777714D02*
X18314048Y-15787238D01*
X18314048Y-15787238D02*
X18323571Y-15796762D01*
X18323571Y-15796762D02*
X18333095Y-15815809D01*
X18333095Y-15815809D02*
X18333095Y-15863428D01*
X18333095Y-15863428D02*
X18323571Y-15882476D01*
X18323571Y-15882476D02*
X18314048Y-15892000D01*
X18314048Y-15892000D02*
X18295000Y-15901524D01*
X18295000Y-15901524D02*
X18247381Y-15901524D01*
X18247381Y-15901524D02*
X18228333Y-15892000D01*
X18228333Y-15892000D02*
X18218810Y-15882476D01*
X18456905Y-15701524D02*
X18475952Y-15701524D01*
X18475952Y-15701524D02*
X18495000Y-15711048D01*
X18495000Y-15711048D02*
X18504524Y-15720571D01*
X18504524Y-15720571D02*
X18514048Y-15739619D01*
X18514048Y-15739619D02*
X18523571Y-15777714D01*
X18523571Y-15777714D02*
X18523571Y-15825333D01*
X18523571Y-15825333D02*
X18514048Y-15863428D01*
X18514048Y-15863428D02*
X18504524Y-15882476D01*
X18504524Y-15882476D02*
X18495000Y-15892000D01*
X18495000Y-15892000D02*
X18475952Y-15901524D01*
X18475952Y-15901524D02*
X18456905Y-15901524D01*
X18456905Y-15901524D02*
X18437857Y-15892000D01*
X18437857Y-15892000D02*
X18428333Y-15882476D01*
X18428333Y-15882476D02*
X18418810Y-15863428D01*
X18418810Y-15863428D02*
X18409286Y-15825333D01*
X18409286Y-15825333D02*
X18409286Y-15777714D01*
X18409286Y-15777714D02*
X18418810Y-15739619D01*
X18418810Y-15739619D02*
X18428333Y-15720571D01*
X18428333Y-15720571D02*
X18437857Y-15711048D01*
X18437857Y-15711048D02*
X18456905Y-15701524D01*
X18647381Y-15701524D02*
X18666429Y-15701524D01*
X18666429Y-15701524D02*
X18685476Y-15711048D01*
X18685476Y-15711048D02*
X18695000Y-15720571D01*
X18695000Y-15720571D02*
X18704524Y-15739619D01*
X18704524Y-15739619D02*
X18714048Y-15777714D01*
X18714048Y-15777714D02*
X18714048Y-15825333D01*
X18714048Y-15825333D02*
X18704524Y-15863428D01*
X18704524Y-15863428D02*
X18695000Y-15882476D01*
X18695000Y-15882476D02*
X18685476Y-15892000D01*
X18685476Y-15892000D02*
X18666429Y-15901524D01*
X18666429Y-15901524D02*
X18647381Y-15901524D01*
X18647381Y-15901524D02*
X18628333Y-15892000D01*
X18628333Y-15892000D02*
X18618810Y-15882476D01*
X18618810Y-15882476D02*
X18609286Y-15863428D01*
X18609286Y-15863428D02*
X18599762Y-15825333D01*
X18599762Y-15825333D02*
X18599762Y-15777714D01*
X18599762Y-15777714D02*
X18609286Y-15739619D01*
X18609286Y-15739619D02*
X18618810Y-15720571D01*
X18618810Y-15720571D02*
X18628333Y-15711048D01*
X18628333Y-15711048D02*
X18647381Y-15701524D01*
X18799762Y-15901524D02*
X18799762Y-15768190D01*
X18799762Y-15787238D02*
X18809286Y-15777714D01*
X18809286Y-15777714D02*
X18828333Y-15768190D01*
X18828333Y-15768190D02*
X18856905Y-15768190D01*
X18856905Y-15768190D02*
X18875952Y-15777714D01*
X18875952Y-15777714D02*
X18885476Y-15796762D01*
X18885476Y-15796762D02*
X18885476Y-15901524D01*
X18885476Y-15796762D02*
X18895000Y-15777714D01*
X18895000Y-15777714D02*
X18914048Y-15768190D01*
X18914048Y-15768190D02*
X18942619Y-15768190D01*
X18942619Y-15768190D02*
X18961667Y-15777714D01*
X18961667Y-15777714D02*
X18971191Y-15796762D01*
X18971191Y-15796762D02*
X18971191Y-15901524D01*
X19066429Y-15901524D02*
X19066429Y-15768190D01*
X19066429Y-15787238D02*
X19075952Y-15777714D01*
X19075952Y-15777714D02*
X19095000Y-15768190D01*
X19095000Y-15768190D02*
X19123572Y-15768190D01*
X19123572Y-15768190D02*
X19142619Y-15777714D01*
X19142619Y-15777714D02*
X19152143Y-15796762D01*
X19152143Y-15796762D02*
X19152143Y-15901524D01*
X19152143Y-15796762D02*
X19161667Y-15777714D01*
X19161667Y-15777714D02*
X19180714Y-15768190D01*
X19180714Y-15768190D02*
X19209286Y-15768190D01*
X19209286Y-15768190D02*
X19228333Y-15777714D01*
X19228333Y-15777714D02*
X19237857Y-15796762D01*
X19237857Y-15796762D02*
X19237857Y-15901524D01*
X19628333Y-15692000D02*
X19456905Y-15949143D01*
X19885476Y-15701524D02*
X19904524Y-15701524D01*
X19904524Y-15701524D02*
X19923572Y-15711048D01*
X19923572Y-15711048D02*
X19933095Y-15720571D01*
X19933095Y-15720571D02*
X19942619Y-15739619D01*
X19942619Y-15739619D02*
X19952143Y-15777714D01*
X19952143Y-15777714D02*
X19952143Y-15825333D01*
X19952143Y-15825333D02*
X19942619Y-15863428D01*
X19942619Y-15863428D02*
X19933095Y-15882476D01*
X19933095Y-15882476D02*
X19923572Y-15892000D01*
X19923572Y-15892000D02*
X19904524Y-15901524D01*
X19904524Y-15901524D02*
X19885476Y-15901524D01*
X19885476Y-15901524D02*
X19866429Y-15892000D01*
X19866429Y-15892000D02*
X19856905Y-15882476D01*
X19856905Y-15882476D02*
X19847381Y-15863428D01*
X19847381Y-15863428D02*
X19837857Y-15825333D01*
X19837857Y-15825333D02*
X19837857Y-15777714D01*
X19837857Y-15777714D02*
X19847381Y-15739619D01*
X19847381Y-15739619D02*
X19856905Y-15720571D01*
X19856905Y-15720571D02*
X19866429Y-15711048D01*
X19866429Y-15711048D02*
X19885476Y-15701524D01*
X20037857Y-15882476D02*
X20047381Y-15892000D01*
X20047381Y-15892000D02*
X20037857Y-15901524D01*
X20037857Y-15901524D02*
X20028334Y-15892000D01*
X20028334Y-15892000D02*
X20037857Y-15882476D01*
X20037857Y-15882476D02*
X20037857Y-15901524D01*
X20171191Y-15701524D02*
X20190238Y-15701524D01*
X20190238Y-15701524D02*
X20209286Y-15711048D01*
X20209286Y-15711048D02*
X20218810Y-15720571D01*
X20218810Y-15720571D02*
X20228334Y-15739619D01*
X20228334Y-15739619D02*
X20237857Y-15777714D01*
X20237857Y-15777714D02*
X20237857Y-15825333D01*
X20237857Y-15825333D02*
X20228334Y-15863428D01*
X20228334Y-15863428D02*
X20218810Y-15882476D01*
X20218810Y-15882476D02*
X20209286Y-15892000D01*
X20209286Y-15892000D02*
X20190238Y-15901524D01*
X20190238Y-15901524D02*
X20171191Y-15901524D01*
X20171191Y-15901524D02*
X20152143Y-15892000D01*
X20152143Y-15892000D02*
X20142619Y-15882476D01*
X20142619Y-15882476D02*
X20133095Y-15863428D01*
X20133095Y-15863428D02*
X20123572Y-15825333D01*
X20123572Y-15825333D02*
X20123572Y-15777714D01*
X20123572Y-15777714D02*
X20133095Y-15739619D01*
X20133095Y-15739619D02*
X20142619Y-15720571D01*
X20142619Y-15720571D02*
X20152143Y-15711048D01*
X20152143Y-15711048D02*
X20171191Y-15701524D01*
X20428334Y-15901524D02*
X20314048Y-15901524D01*
X20371191Y-15901524D02*
X20371191Y-15701524D01*
X20371191Y-15701524D02*
X20352143Y-15730095D01*
X20352143Y-15730095D02*
X20333095Y-15749143D01*
X20333095Y-15749143D02*
X20314048Y-15758667D01*
X20523572Y-15901524D02*
X20561667Y-15901524D01*
X20561667Y-15901524D02*
X20580715Y-15892000D01*
X20580715Y-15892000D02*
X20590238Y-15882476D01*
X20590238Y-15882476D02*
X20609286Y-15853905D01*
X20609286Y-15853905D02*
X20618810Y-15815809D01*
X20618810Y-15815809D02*
X20618810Y-15739619D01*
X20618810Y-15739619D02*
X20609286Y-15720571D01*
X20609286Y-15720571D02*
X20599762Y-15711048D01*
X20599762Y-15711048D02*
X20580715Y-15701524D01*
X20580715Y-15701524D02*
X20542619Y-15701524D01*
X20542619Y-15701524D02*
X20523572Y-15711048D01*
X20523572Y-15711048D02*
X20514048Y-15720571D01*
X20514048Y-15720571D02*
X20504524Y-15739619D01*
X20504524Y-15739619D02*
X20504524Y-15787238D01*
X20504524Y-15787238D02*
X20514048Y-15806286D01*
X20514048Y-15806286D02*
X20523572Y-15815809D01*
X20523572Y-15815809D02*
X20542619Y-15825333D01*
X20542619Y-15825333D02*
X20580715Y-15825333D01*
X20580715Y-15825333D02*
X20599762Y-15815809D01*
X20599762Y-15815809D02*
X20609286Y-15806286D01*
X20609286Y-15806286D02*
X20618810Y-15787238D01*
X20685476Y-15701524D02*
X20818810Y-15701524D01*
X20818810Y-15701524D02*
X20733095Y-15901524D01*
X20885476Y-15701524D02*
X20885476Y-15739619D01*
X20961667Y-15701524D02*
X20961667Y-15739619D01*
X21256905Y-15977714D02*
X21247381Y-15968190D01*
X21247381Y-15968190D02*
X21228334Y-15939619D01*
X21228334Y-15939619D02*
X21218810Y-15920571D01*
X21218810Y-15920571D02*
X21209286Y-15892000D01*
X21209286Y-15892000D02*
X21199762Y-15844381D01*
X21199762Y-15844381D02*
X21199762Y-15806286D01*
X21199762Y-15806286D02*
X21209286Y-15758667D01*
X21209286Y-15758667D02*
X21218810Y-15730095D01*
X21218810Y-15730095D02*
X21228334Y-15711048D01*
X21228334Y-15711048D02*
X21247381Y-15682476D01*
X21247381Y-15682476D02*
X21256905Y-15672952D01*
X21323572Y-15720571D02*
X21333096Y-15711048D01*
X21333096Y-15711048D02*
X21352143Y-15701524D01*
X21352143Y-15701524D02*
X21399762Y-15701524D01*
X21399762Y-15701524D02*
X21418810Y-15711048D01*
X21418810Y-15711048D02*
X21428334Y-15720571D01*
X21428334Y-15720571D02*
X21437857Y-15739619D01*
X21437857Y-15739619D02*
X21437857Y-15758667D01*
X21437857Y-15758667D02*
X21428334Y-15787238D01*
X21428334Y-15787238D02*
X21314048Y-15901524D01*
X21314048Y-15901524D02*
X21437857Y-15901524D01*
X21561667Y-15701524D02*
X21580715Y-15701524D01*
X21580715Y-15701524D02*
X21599762Y-15711048D01*
X21599762Y-15711048D02*
X21609286Y-15720571D01*
X21609286Y-15720571D02*
X21618810Y-15739619D01*
X21618810Y-15739619D02*
X21628334Y-15777714D01*
X21628334Y-15777714D02*
X21628334Y-15825333D01*
X21628334Y-15825333D02*
X21618810Y-15863428D01*
X21618810Y-15863428D02*
X21609286Y-15882476D01*
X21609286Y-15882476D02*
X21599762Y-15892000D01*
X21599762Y-15892000D02*
X21580715Y-15901524D01*
X21580715Y-15901524D02*
X21561667Y-15901524D01*
X21561667Y-15901524D02*
X21542619Y-15892000D01*
X21542619Y-15892000D02*
X21533096Y-15882476D01*
X21533096Y-15882476D02*
X21523572Y-15863428D01*
X21523572Y-15863428D02*
X21514048Y-15825333D01*
X21514048Y-15825333D02*
X21514048Y-15777714D01*
X21514048Y-15777714D02*
X21523572Y-15739619D01*
X21523572Y-15739619D02*
X21533096Y-15720571D01*
X21533096Y-15720571D02*
X21542619Y-15711048D01*
X21542619Y-15711048D02*
X21561667Y-15701524D01*
X21866429Y-15901524D02*
X21866429Y-15701524D01*
X21952143Y-15901524D02*
X21952143Y-15796762D01*
X21952143Y-15796762D02*
X21942619Y-15777714D01*
X21942619Y-15777714D02*
X21923572Y-15768190D01*
X21923572Y-15768190D02*
X21895000Y-15768190D01*
X21895000Y-15768190D02*
X21875953Y-15777714D01*
X21875953Y-15777714D02*
X21866429Y-15787238D01*
X22075953Y-15901524D02*
X22056905Y-15892000D01*
X22056905Y-15892000D02*
X22047381Y-15882476D01*
X22047381Y-15882476D02*
X22037858Y-15863428D01*
X22037858Y-15863428D02*
X22037858Y-15806286D01*
X22037858Y-15806286D02*
X22047381Y-15787238D01*
X22047381Y-15787238D02*
X22056905Y-15777714D01*
X22056905Y-15777714D02*
X22075953Y-15768190D01*
X22075953Y-15768190D02*
X22104524Y-15768190D01*
X22104524Y-15768190D02*
X22123572Y-15777714D01*
X22123572Y-15777714D02*
X22133096Y-15787238D01*
X22133096Y-15787238D02*
X22142619Y-15806286D01*
X22142619Y-15806286D02*
X22142619Y-15863428D01*
X22142619Y-15863428D02*
X22133096Y-15882476D01*
X22133096Y-15882476D02*
X22123572Y-15892000D01*
X22123572Y-15892000D02*
X22104524Y-15901524D01*
X22104524Y-15901524D02*
X22075953Y-15901524D01*
X22256905Y-15901524D02*
X22237858Y-15892000D01*
X22237858Y-15892000D02*
X22228334Y-15872952D01*
X22228334Y-15872952D02*
X22228334Y-15701524D01*
X22409286Y-15892000D02*
X22390238Y-15901524D01*
X22390238Y-15901524D02*
X22352143Y-15901524D01*
X22352143Y-15901524D02*
X22333096Y-15892000D01*
X22333096Y-15892000D02*
X22323572Y-15872952D01*
X22323572Y-15872952D02*
X22323572Y-15796762D01*
X22323572Y-15796762D02*
X22333096Y-15777714D01*
X22333096Y-15777714D02*
X22352143Y-15768190D01*
X22352143Y-15768190D02*
X22390238Y-15768190D01*
X22390238Y-15768190D02*
X22409286Y-15777714D01*
X22409286Y-15777714D02*
X22418810Y-15796762D01*
X22418810Y-15796762D02*
X22418810Y-15815809D01*
X22418810Y-15815809D02*
X22323572Y-15834857D01*
X22495000Y-15892000D02*
X22514048Y-15901524D01*
X22514048Y-15901524D02*
X22552143Y-15901524D01*
X22552143Y-15901524D02*
X22571191Y-15892000D01*
X22571191Y-15892000D02*
X22580715Y-15872952D01*
X22580715Y-15872952D02*
X22580715Y-15863428D01*
X22580715Y-15863428D02*
X22571191Y-15844381D01*
X22571191Y-15844381D02*
X22552143Y-15834857D01*
X22552143Y-15834857D02*
X22523572Y-15834857D01*
X22523572Y-15834857D02*
X22504524Y-15825333D01*
X22504524Y-15825333D02*
X22495000Y-15806286D01*
X22495000Y-15806286D02*
X22495000Y-15796762D01*
X22495000Y-15796762D02*
X22504524Y-15777714D01*
X22504524Y-15777714D02*
X22523572Y-15768190D01*
X22523572Y-15768190D02*
X22552143Y-15768190D01*
X22552143Y-15768190D02*
X22571191Y-15777714D01*
X22647381Y-15977714D02*
X22656905Y-15968190D01*
X22656905Y-15968190D02*
X22675953Y-15939619D01*
X22675953Y-15939619D02*
X22685477Y-15920571D01*
X22685477Y-15920571D02*
X22695000Y-15892000D01*
X22695000Y-15892000D02*
X22704524Y-15844381D01*
X22704524Y-15844381D02*
X22704524Y-15806286D01*
X22704524Y-15806286D02*
X22695000Y-15758667D01*
X22695000Y-15758667D02*
X22685477Y-15730095D01*
X22685477Y-15730095D02*
X22675953Y-15711048D01*
X22675953Y-15711048D02*
X22656905Y-15682476D01*
X22656905Y-15682476D02*
X22647381Y-15672952D01*
D14*
X17660000Y-16038000D02*
X17660000Y-16108000D01*
X17625000Y-16073000D02*
X17695000Y-16073000D01*
D11*
X17980714Y-15965524D02*
X17999762Y-15965524D01*
X17999762Y-15965524D02*
X18018810Y-15975048D01*
X18018810Y-15975048D02*
X18028333Y-15984571D01*
X18028333Y-15984571D02*
X18037857Y-16003619D01*
X18037857Y-16003619D02*
X18047381Y-16041714D01*
X18047381Y-16041714D02*
X18047381Y-16089333D01*
X18047381Y-16089333D02*
X18037857Y-16127428D01*
X18037857Y-16127428D02*
X18028333Y-16146476D01*
X18028333Y-16146476D02*
X18018810Y-16156000D01*
X18018810Y-16156000D02*
X17999762Y-16165524D01*
X17999762Y-16165524D02*
X17980714Y-16165524D01*
X17980714Y-16165524D02*
X17961667Y-16156000D01*
X17961667Y-16156000D02*
X17952143Y-16146476D01*
X17952143Y-16146476D02*
X17942619Y-16127428D01*
X17942619Y-16127428D02*
X17933095Y-16089333D01*
X17933095Y-16089333D02*
X17933095Y-16041714D01*
X17933095Y-16041714D02*
X17942619Y-16003619D01*
X17942619Y-16003619D02*
X17952143Y-15984571D01*
X17952143Y-15984571D02*
X17961667Y-15975048D01*
X17961667Y-15975048D02*
X17980714Y-15965524D01*
X18133095Y-16146476D02*
X18142619Y-16156000D01*
X18142619Y-16156000D02*
X18133095Y-16165524D01*
X18133095Y-16165524D02*
X18123571Y-16156000D01*
X18123571Y-16156000D02*
X18133095Y-16146476D01*
X18133095Y-16146476D02*
X18133095Y-16165524D01*
X18209286Y-15965524D02*
X18342619Y-15965524D01*
X18342619Y-15965524D02*
X18256905Y-16165524D01*
X18456905Y-15965524D02*
X18475952Y-15965524D01*
X18475952Y-15965524D02*
X18495000Y-15975048D01*
X18495000Y-15975048D02*
X18504524Y-15984571D01*
X18504524Y-15984571D02*
X18514048Y-16003619D01*
X18514048Y-16003619D02*
X18523571Y-16041714D01*
X18523571Y-16041714D02*
X18523571Y-16089333D01*
X18523571Y-16089333D02*
X18514048Y-16127428D01*
X18514048Y-16127428D02*
X18504524Y-16146476D01*
X18504524Y-16146476D02*
X18495000Y-16156000D01*
X18495000Y-16156000D02*
X18475952Y-16165524D01*
X18475952Y-16165524D02*
X18456905Y-16165524D01*
X18456905Y-16165524D02*
X18437857Y-16156000D01*
X18437857Y-16156000D02*
X18428333Y-16146476D01*
X18428333Y-16146476D02*
X18418810Y-16127428D01*
X18418810Y-16127428D02*
X18409286Y-16089333D01*
X18409286Y-16089333D02*
X18409286Y-16041714D01*
X18409286Y-16041714D02*
X18418810Y-16003619D01*
X18418810Y-16003619D02*
X18428333Y-15984571D01*
X18428333Y-15984571D02*
X18437857Y-15975048D01*
X18437857Y-15975048D02*
X18456905Y-15965524D01*
X18647381Y-15965524D02*
X18666429Y-15965524D01*
X18666429Y-15965524D02*
X18685476Y-15975048D01*
X18685476Y-15975048D02*
X18695000Y-15984571D01*
X18695000Y-15984571D02*
X18704524Y-16003619D01*
X18704524Y-16003619D02*
X18714048Y-16041714D01*
X18714048Y-16041714D02*
X18714048Y-16089333D01*
X18714048Y-16089333D02*
X18704524Y-16127428D01*
X18704524Y-16127428D02*
X18695000Y-16146476D01*
X18695000Y-16146476D02*
X18685476Y-16156000D01*
X18685476Y-16156000D02*
X18666429Y-16165524D01*
X18666429Y-16165524D02*
X18647381Y-16165524D01*
X18647381Y-16165524D02*
X18628333Y-16156000D01*
X18628333Y-16156000D02*
X18618810Y-16146476D01*
X18618810Y-16146476D02*
X18609286Y-16127428D01*
X18609286Y-16127428D02*
X18599762Y-16089333D01*
X18599762Y-16089333D02*
X18599762Y-16041714D01*
X18599762Y-16041714D02*
X18609286Y-16003619D01*
X18609286Y-16003619D02*
X18618810Y-15984571D01*
X18618810Y-15984571D02*
X18628333Y-15975048D01*
X18628333Y-15975048D02*
X18647381Y-15965524D01*
X18799762Y-16165524D02*
X18799762Y-16032190D01*
X18799762Y-16051238D02*
X18809286Y-16041714D01*
X18809286Y-16041714D02*
X18828333Y-16032190D01*
X18828333Y-16032190D02*
X18856905Y-16032190D01*
X18856905Y-16032190D02*
X18875952Y-16041714D01*
X18875952Y-16041714D02*
X18885476Y-16060762D01*
X18885476Y-16060762D02*
X18885476Y-16165524D01*
X18885476Y-16060762D02*
X18895000Y-16041714D01*
X18895000Y-16041714D02*
X18914048Y-16032190D01*
X18914048Y-16032190D02*
X18942619Y-16032190D01*
X18942619Y-16032190D02*
X18961667Y-16041714D01*
X18961667Y-16041714D02*
X18971191Y-16060762D01*
X18971191Y-16060762D02*
X18971191Y-16165524D01*
X19066429Y-16165524D02*
X19066429Y-16032190D01*
X19066429Y-16051238D02*
X19075952Y-16041714D01*
X19075952Y-16041714D02*
X19095000Y-16032190D01*
X19095000Y-16032190D02*
X19123572Y-16032190D01*
X19123572Y-16032190D02*
X19142619Y-16041714D01*
X19142619Y-16041714D02*
X19152143Y-16060762D01*
X19152143Y-16060762D02*
X19152143Y-16165524D01*
X19152143Y-16060762D02*
X19161667Y-16041714D01*
X19161667Y-16041714D02*
X19180714Y-16032190D01*
X19180714Y-16032190D02*
X19209286Y-16032190D01*
X19209286Y-16032190D02*
X19228333Y-16041714D01*
X19228333Y-16041714D02*
X19237857Y-16060762D01*
X19237857Y-16060762D02*
X19237857Y-16165524D01*
X19628333Y-15956000D02*
X19456905Y-16213143D01*
X19885476Y-15965524D02*
X19904524Y-15965524D01*
X19904524Y-15965524D02*
X19923572Y-15975048D01*
X19923572Y-15975048D02*
X19933095Y-15984571D01*
X19933095Y-15984571D02*
X19942619Y-16003619D01*
X19942619Y-16003619D02*
X19952143Y-16041714D01*
X19952143Y-16041714D02*
X19952143Y-16089333D01*
X19952143Y-16089333D02*
X19942619Y-16127428D01*
X19942619Y-16127428D02*
X19933095Y-16146476D01*
X19933095Y-16146476D02*
X19923572Y-16156000D01*
X19923572Y-16156000D02*
X19904524Y-16165524D01*
X19904524Y-16165524D02*
X19885476Y-16165524D01*
X19885476Y-16165524D02*
X19866429Y-16156000D01*
X19866429Y-16156000D02*
X19856905Y-16146476D01*
X19856905Y-16146476D02*
X19847381Y-16127428D01*
X19847381Y-16127428D02*
X19837857Y-16089333D01*
X19837857Y-16089333D02*
X19837857Y-16041714D01*
X19837857Y-16041714D02*
X19847381Y-16003619D01*
X19847381Y-16003619D02*
X19856905Y-15984571D01*
X19856905Y-15984571D02*
X19866429Y-15975048D01*
X19866429Y-15975048D02*
X19885476Y-15965524D01*
X20037857Y-16146476D02*
X20047381Y-16156000D01*
X20047381Y-16156000D02*
X20037857Y-16165524D01*
X20037857Y-16165524D02*
X20028334Y-16156000D01*
X20028334Y-16156000D02*
X20037857Y-16146476D01*
X20037857Y-16146476D02*
X20037857Y-16165524D01*
X20171191Y-15965524D02*
X20190238Y-15965524D01*
X20190238Y-15965524D02*
X20209286Y-15975048D01*
X20209286Y-15975048D02*
X20218810Y-15984571D01*
X20218810Y-15984571D02*
X20228334Y-16003619D01*
X20228334Y-16003619D02*
X20237857Y-16041714D01*
X20237857Y-16041714D02*
X20237857Y-16089333D01*
X20237857Y-16089333D02*
X20228334Y-16127428D01*
X20228334Y-16127428D02*
X20218810Y-16146476D01*
X20218810Y-16146476D02*
X20209286Y-16156000D01*
X20209286Y-16156000D02*
X20190238Y-16165524D01*
X20190238Y-16165524D02*
X20171191Y-16165524D01*
X20171191Y-16165524D02*
X20152143Y-16156000D01*
X20152143Y-16156000D02*
X20142619Y-16146476D01*
X20142619Y-16146476D02*
X20133095Y-16127428D01*
X20133095Y-16127428D02*
X20123572Y-16089333D01*
X20123572Y-16089333D02*
X20123572Y-16041714D01*
X20123572Y-16041714D02*
X20133095Y-16003619D01*
X20133095Y-16003619D02*
X20142619Y-15984571D01*
X20142619Y-15984571D02*
X20152143Y-15975048D01*
X20152143Y-15975048D02*
X20171191Y-15965524D01*
X20314048Y-15984571D02*
X20323572Y-15975048D01*
X20323572Y-15975048D02*
X20342619Y-15965524D01*
X20342619Y-15965524D02*
X20390238Y-15965524D01*
X20390238Y-15965524D02*
X20409286Y-15975048D01*
X20409286Y-15975048D02*
X20418810Y-15984571D01*
X20418810Y-15984571D02*
X20428334Y-16003619D01*
X20428334Y-16003619D02*
X20428334Y-16022667D01*
X20428334Y-16022667D02*
X20418810Y-16051238D01*
X20418810Y-16051238D02*
X20304524Y-16165524D01*
X20304524Y-16165524D02*
X20428334Y-16165524D01*
X20495000Y-15965524D02*
X20628334Y-15965524D01*
X20628334Y-15965524D02*
X20542619Y-16165524D01*
X20790238Y-15965524D02*
X20752143Y-15965524D01*
X20752143Y-15965524D02*
X20733095Y-15975048D01*
X20733095Y-15975048D02*
X20723572Y-15984571D01*
X20723572Y-15984571D02*
X20704524Y-16013143D01*
X20704524Y-16013143D02*
X20695000Y-16051238D01*
X20695000Y-16051238D02*
X20695000Y-16127428D01*
X20695000Y-16127428D02*
X20704524Y-16146476D01*
X20704524Y-16146476D02*
X20714048Y-16156000D01*
X20714048Y-16156000D02*
X20733095Y-16165524D01*
X20733095Y-16165524D02*
X20771191Y-16165524D01*
X20771191Y-16165524D02*
X20790238Y-16156000D01*
X20790238Y-16156000D02*
X20799762Y-16146476D01*
X20799762Y-16146476D02*
X20809286Y-16127428D01*
X20809286Y-16127428D02*
X20809286Y-16079809D01*
X20809286Y-16079809D02*
X20799762Y-16060762D01*
X20799762Y-16060762D02*
X20790238Y-16051238D01*
X20790238Y-16051238D02*
X20771191Y-16041714D01*
X20771191Y-16041714D02*
X20733095Y-16041714D01*
X20733095Y-16041714D02*
X20714048Y-16051238D01*
X20714048Y-16051238D02*
X20704524Y-16060762D01*
X20704524Y-16060762D02*
X20695000Y-16079809D01*
X20885476Y-15965524D02*
X20885476Y-16003619D01*
X20961667Y-15965524D02*
X20961667Y-16003619D01*
X21256905Y-16241714D02*
X21247381Y-16232190D01*
X21247381Y-16232190D02*
X21228334Y-16203619D01*
X21228334Y-16203619D02*
X21218810Y-16184571D01*
X21218810Y-16184571D02*
X21209286Y-16156000D01*
X21209286Y-16156000D02*
X21199762Y-16108381D01*
X21199762Y-16108381D02*
X21199762Y-16070286D01*
X21199762Y-16070286D02*
X21209286Y-16022667D01*
X21209286Y-16022667D02*
X21218810Y-15994095D01*
X21218810Y-15994095D02*
X21228334Y-15975048D01*
X21228334Y-15975048D02*
X21247381Y-15946476D01*
X21247381Y-15946476D02*
X21256905Y-15936952D01*
X21437857Y-16165524D02*
X21323572Y-16165524D01*
X21380715Y-16165524D02*
X21380715Y-15965524D01*
X21380715Y-15965524D02*
X21361667Y-15994095D01*
X21361667Y-15994095D02*
X21342619Y-16013143D01*
X21342619Y-16013143D02*
X21323572Y-16022667D01*
X21561667Y-15965524D02*
X21580715Y-15965524D01*
X21580715Y-15965524D02*
X21599762Y-15975048D01*
X21599762Y-15975048D02*
X21609286Y-15984571D01*
X21609286Y-15984571D02*
X21618810Y-16003619D01*
X21618810Y-16003619D02*
X21628334Y-16041714D01*
X21628334Y-16041714D02*
X21628334Y-16089333D01*
X21628334Y-16089333D02*
X21618810Y-16127428D01*
X21618810Y-16127428D02*
X21609286Y-16146476D01*
X21609286Y-16146476D02*
X21599762Y-16156000D01*
X21599762Y-16156000D02*
X21580715Y-16165524D01*
X21580715Y-16165524D02*
X21561667Y-16165524D01*
X21561667Y-16165524D02*
X21542619Y-16156000D01*
X21542619Y-16156000D02*
X21533096Y-16146476D01*
X21533096Y-16146476D02*
X21523572Y-16127428D01*
X21523572Y-16127428D02*
X21514048Y-16089333D01*
X21514048Y-16089333D02*
X21514048Y-16041714D01*
X21514048Y-16041714D02*
X21523572Y-16003619D01*
X21523572Y-16003619D02*
X21533096Y-15984571D01*
X21533096Y-15984571D02*
X21542619Y-15975048D01*
X21542619Y-15975048D02*
X21561667Y-15965524D01*
X21866429Y-16165524D02*
X21866429Y-15965524D01*
X21952143Y-16165524D02*
X21952143Y-16060762D01*
X21952143Y-16060762D02*
X21942619Y-16041714D01*
X21942619Y-16041714D02*
X21923572Y-16032190D01*
X21923572Y-16032190D02*
X21895000Y-16032190D01*
X21895000Y-16032190D02*
X21875953Y-16041714D01*
X21875953Y-16041714D02*
X21866429Y-16051238D01*
X22075953Y-16165524D02*
X22056905Y-16156000D01*
X22056905Y-16156000D02*
X22047381Y-16146476D01*
X22047381Y-16146476D02*
X22037858Y-16127428D01*
X22037858Y-16127428D02*
X22037858Y-16070286D01*
X22037858Y-16070286D02*
X22047381Y-16051238D01*
X22047381Y-16051238D02*
X22056905Y-16041714D01*
X22056905Y-16041714D02*
X22075953Y-16032190D01*
X22075953Y-16032190D02*
X22104524Y-16032190D01*
X22104524Y-16032190D02*
X22123572Y-16041714D01*
X22123572Y-16041714D02*
X22133096Y-16051238D01*
X22133096Y-16051238D02*
X22142619Y-16070286D01*
X22142619Y-16070286D02*
X22142619Y-16127428D01*
X22142619Y-16127428D02*
X22133096Y-16146476D01*
X22133096Y-16146476D02*
X22123572Y-16156000D01*
X22123572Y-16156000D02*
X22104524Y-16165524D01*
X22104524Y-16165524D02*
X22075953Y-16165524D01*
X22256905Y-16165524D02*
X22237858Y-16156000D01*
X22237858Y-16156000D02*
X22228334Y-16136952D01*
X22228334Y-16136952D02*
X22228334Y-15965524D01*
X22409286Y-16156000D02*
X22390238Y-16165524D01*
X22390238Y-16165524D02*
X22352143Y-16165524D01*
X22352143Y-16165524D02*
X22333096Y-16156000D01*
X22333096Y-16156000D02*
X22323572Y-16136952D01*
X22323572Y-16136952D02*
X22323572Y-16060762D01*
X22323572Y-16060762D02*
X22333096Y-16041714D01*
X22333096Y-16041714D02*
X22352143Y-16032190D01*
X22352143Y-16032190D02*
X22390238Y-16032190D01*
X22390238Y-16032190D02*
X22409286Y-16041714D01*
X22409286Y-16041714D02*
X22418810Y-16060762D01*
X22418810Y-16060762D02*
X22418810Y-16079809D01*
X22418810Y-16079809D02*
X22323572Y-16098857D01*
X22495000Y-16156000D02*
X22514048Y-16165524D01*
X22514048Y-16165524D02*
X22552143Y-16165524D01*
X22552143Y-16165524D02*
X22571191Y-16156000D01*
X22571191Y-16156000D02*
X22580715Y-16136952D01*
X22580715Y-16136952D02*
X22580715Y-16127428D01*
X22580715Y-16127428D02*
X22571191Y-16108381D01*
X22571191Y-16108381D02*
X22552143Y-16098857D01*
X22552143Y-16098857D02*
X22523572Y-16098857D01*
X22523572Y-16098857D02*
X22504524Y-16089333D01*
X22504524Y-16089333D02*
X22495000Y-16070286D01*
X22495000Y-16070286D02*
X22495000Y-16060762D01*
X22495000Y-16060762D02*
X22504524Y-16041714D01*
X22504524Y-16041714D02*
X22523572Y-16032190D01*
X22523572Y-16032190D02*
X22552143Y-16032190D01*
X22552143Y-16032190D02*
X22571191Y-16041714D01*
X22647381Y-16241714D02*
X22656905Y-16232190D01*
X22656905Y-16232190D02*
X22675953Y-16203619D01*
X22675953Y-16203619D02*
X22685477Y-16184571D01*
X22685477Y-16184571D02*
X22695000Y-16156000D01*
X22695000Y-16156000D02*
X22704524Y-16108381D01*
X22704524Y-16108381D02*
X22704524Y-16070286D01*
X22704524Y-16070286D02*
X22695000Y-16022667D01*
X22695000Y-16022667D02*
X22685477Y-15994095D01*
X22685477Y-15994095D02*
X22675953Y-15975048D01*
X22675953Y-15975048D02*
X22656905Y-15946476D01*
X22656905Y-15946476D02*
X22647381Y-15936952D01*
D15*
X17683285Y-16365284D02*
X17683285Y-16308715D01*
X17626716Y-16308715D01*
X17626716Y-16365284D01*
X17683285Y-16365284D01*
D11*
X17980714Y-16229524D02*
X17999762Y-16229524D01*
X17999762Y-16229524D02*
X18018810Y-16239048D01*
X18018810Y-16239048D02*
X18028333Y-16248571D01*
X18028333Y-16248571D02*
X18037857Y-16267619D01*
X18037857Y-16267619D02*
X18047381Y-16305714D01*
X18047381Y-16305714D02*
X18047381Y-16353333D01*
X18047381Y-16353333D02*
X18037857Y-16391428D01*
X18037857Y-16391428D02*
X18028333Y-16410476D01*
X18028333Y-16410476D02*
X18018810Y-16420000D01*
X18018810Y-16420000D02*
X17999762Y-16429524D01*
X17999762Y-16429524D02*
X17980714Y-16429524D01*
X17980714Y-16429524D02*
X17961667Y-16420000D01*
X17961667Y-16420000D02*
X17952143Y-16410476D01*
X17952143Y-16410476D02*
X17942619Y-16391428D01*
X17942619Y-16391428D02*
X17933095Y-16353333D01*
X17933095Y-16353333D02*
X17933095Y-16305714D01*
X17933095Y-16305714D02*
X17942619Y-16267619D01*
X17942619Y-16267619D02*
X17952143Y-16248571D01*
X17952143Y-16248571D02*
X17961667Y-16239048D01*
X17961667Y-16239048D02*
X17980714Y-16229524D01*
X18133095Y-16410476D02*
X18142619Y-16420000D01*
X18142619Y-16420000D02*
X18133095Y-16429524D01*
X18133095Y-16429524D02*
X18123571Y-16420000D01*
X18123571Y-16420000D02*
X18133095Y-16410476D01*
X18133095Y-16410476D02*
X18133095Y-16429524D01*
X18256905Y-16315238D02*
X18237857Y-16305714D01*
X18237857Y-16305714D02*
X18228333Y-16296190D01*
X18228333Y-16296190D02*
X18218810Y-16277143D01*
X18218810Y-16277143D02*
X18218810Y-16267619D01*
X18218810Y-16267619D02*
X18228333Y-16248571D01*
X18228333Y-16248571D02*
X18237857Y-16239048D01*
X18237857Y-16239048D02*
X18256905Y-16229524D01*
X18256905Y-16229524D02*
X18295000Y-16229524D01*
X18295000Y-16229524D02*
X18314048Y-16239048D01*
X18314048Y-16239048D02*
X18323571Y-16248571D01*
X18323571Y-16248571D02*
X18333095Y-16267619D01*
X18333095Y-16267619D02*
X18333095Y-16277143D01*
X18333095Y-16277143D02*
X18323571Y-16296190D01*
X18323571Y-16296190D02*
X18314048Y-16305714D01*
X18314048Y-16305714D02*
X18295000Y-16315238D01*
X18295000Y-16315238D02*
X18256905Y-16315238D01*
X18256905Y-16315238D02*
X18237857Y-16324762D01*
X18237857Y-16324762D02*
X18228333Y-16334286D01*
X18228333Y-16334286D02*
X18218810Y-16353333D01*
X18218810Y-16353333D02*
X18218810Y-16391428D01*
X18218810Y-16391428D02*
X18228333Y-16410476D01*
X18228333Y-16410476D02*
X18237857Y-16420000D01*
X18237857Y-16420000D02*
X18256905Y-16429524D01*
X18256905Y-16429524D02*
X18295000Y-16429524D01*
X18295000Y-16429524D02*
X18314048Y-16420000D01*
X18314048Y-16420000D02*
X18323571Y-16410476D01*
X18323571Y-16410476D02*
X18333095Y-16391428D01*
X18333095Y-16391428D02*
X18333095Y-16353333D01*
X18333095Y-16353333D02*
X18323571Y-16334286D01*
X18323571Y-16334286D02*
X18314048Y-16324762D01*
X18314048Y-16324762D02*
X18295000Y-16315238D01*
X18456905Y-16229524D02*
X18475952Y-16229524D01*
X18475952Y-16229524D02*
X18495000Y-16239048D01*
X18495000Y-16239048D02*
X18504524Y-16248571D01*
X18504524Y-16248571D02*
X18514048Y-16267619D01*
X18514048Y-16267619D02*
X18523571Y-16305714D01*
X18523571Y-16305714D02*
X18523571Y-16353333D01*
X18523571Y-16353333D02*
X18514048Y-16391428D01*
X18514048Y-16391428D02*
X18504524Y-16410476D01*
X18504524Y-16410476D02*
X18495000Y-16420000D01*
X18495000Y-16420000D02*
X18475952Y-16429524D01*
X18475952Y-16429524D02*
X18456905Y-16429524D01*
X18456905Y-16429524D02*
X18437857Y-16420000D01*
X18437857Y-16420000D02*
X18428333Y-16410476D01*
X18428333Y-16410476D02*
X18418810Y-16391428D01*
X18418810Y-16391428D02*
X18409286Y-16353333D01*
X18409286Y-16353333D02*
X18409286Y-16305714D01*
X18409286Y-16305714D02*
X18418810Y-16267619D01*
X18418810Y-16267619D02*
X18428333Y-16248571D01*
X18428333Y-16248571D02*
X18437857Y-16239048D01*
X18437857Y-16239048D02*
X18456905Y-16229524D01*
X18647381Y-16229524D02*
X18666429Y-16229524D01*
X18666429Y-16229524D02*
X18685476Y-16239048D01*
X18685476Y-16239048D02*
X18695000Y-16248571D01*
X18695000Y-16248571D02*
X18704524Y-16267619D01*
X18704524Y-16267619D02*
X18714048Y-16305714D01*
X18714048Y-16305714D02*
X18714048Y-16353333D01*
X18714048Y-16353333D02*
X18704524Y-16391428D01*
X18704524Y-16391428D02*
X18695000Y-16410476D01*
X18695000Y-16410476D02*
X18685476Y-16420000D01*
X18685476Y-16420000D02*
X18666429Y-16429524D01*
X18666429Y-16429524D02*
X18647381Y-16429524D01*
X18647381Y-16429524D02*
X18628333Y-16420000D01*
X18628333Y-16420000D02*
X18618810Y-16410476D01*
X18618810Y-16410476D02*
X18609286Y-16391428D01*
X18609286Y-16391428D02*
X18599762Y-16353333D01*
X18599762Y-16353333D02*
X18599762Y-16305714D01*
X18599762Y-16305714D02*
X18609286Y-16267619D01*
X18609286Y-16267619D02*
X18618810Y-16248571D01*
X18618810Y-16248571D02*
X18628333Y-16239048D01*
X18628333Y-16239048D02*
X18647381Y-16229524D01*
X18799762Y-16429524D02*
X18799762Y-16296190D01*
X18799762Y-16315238D02*
X18809286Y-16305714D01*
X18809286Y-16305714D02*
X18828333Y-16296190D01*
X18828333Y-16296190D02*
X18856905Y-16296190D01*
X18856905Y-16296190D02*
X18875952Y-16305714D01*
X18875952Y-16305714D02*
X18885476Y-16324762D01*
X18885476Y-16324762D02*
X18885476Y-16429524D01*
X18885476Y-16324762D02*
X18895000Y-16305714D01*
X18895000Y-16305714D02*
X18914048Y-16296190D01*
X18914048Y-16296190D02*
X18942619Y-16296190D01*
X18942619Y-16296190D02*
X18961667Y-16305714D01*
X18961667Y-16305714D02*
X18971191Y-16324762D01*
X18971191Y-16324762D02*
X18971191Y-16429524D01*
X19066429Y-16429524D02*
X19066429Y-16296190D01*
X19066429Y-16315238D02*
X19075952Y-16305714D01*
X19075952Y-16305714D02*
X19095000Y-16296190D01*
X19095000Y-16296190D02*
X19123572Y-16296190D01*
X19123572Y-16296190D02*
X19142619Y-16305714D01*
X19142619Y-16305714D02*
X19152143Y-16324762D01*
X19152143Y-16324762D02*
X19152143Y-16429524D01*
X19152143Y-16324762D02*
X19161667Y-16305714D01*
X19161667Y-16305714D02*
X19180714Y-16296190D01*
X19180714Y-16296190D02*
X19209286Y-16296190D01*
X19209286Y-16296190D02*
X19228333Y-16305714D01*
X19228333Y-16305714D02*
X19237857Y-16324762D01*
X19237857Y-16324762D02*
X19237857Y-16429524D01*
X19628333Y-16220000D02*
X19456905Y-16477143D01*
X19885476Y-16229524D02*
X19904524Y-16229524D01*
X19904524Y-16229524D02*
X19923572Y-16239048D01*
X19923572Y-16239048D02*
X19933095Y-16248571D01*
X19933095Y-16248571D02*
X19942619Y-16267619D01*
X19942619Y-16267619D02*
X19952143Y-16305714D01*
X19952143Y-16305714D02*
X19952143Y-16353333D01*
X19952143Y-16353333D02*
X19942619Y-16391428D01*
X19942619Y-16391428D02*
X19933095Y-16410476D01*
X19933095Y-16410476D02*
X19923572Y-16420000D01*
X19923572Y-16420000D02*
X19904524Y-16429524D01*
X19904524Y-16429524D02*
X19885476Y-16429524D01*
X19885476Y-16429524D02*
X19866429Y-16420000D01*
X19866429Y-16420000D02*
X19856905Y-16410476D01*
X19856905Y-16410476D02*
X19847381Y-16391428D01*
X19847381Y-16391428D02*
X19837857Y-16353333D01*
X19837857Y-16353333D02*
X19837857Y-16305714D01*
X19837857Y-16305714D02*
X19847381Y-16267619D01*
X19847381Y-16267619D02*
X19856905Y-16248571D01*
X19856905Y-16248571D02*
X19866429Y-16239048D01*
X19866429Y-16239048D02*
X19885476Y-16229524D01*
X20037857Y-16410476D02*
X20047381Y-16420000D01*
X20047381Y-16420000D02*
X20037857Y-16429524D01*
X20037857Y-16429524D02*
X20028334Y-16420000D01*
X20028334Y-16420000D02*
X20037857Y-16410476D01*
X20037857Y-16410476D02*
X20037857Y-16429524D01*
X20171191Y-16229524D02*
X20190238Y-16229524D01*
X20190238Y-16229524D02*
X20209286Y-16239048D01*
X20209286Y-16239048D02*
X20218810Y-16248571D01*
X20218810Y-16248571D02*
X20228334Y-16267619D01*
X20228334Y-16267619D02*
X20237857Y-16305714D01*
X20237857Y-16305714D02*
X20237857Y-16353333D01*
X20237857Y-16353333D02*
X20228334Y-16391428D01*
X20228334Y-16391428D02*
X20218810Y-16410476D01*
X20218810Y-16410476D02*
X20209286Y-16420000D01*
X20209286Y-16420000D02*
X20190238Y-16429524D01*
X20190238Y-16429524D02*
X20171191Y-16429524D01*
X20171191Y-16429524D02*
X20152143Y-16420000D01*
X20152143Y-16420000D02*
X20142619Y-16410476D01*
X20142619Y-16410476D02*
X20133095Y-16391428D01*
X20133095Y-16391428D02*
X20123572Y-16353333D01*
X20123572Y-16353333D02*
X20123572Y-16305714D01*
X20123572Y-16305714D02*
X20133095Y-16267619D01*
X20133095Y-16267619D02*
X20142619Y-16248571D01*
X20142619Y-16248571D02*
X20152143Y-16239048D01*
X20152143Y-16239048D02*
X20171191Y-16229524D01*
X20304524Y-16229524D02*
X20428334Y-16229524D01*
X20428334Y-16229524D02*
X20361667Y-16305714D01*
X20361667Y-16305714D02*
X20390238Y-16305714D01*
X20390238Y-16305714D02*
X20409286Y-16315238D01*
X20409286Y-16315238D02*
X20418810Y-16324762D01*
X20418810Y-16324762D02*
X20428334Y-16343809D01*
X20428334Y-16343809D02*
X20428334Y-16391428D01*
X20428334Y-16391428D02*
X20418810Y-16410476D01*
X20418810Y-16410476D02*
X20409286Y-16420000D01*
X20409286Y-16420000D02*
X20390238Y-16429524D01*
X20390238Y-16429524D02*
X20333095Y-16429524D01*
X20333095Y-16429524D02*
X20314048Y-16420000D01*
X20314048Y-16420000D02*
X20304524Y-16410476D01*
X20618810Y-16429524D02*
X20504524Y-16429524D01*
X20561667Y-16429524D02*
X20561667Y-16229524D01*
X20561667Y-16229524D02*
X20542619Y-16258095D01*
X20542619Y-16258095D02*
X20523572Y-16277143D01*
X20523572Y-16277143D02*
X20504524Y-16286667D01*
X20799762Y-16229524D02*
X20704524Y-16229524D01*
X20704524Y-16229524D02*
X20695000Y-16324762D01*
X20695000Y-16324762D02*
X20704524Y-16315238D01*
X20704524Y-16315238D02*
X20723572Y-16305714D01*
X20723572Y-16305714D02*
X20771191Y-16305714D01*
X20771191Y-16305714D02*
X20790238Y-16315238D01*
X20790238Y-16315238D02*
X20799762Y-16324762D01*
X20799762Y-16324762D02*
X20809286Y-16343809D01*
X20809286Y-16343809D02*
X20809286Y-16391428D01*
X20809286Y-16391428D02*
X20799762Y-16410476D01*
X20799762Y-16410476D02*
X20790238Y-16420000D01*
X20790238Y-16420000D02*
X20771191Y-16429524D01*
X20771191Y-16429524D02*
X20723572Y-16429524D01*
X20723572Y-16429524D02*
X20704524Y-16420000D01*
X20704524Y-16420000D02*
X20695000Y-16410476D01*
X20885476Y-16229524D02*
X20885476Y-16267619D01*
X20961667Y-16229524D02*
X20961667Y-16267619D01*
X21256905Y-16505714D02*
X21247381Y-16496190D01*
X21247381Y-16496190D02*
X21228334Y-16467619D01*
X21228334Y-16467619D02*
X21218810Y-16448571D01*
X21218810Y-16448571D02*
X21209286Y-16420000D01*
X21209286Y-16420000D02*
X21199762Y-16372381D01*
X21199762Y-16372381D02*
X21199762Y-16334286D01*
X21199762Y-16334286D02*
X21209286Y-16286667D01*
X21209286Y-16286667D02*
X21218810Y-16258095D01*
X21218810Y-16258095D02*
X21228334Y-16239048D01*
X21228334Y-16239048D02*
X21247381Y-16210476D01*
X21247381Y-16210476D02*
X21256905Y-16200952D01*
X21428334Y-16229524D02*
X21333096Y-16229524D01*
X21333096Y-16229524D02*
X21323572Y-16324762D01*
X21323572Y-16324762D02*
X21333096Y-16315238D01*
X21333096Y-16315238D02*
X21352143Y-16305714D01*
X21352143Y-16305714D02*
X21399762Y-16305714D01*
X21399762Y-16305714D02*
X21418810Y-16315238D01*
X21418810Y-16315238D02*
X21428334Y-16324762D01*
X21428334Y-16324762D02*
X21437857Y-16343809D01*
X21437857Y-16343809D02*
X21437857Y-16391428D01*
X21437857Y-16391428D02*
X21428334Y-16410476D01*
X21428334Y-16410476D02*
X21418810Y-16420000D01*
X21418810Y-16420000D02*
X21399762Y-16429524D01*
X21399762Y-16429524D02*
X21352143Y-16429524D01*
X21352143Y-16429524D02*
X21333096Y-16420000D01*
X21333096Y-16420000D02*
X21323572Y-16410476D01*
X21609286Y-16296190D02*
X21609286Y-16429524D01*
X21561667Y-16220000D02*
X21514048Y-16362857D01*
X21514048Y-16362857D02*
X21637857Y-16362857D01*
X21866429Y-16429524D02*
X21866429Y-16229524D01*
X21952143Y-16429524D02*
X21952143Y-16324762D01*
X21952143Y-16324762D02*
X21942619Y-16305714D01*
X21942619Y-16305714D02*
X21923572Y-16296190D01*
X21923572Y-16296190D02*
X21895000Y-16296190D01*
X21895000Y-16296190D02*
X21875953Y-16305714D01*
X21875953Y-16305714D02*
X21866429Y-16315238D01*
X22075953Y-16429524D02*
X22056905Y-16420000D01*
X22056905Y-16420000D02*
X22047381Y-16410476D01*
X22047381Y-16410476D02*
X22037858Y-16391428D01*
X22037858Y-16391428D02*
X22037858Y-16334286D01*
X22037858Y-16334286D02*
X22047381Y-16315238D01*
X22047381Y-16315238D02*
X22056905Y-16305714D01*
X22056905Y-16305714D02*
X22075953Y-16296190D01*
X22075953Y-16296190D02*
X22104524Y-16296190D01*
X22104524Y-16296190D02*
X22123572Y-16305714D01*
X22123572Y-16305714D02*
X22133096Y-16315238D01*
X22133096Y-16315238D02*
X22142619Y-16334286D01*
X22142619Y-16334286D02*
X22142619Y-16391428D01*
X22142619Y-16391428D02*
X22133096Y-16410476D01*
X22133096Y-16410476D02*
X22123572Y-16420000D01*
X22123572Y-16420000D02*
X22104524Y-16429524D01*
X22104524Y-16429524D02*
X22075953Y-16429524D01*
X22256905Y-16429524D02*
X22237858Y-16420000D01*
X22237858Y-16420000D02*
X22228334Y-16400952D01*
X22228334Y-16400952D02*
X22228334Y-16229524D01*
X22409286Y-16420000D02*
X22390238Y-16429524D01*
X22390238Y-16429524D02*
X22352143Y-16429524D01*
X22352143Y-16429524D02*
X22333096Y-16420000D01*
X22333096Y-16420000D02*
X22323572Y-16400952D01*
X22323572Y-16400952D02*
X22323572Y-16324762D01*
X22323572Y-16324762D02*
X22333096Y-16305714D01*
X22333096Y-16305714D02*
X22352143Y-16296190D01*
X22352143Y-16296190D02*
X22390238Y-16296190D01*
X22390238Y-16296190D02*
X22409286Y-16305714D01*
X22409286Y-16305714D02*
X22418810Y-16324762D01*
X22418810Y-16324762D02*
X22418810Y-16343809D01*
X22418810Y-16343809D02*
X22323572Y-16362857D01*
X22495000Y-16420000D02*
X22514048Y-16429524D01*
X22514048Y-16429524D02*
X22552143Y-16429524D01*
X22552143Y-16429524D02*
X22571191Y-16420000D01*
X22571191Y-16420000D02*
X22580715Y-16400952D01*
X22580715Y-16400952D02*
X22580715Y-16391428D01*
X22580715Y-16391428D02*
X22571191Y-16372381D01*
X22571191Y-16372381D02*
X22552143Y-16362857D01*
X22552143Y-16362857D02*
X22523572Y-16362857D01*
X22523572Y-16362857D02*
X22504524Y-16353333D01*
X22504524Y-16353333D02*
X22495000Y-16334286D01*
X22495000Y-16334286D02*
X22495000Y-16324762D01*
X22495000Y-16324762D02*
X22504524Y-16305714D01*
X22504524Y-16305714D02*
X22523572Y-16296190D01*
X22523572Y-16296190D02*
X22552143Y-16296190D01*
X22552143Y-16296190D02*
X22571191Y-16305714D01*
X22647381Y-16505714D02*
X22656905Y-16496190D01*
X22656905Y-16496190D02*
X22675953Y-16467619D01*
X22675953Y-16467619D02*
X22685477Y-16448571D01*
X22685477Y-16448571D02*
X22695000Y-16420000D01*
X22695000Y-16420000D02*
X22704524Y-16372381D01*
X22704524Y-16372381D02*
X22704524Y-16334286D01*
X22704524Y-16334286D02*
X22695000Y-16286667D01*
X22695000Y-16286667D02*
X22685477Y-16258095D01*
X22685477Y-16258095D02*
X22675953Y-16239048D01*
X22675953Y-16239048D02*
X22656905Y-16210476D01*
X22656905Y-16210476D02*
X22647381Y-16200952D01*
D10*
X17645000Y-16651000D02*
X17695000Y-16601000D01*
X17645000Y-16551000D01*
X17595000Y-16601000D01*
X17645000Y-16651000D01*
D11*
X18047381Y-16693524D02*
X17933095Y-16693524D01*
X17990238Y-16693524D02*
X17990238Y-16493524D01*
X17990238Y-16493524D02*
X17971190Y-16522095D01*
X17971190Y-16522095D02*
X17952143Y-16541143D01*
X17952143Y-16541143D02*
X17933095Y-16550667D01*
X18133095Y-16674476D02*
X18142619Y-16684000D01*
X18142619Y-16684000D02*
X18133095Y-16693524D01*
X18133095Y-16693524D02*
X18123571Y-16684000D01*
X18123571Y-16684000D02*
X18133095Y-16674476D01*
X18133095Y-16674476D02*
X18133095Y-16693524D01*
X18266429Y-16493524D02*
X18285476Y-16493524D01*
X18285476Y-16493524D02*
X18304524Y-16503048D01*
X18304524Y-16503048D02*
X18314048Y-16512571D01*
X18314048Y-16512571D02*
X18323571Y-16531619D01*
X18323571Y-16531619D02*
X18333095Y-16569714D01*
X18333095Y-16569714D02*
X18333095Y-16617333D01*
X18333095Y-16617333D02*
X18323571Y-16655428D01*
X18323571Y-16655428D02*
X18314048Y-16674476D01*
X18314048Y-16674476D02*
X18304524Y-16684000D01*
X18304524Y-16684000D02*
X18285476Y-16693524D01*
X18285476Y-16693524D02*
X18266429Y-16693524D01*
X18266429Y-16693524D02*
X18247381Y-16684000D01*
X18247381Y-16684000D02*
X18237857Y-16674476D01*
X18237857Y-16674476D02*
X18228333Y-16655428D01*
X18228333Y-16655428D02*
X18218810Y-16617333D01*
X18218810Y-16617333D02*
X18218810Y-16569714D01*
X18218810Y-16569714D02*
X18228333Y-16531619D01*
X18228333Y-16531619D02*
X18237857Y-16512571D01*
X18237857Y-16512571D02*
X18247381Y-16503048D01*
X18247381Y-16503048D02*
X18266429Y-16493524D01*
X18456905Y-16493524D02*
X18475952Y-16493524D01*
X18475952Y-16493524D02*
X18495000Y-16503048D01*
X18495000Y-16503048D02*
X18504524Y-16512571D01*
X18504524Y-16512571D02*
X18514048Y-16531619D01*
X18514048Y-16531619D02*
X18523571Y-16569714D01*
X18523571Y-16569714D02*
X18523571Y-16617333D01*
X18523571Y-16617333D02*
X18514048Y-16655428D01*
X18514048Y-16655428D02*
X18504524Y-16674476D01*
X18504524Y-16674476D02*
X18495000Y-16684000D01*
X18495000Y-16684000D02*
X18475952Y-16693524D01*
X18475952Y-16693524D02*
X18456905Y-16693524D01*
X18456905Y-16693524D02*
X18437857Y-16684000D01*
X18437857Y-16684000D02*
X18428333Y-16674476D01*
X18428333Y-16674476D02*
X18418810Y-16655428D01*
X18418810Y-16655428D02*
X18409286Y-16617333D01*
X18409286Y-16617333D02*
X18409286Y-16569714D01*
X18409286Y-16569714D02*
X18418810Y-16531619D01*
X18418810Y-16531619D02*
X18428333Y-16512571D01*
X18428333Y-16512571D02*
X18437857Y-16503048D01*
X18437857Y-16503048D02*
X18456905Y-16493524D01*
X18647381Y-16493524D02*
X18666429Y-16493524D01*
X18666429Y-16493524D02*
X18685476Y-16503048D01*
X18685476Y-16503048D02*
X18695000Y-16512571D01*
X18695000Y-16512571D02*
X18704524Y-16531619D01*
X18704524Y-16531619D02*
X18714048Y-16569714D01*
X18714048Y-16569714D02*
X18714048Y-16617333D01*
X18714048Y-16617333D02*
X18704524Y-16655428D01*
X18704524Y-16655428D02*
X18695000Y-16674476D01*
X18695000Y-16674476D02*
X18685476Y-16684000D01*
X18685476Y-16684000D02*
X18666429Y-16693524D01*
X18666429Y-16693524D02*
X18647381Y-16693524D01*
X18647381Y-16693524D02*
X18628333Y-16684000D01*
X18628333Y-16684000D02*
X18618810Y-16674476D01*
X18618810Y-16674476D02*
X18609286Y-16655428D01*
X18609286Y-16655428D02*
X18599762Y-16617333D01*
X18599762Y-16617333D02*
X18599762Y-16569714D01*
X18599762Y-16569714D02*
X18609286Y-16531619D01*
X18609286Y-16531619D02*
X18618810Y-16512571D01*
X18618810Y-16512571D02*
X18628333Y-16503048D01*
X18628333Y-16503048D02*
X18647381Y-16493524D01*
X18799762Y-16693524D02*
X18799762Y-16560190D01*
X18799762Y-16579238D02*
X18809286Y-16569714D01*
X18809286Y-16569714D02*
X18828333Y-16560190D01*
X18828333Y-16560190D02*
X18856905Y-16560190D01*
X18856905Y-16560190D02*
X18875952Y-16569714D01*
X18875952Y-16569714D02*
X18885476Y-16588762D01*
X18885476Y-16588762D02*
X18885476Y-16693524D01*
X18885476Y-16588762D02*
X18895000Y-16569714D01*
X18895000Y-16569714D02*
X18914048Y-16560190D01*
X18914048Y-16560190D02*
X18942619Y-16560190D01*
X18942619Y-16560190D02*
X18961667Y-16569714D01*
X18961667Y-16569714D02*
X18971191Y-16588762D01*
X18971191Y-16588762D02*
X18971191Y-16693524D01*
X19066429Y-16693524D02*
X19066429Y-16560190D01*
X19066429Y-16579238D02*
X19075952Y-16569714D01*
X19075952Y-16569714D02*
X19095000Y-16560190D01*
X19095000Y-16560190D02*
X19123572Y-16560190D01*
X19123572Y-16560190D02*
X19142619Y-16569714D01*
X19142619Y-16569714D02*
X19152143Y-16588762D01*
X19152143Y-16588762D02*
X19152143Y-16693524D01*
X19152143Y-16588762D02*
X19161667Y-16569714D01*
X19161667Y-16569714D02*
X19180714Y-16560190D01*
X19180714Y-16560190D02*
X19209286Y-16560190D01*
X19209286Y-16560190D02*
X19228333Y-16569714D01*
X19228333Y-16569714D02*
X19237857Y-16588762D01*
X19237857Y-16588762D02*
X19237857Y-16693524D01*
X19628333Y-16484000D02*
X19456905Y-16741143D01*
X19885476Y-16493524D02*
X19904524Y-16493524D01*
X19904524Y-16493524D02*
X19923572Y-16503048D01*
X19923572Y-16503048D02*
X19933095Y-16512571D01*
X19933095Y-16512571D02*
X19942619Y-16531619D01*
X19942619Y-16531619D02*
X19952143Y-16569714D01*
X19952143Y-16569714D02*
X19952143Y-16617333D01*
X19952143Y-16617333D02*
X19942619Y-16655428D01*
X19942619Y-16655428D02*
X19933095Y-16674476D01*
X19933095Y-16674476D02*
X19923572Y-16684000D01*
X19923572Y-16684000D02*
X19904524Y-16693524D01*
X19904524Y-16693524D02*
X19885476Y-16693524D01*
X19885476Y-16693524D02*
X19866429Y-16684000D01*
X19866429Y-16684000D02*
X19856905Y-16674476D01*
X19856905Y-16674476D02*
X19847381Y-16655428D01*
X19847381Y-16655428D02*
X19837857Y-16617333D01*
X19837857Y-16617333D02*
X19837857Y-16569714D01*
X19837857Y-16569714D02*
X19847381Y-16531619D01*
X19847381Y-16531619D02*
X19856905Y-16512571D01*
X19856905Y-16512571D02*
X19866429Y-16503048D01*
X19866429Y-16503048D02*
X19885476Y-16493524D01*
X20037857Y-16674476D02*
X20047381Y-16684000D01*
X20047381Y-16684000D02*
X20037857Y-16693524D01*
X20037857Y-16693524D02*
X20028334Y-16684000D01*
X20028334Y-16684000D02*
X20037857Y-16674476D01*
X20037857Y-16674476D02*
X20037857Y-16693524D01*
X20171191Y-16493524D02*
X20190238Y-16493524D01*
X20190238Y-16493524D02*
X20209286Y-16503048D01*
X20209286Y-16503048D02*
X20218810Y-16512571D01*
X20218810Y-16512571D02*
X20228334Y-16531619D01*
X20228334Y-16531619D02*
X20237857Y-16569714D01*
X20237857Y-16569714D02*
X20237857Y-16617333D01*
X20237857Y-16617333D02*
X20228334Y-16655428D01*
X20228334Y-16655428D02*
X20218810Y-16674476D01*
X20218810Y-16674476D02*
X20209286Y-16684000D01*
X20209286Y-16684000D02*
X20190238Y-16693524D01*
X20190238Y-16693524D02*
X20171191Y-16693524D01*
X20171191Y-16693524D02*
X20152143Y-16684000D01*
X20152143Y-16684000D02*
X20142619Y-16674476D01*
X20142619Y-16674476D02*
X20133095Y-16655428D01*
X20133095Y-16655428D02*
X20123572Y-16617333D01*
X20123572Y-16617333D02*
X20123572Y-16569714D01*
X20123572Y-16569714D02*
X20133095Y-16531619D01*
X20133095Y-16531619D02*
X20142619Y-16512571D01*
X20142619Y-16512571D02*
X20152143Y-16503048D01*
X20152143Y-16503048D02*
X20171191Y-16493524D01*
X20304524Y-16493524D02*
X20428334Y-16493524D01*
X20428334Y-16493524D02*
X20361667Y-16569714D01*
X20361667Y-16569714D02*
X20390238Y-16569714D01*
X20390238Y-16569714D02*
X20409286Y-16579238D01*
X20409286Y-16579238D02*
X20418810Y-16588762D01*
X20418810Y-16588762D02*
X20428334Y-16607809D01*
X20428334Y-16607809D02*
X20428334Y-16655428D01*
X20428334Y-16655428D02*
X20418810Y-16674476D01*
X20418810Y-16674476D02*
X20409286Y-16684000D01*
X20409286Y-16684000D02*
X20390238Y-16693524D01*
X20390238Y-16693524D02*
X20333095Y-16693524D01*
X20333095Y-16693524D02*
X20314048Y-16684000D01*
X20314048Y-16684000D02*
X20304524Y-16674476D01*
X20523572Y-16693524D02*
X20561667Y-16693524D01*
X20561667Y-16693524D02*
X20580715Y-16684000D01*
X20580715Y-16684000D02*
X20590238Y-16674476D01*
X20590238Y-16674476D02*
X20609286Y-16645905D01*
X20609286Y-16645905D02*
X20618810Y-16607809D01*
X20618810Y-16607809D02*
X20618810Y-16531619D01*
X20618810Y-16531619D02*
X20609286Y-16512571D01*
X20609286Y-16512571D02*
X20599762Y-16503048D01*
X20599762Y-16503048D02*
X20580715Y-16493524D01*
X20580715Y-16493524D02*
X20542619Y-16493524D01*
X20542619Y-16493524D02*
X20523572Y-16503048D01*
X20523572Y-16503048D02*
X20514048Y-16512571D01*
X20514048Y-16512571D02*
X20504524Y-16531619D01*
X20504524Y-16531619D02*
X20504524Y-16579238D01*
X20504524Y-16579238D02*
X20514048Y-16598286D01*
X20514048Y-16598286D02*
X20523572Y-16607809D01*
X20523572Y-16607809D02*
X20542619Y-16617333D01*
X20542619Y-16617333D02*
X20580715Y-16617333D01*
X20580715Y-16617333D02*
X20599762Y-16607809D01*
X20599762Y-16607809D02*
X20609286Y-16598286D01*
X20609286Y-16598286D02*
X20618810Y-16579238D01*
X20790238Y-16560190D02*
X20790238Y-16693524D01*
X20742619Y-16484000D02*
X20695000Y-16626857D01*
X20695000Y-16626857D02*
X20818810Y-16626857D01*
X20885476Y-16493524D02*
X20885476Y-16531619D01*
X20961667Y-16493524D02*
X20961667Y-16531619D01*
X21256905Y-16769714D02*
X21247381Y-16760190D01*
X21247381Y-16760190D02*
X21228334Y-16731619D01*
X21228334Y-16731619D02*
X21218810Y-16712571D01*
X21218810Y-16712571D02*
X21209286Y-16684000D01*
X21209286Y-16684000D02*
X21199762Y-16636381D01*
X21199762Y-16636381D02*
X21199762Y-16598286D01*
X21199762Y-16598286D02*
X21209286Y-16550667D01*
X21209286Y-16550667D02*
X21218810Y-16522095D01*
X21218810Y-16522095D02*
X21228334Y-16503048D01*
X21228334Y-16503048D02*
X21247381Y-16474476D01*
X21247381Y-16474476D02*
X21256905Y-16464952D01*
X21323572Y-16512571D02*
X21333096Y-16503048D01*
X21333096Y-16503048D02*
X21352143Y-16493524D01*
X21352143Y-16493524D02*
X21399762Y-16493524D01*
X21399762Y-16493524D02*
X21418810Y-16503048D01*
X21418810Y-16503048D02*
X21428334Y-16512571D01*
X21428334Y-16512571D02*
X21437857Y-16531619D01*
X21437857Y-16531619D02*
X21437857Y-16550667D01*
X21437857Y-16550667D02*
X21428334Y-16579238D01*
X21428334Y-16579238D02*
X21314048Y-16693524D01*
X21314048Y-16693524D02*
X21437857Y-16693524D01*
X21675953Y-16693524D02*
X21675953Y-16493524D01*
X21761667Y-16693524D02*
X21761667Y-16588762D01*
X21761667Y-16588762D02*
X21752143Y-16569714D01*
X21752143Y-16569714D02*
X21733096Y-16560190D01*
X21733096Y-16560190D02*
X21704524Y-16560190D01*
X21704524Y-16560190D02*
X21685477Y-16569714D01*
X21685477Y-16569714D02*
X21675953Y-16579238D01*
X21885477Y-16693524D02*
X21866429Y-16684000D01*
X21866429Y-16684000D02*
X21856905Y-16674476D01*
X21856905Y-16674476D02*
X21847381Y-16655428D01*
X21847381Y-16655428D02*
X21847381Y-16598286D01*
X21847381Y-16598286D02*
X21856905Y-16579238D01*
X21856905Y-16579238D02*
X21866429Y-16569714D01*
X21866429Y-16569714D02*
X21885477Y-16560190D01*
X21885477Y-16560190D02*
X21914048Y-16560190D01*
X21914048Y-16560190D02*
X21933096Y-16569714D01*
X21933096Y-16569714D02*
X21942619Y-16579238D01*
X21942619Y-16579238D02*
X21952143Y-16598286D01*
X21952143Y-16598286D02*
X21952143Y-16655428D01*
X21952143Y-16655428D02*
X21942619Y-16674476D01*
X21942619Y-16674476D02*
X21933096Y-16684000D01*
X21933096Y-16684000D02*
X21914048Y-16693524D01*
X21914048Y-16693524D02*
X21885477Y-16693524D01*
X22066429Y-16693524D02*
X22047381Y-16684000D01*
X22047381Y-16684000D02*
X22037858Y-16664952D01*
X22037858Y-16664952D02*
X22037858Y-16493524D01*
X22218810Y-16684000D02*
X22199762Y-16693524D01*
X22199762Y-16693524D02*
X22161667Y-16693524D01*
X22161667Y-16693524D02*
X22142619Y-16684000D01*
X22142619Y-16684000D02*
X22133096Y-16664952D01*
X22133096Y-16664952D02*
X22133096Y-16588762D01*
X22133096Y-16588762D02*
X22142619Y-16569714D01*
X22142619Y-16569714D02*
X22161667Y-16560190D01*
X22161667Y-16560190D02*
X22199762Y-16560190D01*
X22199762Y-16560190D02*
X22218810Y-16569714D01*
X22218810Y-16569714D02*
X22228334Y-16588762D01*
X22228334Y-16588762D02*
X22228334Y-16607809D01*
X22228334Y-16607809D02*
X22133096Y-16626857D01*
X22304524Y-16684000D02*
X22323572Y-16693524D01*
X22323572Y-16693524D02*
X22361667Y-16693524D01*
X22361667Y-16693524D02*
X22380715Y-16684000D01*
X22380715Y-16684000D02*
X22390238Y-16664952D01*
X22390238Y-16664952D02*
X22390238Y-16655428D01*
X22390238Y-16655428D02*
X22380715Y-16636381D01*
X22380715Y-16636381D02*
X22361667Y-16626857D01*
X22361667Y-16626857D02*
X22333096Y-16626857D01*
X22333096Y-16626857D02*
X22314048Y-16617333D01*
X22314048Y-16617333D02*
X22304524Y-16598286D01*
X22304524Y-16598286D02*
X22304524Y-16588762D01*
X22304524Y-16588762D02*
X22314048Y-16569714D01*
X22314048Y-16569714D02*
X22333096Y-16560190D01*
X22333096Y-16560190D02*
X22361667Y-16560190D01*
X22361667Y-16560190D02*
X22380715Y-16569714D01*
X22456905Y-16769714D02*
X22466429Y-16760190D01*
X22466429Y-16760190D02*
X22485477Y-16731619D01*
X22485477Y-16731619D02*
X22495000Y-16712571D01*
X22495000Y-16712571D02*
X22504524Y-16684000D01*
X22504524Y-16684000D02*
X22514048Y-16636381D01*
X22514048Y-16636381D02*
X22514048Y-16598286D01*
X22514048Y-16598286D02*
X22504524Y-16550667D01*
X22504524Y-16550667D02*
X22495000Y-16522095D01*
X22495000Y-16522095D02*
X22485477Y-16503048D01*
X22485477Y-16503048D02*
X22466429Y-16474476D01*
X22466429Y-16474476D02*
X22456905Y-16464952D01*
D16*
X17585000Y-16810000D02*
X17695000Y-16920000D01*
X17695000Y-16810000D02*
X17585000Y-16920000D01*
X17695000Y-16865000D02*
G75*
G03*
X17695000Y-16865000I-55000J0D01*
G01*
D11*
X18047381Y-16957524D02*
X17933095Y-16957524D01*
X17990238Y-16957524D02*
X17990238Y-16757524D01*
X17990238Y-16757524D02*
X17971190Y-16786095D01*
X17971190Y-16786095D02*
X17952143Y-16805143D01*
X17952143Y-16805143D02*
X17933095Y-16814667D01*
X18133095Y-16938476D02*
X18142619Y-16948000D01*
X18142619Y-16948000D02*
X18133095Y-16957524D01*
X18133095Y-16957524D02*
X18123571Y-16948000D01*
X18123571Y-16948000D02*
X18133095Y-16938476D01*
X18133095Y-16938476D02*
X18133095Y-16957524D01*
X18333095Y-16957524D02*
X18218810Y-16957524D01*
X18275952Y-16957524D02*
X18275952Y-16757524D01*
X18275952Y-16757524D02*
X18256905Y-16786095D01*
X18256905Y-16786095D02*
X18237857Y-16805143D01*
X18237857Y-16805143D02*
X18218810Y-16814667D01*
X18456905Y-16757524D02*
X18475952Y-16757524D01*
X18475952Y-16757524D02*
X18495000Y-16767048D01*
X18495000Y-16767048D02*
X18504524Y-16776571D01*
X18504524Y-16776571D02*
X18514048Y-16795619D01*
X18514048Y-16795619D02*
X18523571Y-16833714D01*
X18523571Y-16833714D02*
X18523571Y-16881333D01*
X18523571Y-16881333D02*
X18514048Y-16919429D01*
X18514048Y-16919429D02*
X18504524Y-16938476D01*
X18504524Y-16938476D02*
X18495000Y-16948000D01*
X18495000Y-16948000D02*
X18475952Y-16957524D01*
X18475952Y-16957524D02*
X18456905Y-16957524D01*
X18456905Y-16957524D02*
X18437857Y-16948000D01*
X18437857Y-16948000D02*
X18428333Y-16938476D01*
X18428333Y-16938476D02*
X18418810Y-16919429D01*
X18418810Y-16919429D02*
X18409286Y-16881333D01*
X18409286Y-16881333D02*
X18409286Y-16833714D01*
X18409286Y-16833714D02*
X18418810Y-16795619D01*
X18418810Y-16795619D02*
X18428333Y-16776571D01*
X18428333Y-16776571D02*
X18437857Y-16767048D01*
X18437857Y-16767048D02*
X18456905Y-16757524D01*
X18647381Y-16757524D02*
X18666429Y-16757524D01*
X18666429Y-16757524D02*
X18685476Y-16767048D01*
X18685476Y-16767048D02*
X18695000Y-16776571D01*
X18695000Y-16776571D02*
X18704524Y-16795619D01*
X18704524Y-16795619D02*
X18714048Y-16833714D01*
X18714048Y-16833714D02*
X18714048Y-16881333D01*
X18714048Y-16881333D02*
X18704524Y-16919429D01*
X18704524Y-16919429D02*
X18695000Y-16938476D01*
X18695000Y-16938476D02*
X18685476Y-16948000D01*
X18685476Y-16948000D02*
X18666429Y-16957524D01*
X18666429Y-16957524D02*
X18647381Y-16957524D01*
X18647381Y-16957524D02*
X18628333Y-16948000D01*
X18628333Y-16948000D02*
X18618810Y-16938476D01*
X18618810Y-16938476D02*
X18609286Y-16919429D01*
X18609286Y-16919429D02*
X18599762Y-16881333D01*
X18599762Y-16881333D02*
X18599762Y-16833714D01*
X18599762Y-16833714D02*
X18609286Y-16795619D01*
X18609286Y-16795619D02*
X18618810Y-16776571D01*
X18618810Y-16776571D02*
X18628333Y-16767048D01*
X18628333Y-16767048D02*
X18647381Y-16757524D01*
X18799762Y-16957524D02*
X18799762Y-16824190D01*
X18799762Y-16843238D02*
X18809286Y-16833714D01*
X18809286Y-16833714D02*
X18828333Y-16824190D01*
X18828333Y-16824190D02*
X18856905Y-16824190D01*
X18856905Y-16824190D02*
X18875952Y-16833714D01*
X18875952Y-16833714D02*
X18885476Y-16852762D01*
X18885476Y-16852762D02*
X18885476Y-16957524D01*
X18885476Y-16852762D02*
X18895000Y-16833714D01*
X18895000Y-16833714D02*
X18914048Y-16824190D01*
X18914048Y-16824190D02*
X18942619Y-16824190D01*
X18942619Y-16824190D02*
X18961667Y-16833714D01*
X18961667Y-16833714D02*
X18971191Y-16852762D01*
X18971191Y-16852762D02*
X18971191Y-16957524D01*
X19066429Y-16957524D02*
X19066429Y-16824190D01*
X19066429Y-16843238D02*
X19075952Y-16833714D01*
X19075952Y-16833714D02*
X19095000Y-16824190D01*
X19095000Y-16824190D02*
X19123572Y-16824190D01*
X19123572Y-16824190D02*
X19142619Y-16833714D01*
X19142619Y-16833714D02*
X19152143Y-16852762D01*
X19152143Y-16852762D02*
X19152143Y-16957524D01*
X19152143Y-16852762D02*
X19161667Y-16833714D01*
X19161667Y-16833714D02*
X19180714Y-16824190D01*
X19180714Y-16824190D02*
X19209286Y-16824190D01*
X19209286Y-16824190D02*
X19228333Y-16833714D01*
X19228333Y-16833714D02*
X19237857Y-16852762D01*
X19237857Y-16852762D02*
X19237857Y-16957524D01*
X19628333Y-16748000D02*
X19456905Y-17005143D01*
X19885476Y-16757524D02*
X19904524Y-16757524D01*
X19904524Y-16757524D02*
X19923572Y-16767048D01*
X19923572Y-16767048D02*
X19933095Y-16776571D01*
X19933095Y-16776571D02*
X19942619Y-16795619D01*
X19942619Y-16795619D02*
X19952143Y-16833714D01*
X19952143Y-16833714D02*
X19952143Y-16881333D01*
X19952143Y-16881333D02*
X19942619Y-16919429D01*
X19942619Y-16919429D02*
X19933095Y-16938476D01*
X19933095Y-16938476D02*
X19923572Y-16948000D01*
X19923572Y-16948000D02*
X19904524Y-16957524D01*
X19904524Y-16957524D02*
X19885476Y-16957524D01*
X19885476Y-16957524D02*
X19866429Y-16948000D01*
X19866429Y-16948000D02*
X19856905Y-16938476D01*
X19856905Y-16938476D02*
X19847381Y-16919429D01*
X19847381Y-16919429D02*
X19837857Y-16881333D01*
X19837857Y-16881333D02*
X19837857Y-16833714D01*
X19837857Y-16833714D02*
X19847381Y-16795619D01*
X19847381Y-16795619D02*
X19856905Y-16776571D01*
X19856905Y-16776571D02*
X19866429Y-16767048D01*
X19866429Y-16767048D02*
X19885476Y-16757524D01*
X20037857Y-16938476D02*
X20047381Y-16948000D01*
X20047381Y-16948000D02*
X20037857Y-16957524D01*
X20037857Y-16957524D02*
X20028334Y-16948000D01*
X20028334Y-16948000D02*
X20037857Y-16938476D01*
X20037857Y-16938476D02*
X20037857Y-16957524D01*
X20171191Y-16757524D02*
X20190238Y-16757524D01*
X20190238Y-16757524D02*
X20209286Y-16767048D01*
X20209286Y-16767048D02*
X20218810Y-16776571D01*
X20218810Y-16776571D02*
X20228334Y-16795619D01*
X20228334Y-16795619D02*
X20237857Y-16833714D01*
X20237857Y-16833714D02*
X20237857Y-16881333D01*
X20237857Y-16881333D02*
X20228334Y-16919429D01*
X20228334Y-16919429D02*
X20218810Y-16938476D01*
X20218810Y-16938476D02*
X20209286Y-16948000D01*
X20209286Y-16948000D02*
X20190238Y-16957524D01*
X20190238Y-16957524D02*
X20171191Y-16957524D01*
X20171191Y-16957524D02*
X20152143Y-16948000D01*
X20152143Y-16948000D02*
X20142619Y-16938476D01*
X20142619Y-16938476D02*
X20133095Y-16919429D01*
X20133095Y-16919429D02*
X20123572Y-16881333D01*
X20123572Y-16881333D02*
X20123572Y-16833714D01*
X20123572Y-16833714D02*
X20133095Y-16795619D01*
X20133095Y-16795619D02*
X20142619Y-16776571D01*
X20142619Y-16776571D02*
X20152143Y-16767048D01*
X20152143Y-16767048D02*
X20171191Y-16757524D01*
X20409286Y-16824190D02*
X20409286Y-16957524D01*
X20361667Y-16748000D02*
X20314048Y-16890857D01*
X20314048Y-16890857D02*
X20437857Y-16890857D01*
X20495000Y-16757524D02*
X20618810Y-16757524D01*
X20618810Y-16757524D02*
X20552143Y-16833714D01*
X20552143Y-16833714D02*
X20580715Y-16833714D01*
X20580715Y-16833714D02*
X20599762Y-16843238D01*
X20599762Y-16843238D02*
X20609286Y-16852762D01*
X20609286Y-16852762D02*
X20618810Y-16871810D01*
X20618810Y-16871810D02*
X20618810Y-16919429D01*
X20618810Y-16919429D02*
X20609286Y-16938476D01*
X20609286Y-16938476D02*
X20599762Y-16948000D01*
X20599762Y-16948000D02*
X20580715Y-16957524D01*
X20580715Y-16957524D02*
X20523572Y-16957524D01*
X20523572Y-16957524D02*
X20504524Y-16948000D01*
X20504524Y-16948000D02*
X20495000Y-16938476D01*
X20685476Y-16757524D02*
X20809286Y-16757524D01*
X20809286Y-16757524D02*
X20742619Y-16833714D01*
X20742619Y-16833714D02*
X20771191Y-16833714D01*
X20771191Y-16833714D02*
X20790238Y-16843238D01*
X20790238Y-16843238D02*
X20799762Y-16852762D01*
X20799762Y-16852762D02*
X20809286Y-16871810D01*
X20809286Y-16871810D02*
X20809286Y-16919429D01*
X20809286Y-16919429D02*
X20799762Y-16938476D01*
X20799762Y-16938476D02*
X20790238Y-16948000D01*
X20790238Y-16948000D02*
X20771191Y-16957524D01*
X20771191Y-16957524D02*
X20714048Y-16957524D01*
X20714048Y-16957524D02*
X20695000Y-16948000D01*
X20695000Y-16948000D02*
X20685476Y-16938476D01*
X20885476Y-16757524D02*
X20885476Y-16795619D01*
X20961667Y-16757524D02*
X20961667Y-16795619D01*
X21256905Y-17033714D02*
X21247381Y-17024190D01*
X21247381Y-17024190D02*
X21228334Y-16995619D01*
X21228334Y-16995619D02*
X21218810Y-16976571D01*
X21218810Y-16976571D02*
X21209286Y-16948000D01*
X21209286Y-16948000D02*
X21199762Y-16900381D01*
X21199762Y-16900381D02*
X21199762Y-16862286D01*
X21199762Y-16862286D02*
X21209286Y-16814667D01*
X21209286Y-16814667D02*
X21218810Y-16786095D01*
X21218810Y-16786095D02*
X21228334Y-16767048D01*
X21228334Y-16767048D02*
X21247381Y-16738476D01*
X21247381Y-16738476D02*
X21256905Y-16728952D01*
X21418810Y-16824190D02*
X21418810Y-16957524D01*
X21371191Y-16748000D02*
X21323572Y-16890857D01*
X21323572Y-16890857D02*
X21447381Y-16890857D01*
X21675953Y-16957524D02*
X21675953Y-16757524D01*
X21761667Y-16957524D02*
X21761667Y-16852762D01*
X21761667Y-16852762D02*
X21752143Y-16833714D01*
X21752143Y-16833714D02*
X21733096Y-16824190D01*
X21733096Y-16824190D02*
X21704524Y-16824190D01*
X21704524Y-16824190D02*
X21685477Y-16833714D01*
X21685477Y-16833714D02*
X21675953Y-16843238D01*
X21885477Y-16957524D02*
X21866429Y-16948000D01*
X21866429Y-16948000D02*
X21856905Y-16938476D01*
X21856905Y-16938476D02*
X21847381Y-16919429D01*
X21847381Y-16919429D02*
X21847381Y-16862286D01*
X21847381Y-16862286D02*
X21856905Y-16843238D01*
X21856905Y-16843238D02*
X21866429Y-16833714D01*
X21866429Y-16833714D02*
X21885477Y-16824190D01*
X21885477Y-16824190D02*
X21914048Y-16824190D01*
X21914048Y-16824190D02*
X21933096Y-16833714D01*
X21933096Y-16833714D02*
X21942619Y-16843238D01*
X21942619Y-16843238D02*
X21952143Y-16862286D01*
X21952143Y-16862286D02*
X21952143Y-16919429D01*
X21952143Y-16919429D02*
X21942619Y-16938476D01*
X21942619Y-16938476D02*
X21933096Y-16948000D01*
X21933096Y-16948000D02*
X21914048Y-16957524D01*
X21914048Y-16957524D02*
X21885477Y-16957524D01*
X22066429Y-16957524D02*
X22047381Y-16948000D01*
X22047381Y-16948000D02*
X22037858Y-16928952D01*
X22037858Y-16928952D02*
X22037858Y-16757524D01*
X22218810Y-16948000D02*
X22199762Y-16957524D01*
X22199762Y-16957524D02*
X22161667Y-16957524D01*
X22161667Y-16957524D02*
X22142619Y-16948000D01*
X22142619Y-16948000D02*
X22133096Y-16928952D01*
X22133096Y-16928952D02*
X22133096Y-16852762D01*
X22133096Y-16852762D02*
X22142619Y-16833714D01*
X22142619Y-16833714D02*
X22161667Y-16824190D01*
X22161667Y-16824190D02*
X22199762Y-16824190D01*
X22199762Y-16824190D02*
X22218810Y-16833714D01*
X22218810Y-16833714D02*
X22228334Y-16852762D01*
X22228334Y-16852762D02*
X22228334Y-16871810D01*
X22228334Y-16871810D02*
X22133096Y-16890857D01*
X22304524Y-16948000D02*
X22323572Y-16957524D01*
X22323572Y-16957524D02*
X22361667Y-16957524D01*
X22361667Y-16957524D02*
X22380715Y-16948000D01*
X22380715Y-16948000D02*
X22390238Y-16928952D01*
X22390238Y-16928952D02*
X22390238Y-16919429D01*
X22390238Y-16919429D02*
X22380715Y-16900381D01*
X22380715Y-16900381D02*
X22361667Y-16890857D01*
X22361667Y-16890857D02*
X22333096Y-16890857D01*
X22333096Y-16890857D02*
X22314048Y-16881333D01*
X22314048Y-16881333D02*
X22304524Y-16862286D01*
X22304524Y-16862286D02*
X22304524Y-16852762D01*
X22304524Y-16852762D02*
X22314048Y-16833714D01*
X22314048Y-16833714D02*
X22333096Y-16824190D01*
X22333096Y-16824190D02*
X22361667Y-16824190D01*
X22361667Y-16824190D02*
X22380715Y-16833714D01*
X22456905Y-17033714D02*
X22466429Y-17024190D01*
X22466429Y-17024190D02*
X22485477Y-16995619D01*
X22485477Y-16995619D02*
X22495000Y-16976571D01*
X22495000Y-16976571D02*
X22504524Y-16948000D01*
X22504524Y-16948000D02*
X22514048Y-16900381D01*
X22514048Y-16900381D02*
X22514048Y-16862286D01*
X22514048Y-16862286D02*
X22504524Y-16814667D01*
X22504524Y-16814667D02*
X22495000Y-16786095D01*
X22495000Y-16786095D02*
X22485477Y-16767048D01*
X22485477Y-16767048D02*
X22466429Y-16738476D01*
X22466429Y-16738476D02*
X22456905Y-16728952D01*
M02*
