%FSTAX24Y24*%
%MOIN*%
%IN MASK1.GBR *%
%ADD10C,0.0100*%
%ADD11C,0.0300*%
%ADD12C,0.0700*%
%ADD13C,0.0830*%
%ADD14C,0.0880*%
%ADD15C,0.0980*%
%ADD16C,0.1080*%
%ADD17C,0.1280*%
%ADD18O,0.1080X0.0630*%
%ADD19R,0.0880X0.0880*%
%ADD20R,0.1080X0.0630*%
D10*X0155Y00085D02*G01X0204D01*Y00185D01*X0107D01*Y00085D01*X0155D01*
G36*G01X0204D01*Y00185D01*X0107D01*Y00085D01*X0155D01*G37*
%LPC*%
%LPD*%
D12*X023Y0115D03*Y0105D03*X01825Y006D03*X01925D03*X02225Y0075D03*
Y0085D03*X0215Y0105D03*Y0115D03*X016Y00375D03*X015D03*D13*X0261Y004D03*
Y003D03*Y00485D03*Y00215D03*X0251Y00485D03*Y00215D03*X0275Y0035D03*D19*
X02519Y01576D03*D14*Y01467D03*Y01358D03*Y01249D03*Y0114D03*
X02631Y011945D03*Y013035D03*Y014125D03*Y015235D03*D17*X02575Y0185D03*
Y00866D03*D15*X01275Y01725D03*Y01825D03*X015Y01725D03*Y01825D03*D12*
X01825Y004D03*X01905D03*D20*X01475Y005D03*D18*Y006D03*Y007D03*Y008D03*
Y009D03*Y01D03*Y011D03*Y012D03*X01175D03*Y011D03*Y01D03*Y009D03*
Y008D03*Y007D03*Y006D03*Y005D03*X01475Y013D03*Y014D03*X01175Y013D03*
Y014D03*D20*X02025Y0075D03*D18*Y0085D03*Y0095D03*Y0105D03*Y0115D03*
Y0125D03*Y0135D03*Y0145D03*X01725D03*Y0135D03*Y0125D03*Y0115D03*
Y0105D03*Y0095D03*Y0085D03*Y0075D03*D20*X005Y0065D03*D18*Y0075D03*
Y0085D03*Y0095D03*Y0105D03*Y0115D03*Y0125D03*Y0135D03*X002D03*Y0125D03*
Y0115D03*Y0105D03*Y0095D03*Y0085D03*Y0075D03*Y0065D03*D15*
X01725Y01725D03*Y01825D03*D16*X022Y018D03*X002D03*Y002D03*X022D03*D13*
X00875Y008D03*Y009D03*Y01D03*Y011D03*Y012D03*Y013D03*Y014D03*Y015D03*
Y016D03*Y017D03*X00775D03*Y016D03*Y004D03*Y005D03*Y006D03*Y007D03*
Y008D03*Y009D03*Y01D03*Y011D03*Y012D03*Y013D03*Y014D03*Y015D03*
X00875Y007D03*Y006D03*Y005D03*Y004D03*X0105Y0065D03*Y0025D03*
M02*