M48
FMAT,2
INCH,LZ
T1C0.1500
T2C0.0280
T3C0.0320
T4C0.0354
T5C0.0360
T6C0.0400
T7C0.0430
T8C0.0850
T9C0.1200
%
T1
X022Y018
X002Y018
X002Y002
X022Y002
T2
X023Y0115
X023Y0105
X01825Y006
X01925Y006
X02225Y0075
X02225Y0085
X0215Y0105
X0215Y0115
X016Y00375
X015Y00375
X01825Y004
X01905Y004
T3
X01475Y005
X01475Y006
X01475Y007
X01475Y008
X01475Y009
X01475Y01
X01475Y011
X01475Y012
X01175Y012
X01175Y011
X01175Y01
X01175Y009
X01175Y008
X01175Y007
X01175Y006
X01175Y005
X01475Y013
X01475Y014
X01175Y013
X01175Y014
X02025Y0075
X02025Y0085
X02025Y0095
X02025Y0105
X02025Y0115
X02025Y0125
X02025Y0135
X02025Y0145
X01725Y0145
X01725Y0135
X01725Y0125
X01725Y0115
X01725Y0105
X01725Y0095
X01725Y0085
X01725Y0075
X005Y0065
X005Y0075
X005Y0085
X005Y0095
X005Y0105
X005Y0115
X005Y0125
X005Y0135
X002Y0135
X002Y0125
X002Y0115
X002Y0105
X002Y0095
X002Y0085
X002Y0075
X002Y0065
T4
X00875Y008
X00875Y009
X00875Y01
X00875Y011
X00875Y012
X00875Y013
X00875Y014
X00875Y015
X00875Y016
X00875Y017
X00775Y017
X00775Y016
X00775Y004
X00775Y005
X00775Y006
X00775Y007
X00775Y008
X00775Y009
X00775Y01
X00775Y011
X00775Y012
X00775Y013
X00775Y014
X00775Y015
X00875Y007
X00875Y006
X00875Y005
X00875Y004
T5
X0105Y0065
X0105Y0025
T6
X0261Y004
X0261Y003
X0261Y00485
X0261Y00215
X0251Y00485
X0251Y00215
X01275Y01725
X01275Y01825
X015Y01725
X015Y01825
X01725Y01725
X01725Y01825
T7
X02519Y01576
X02519Y01467
X02519Y01358
X02519Y01249
X02519Y0114
X02631Y011945
X02631Y013035
X02631Y014125
X02631Y015235
T8
X0275Y0035
T9
X02575Y0185
X02575Y00866
M30
